<?xml version="1.0" encoding="utf-8"?>
<!-- Generator: Adobe Illustrator 19.1.0, SVG Export Plug-In . SVG Version: 6.00 Build 0)  -->
<svg version="1.1" xmlns="http://www.w3.org/2000/svg" xmlns:xlink="http://www.w3.org/1999/xlink" x="0px" y="0px"
	 viewBox="0 0 288 288" style="enable-background:new 0 0 288 288;" xml:space="preserve">
<style type="text/css">
	.st0{display:none;}
	.st1{display:inline;}
	.st2{fill:#CB2027;}
	.st3{fill:#1D0D0B;}
	.st4{fill:#FFFFFF;}
	.st5{fill:#0C122E;}
	.st6{fill:#FFF4C2;}
</style>
<g id="puffin_colors">
</g>
<g id="base_puffin">
</g>
<g id="wings_and_wands">
</g>
<g id="hat_colors">
</g>
<g id="hat">
	<g>
		<polygon class="st2" points="184.3,62.5 204.1,52.7 208.9,51.7 220.2,54.3 191.3,78.3 		"/>
		<g>
			<path class="st2" d="M185.1,63.7c6.2-3,12.3-6.6,18.6-9.2c1.2-0.5,1.1-0.4,2.3-0.7c0.9-0.2,2.1-0.6,3.1-0.6
				c-0.7,0-0.3,0.1,0.2,0.1c3.5,0.5,7,1.6,10.4,2.4c-0.2-0.8-0.4-1.7-0.7-2.5c-9.6,8-19.2,16-28.8,24c0.8,0.1,1.6,0.2,2.4,0.3
				c-2.3-5.3-4.7-10.5-7-15.8c-0.8-1.8-3.4-0.2-2.6,1.5c2.3,5.3,4.7,10.5,7,15.8c0.4,1,1.7,0.9,2.4,0.3c9.6-8,19.2-16,28.8-24
				c0.9-0.7,0.4-2.3-0.7-2.5c-6.1-1.4-11.5-3.6-17.6-1.3c-6.7,2.6-13,6.4-19.4,9.6C181.8,62,183.4,64.6,185.1,63.7z"/>
		</g>
	</g>
	<g>
		<polygon class="st2" points="190.8,82.5 203.4,80.1 197.7,88.4 190.7,92 189.4,82.7 		"/>
		<g>
			<path class="st2" d="M191.2,84c4.2-0.8,8.4-1.6,12.6-2.4c-0.6-0.7-1.1-1.5-1.7-2.2c-1.8,2.7-3.6,5.4-5.5,8
				c-0.3,0.4,0.9-0.3-0.3,0.1c-0.8,0.3-1.7,0.9-2.4,1.3c-1.3,0.7-2.7,1.4-4,2.1c0.8,0.4,1.5,0.9,2.3,1.3c-0.4-3.1-0.8-6.2-1.2-9.4
				c-0.5,0.5-1,1-1.5,1.5c0.5-0.1,0.9-0.1,1.4-0.2c1.9-0.2,1.9-3.2,0-3c-0.5,0.1-0.9,0.1-1.4,0.2c-0.7,0.1-1.6,0.6-1.5,1.5
				c0.4,3.1,0.8,6.2,1.2,9.4c0.2,1.1,1.2,1.9,2.3,1.3c2.4-1.2,5.9-2.2,7.7-4.3c2.2-2.4,3.8-5.5,5.6-8.2c0.8-1.2-0.5-2.4-1.7-2.2
				c-4.2,0.8-8.4,1.6-12.6,2.4C188.5,81.4,189.3,84.3,191.2,84z"/>
		</g>
	</g>
	<g>
		<polyline class="st2" points="191.3,78.3 215.6,62.4 216.7,57 191.3,78.3 		"/>
		<g>
			<path class="st2" d="M192.1,79.6c5.7-3.7,11.3-7.4,17-11.1c2.2-1.4,5.3-2.8,7.2-4.7c1.5-1.6,1.5-4.2,1.8-6.4
				c0.3-1.5-1.3-2.4-2.5-1.5c-8.4,7.1-16.9,14.1-25.3,21.2c-1.5,1.2,0.7,3.4,2.1,2.1c8.4-7.1,16.9-14.1,25.3-21.2
				c-0.8-0.5-1.7-1-2.5-1.5c-0.3,1.6-0.6,3.1-0.9,4.7c-0.2,0.8,1.1-0.5-0.3,0.3c-2.7,1.7-5.3,3.5-8,5.2c-5.1,3.4-10.3,6.7-15.4,10.1
				C189,78,190.5,80.6,192.1,79.6L192.1,79.6z"/>
		</g>
	</g>
	<g>
		<polyline class="st3" points="72.8,175.3 81.3,156.7 94.7,140.7 117,129.7 106.8,118.4 103.2,105.3 104.3,78.6 121.2,57.3 
			145.2,47.7 156.1,48.4 165.8,51 158.7,53.1 138.8,61.2 121.2,73.5 110.7,92.4 106.8,109.5 121.2,115.9 138.8,125.1 162.5,126.2 
			152.3,140.8 124.3,191.5 108.7,206.6 94.1,214 		"/>
		<g>
			<path class="st3" d="M74.1,176c2.5-5.6,5.2-11.1,7.7-16.8c1.7-3.9,6.2-8.2,9.5-12.1c1.1-1.3,3.6-4.7,4.3-5.2c1.7-1.3,4.1-2,6-3
				c5.4-2.7,10.9-5.4,16.3-8c0.9-0.4,0.9-1.7,0.3-2.4c-3.1-3.5-6.4-6.8-9.4-10.4c-0.5-0.6-0.8-1.1-0.5-0.5c-0.3-0.7-0.5-1.6-0.7-2.4
				c-0.8-2.7-1.5-5.5-2.3-8.2c-0.8-2.7-0.4-5.5-0.3-9c0.2-5.6,0.5-11.2,0.7-16.8c0-0.7,0.1-1.4,0.1-2.1c0-1.2-0.4,0.5-0.3,0.4
				c0.8-1.5,2.3-2.9,3.4-4.3c3.5-4.4,6.9-8.8,10.4-13.1c0.9-1.2,1.8-2.7,2.9-3.6c0,0-1,0.5,0.2,0c0.8-0.4,1.7-0.7,2.5-1
				c5.4-2.1,10.7-4.3,16.1-6.4c4.7-1.9,6.2-1.7,11.6-1.4c4.3,0.2,8.3,1.5,12.8,2.8c0-1,0-1.9,0-2.9c-10.4,3.1-21.9,6.6-30.8,12.9
				c-3.4,2.4-6.8,4.8-10.2,7.1c-1.5,1.1-3.4,2-4.5,3.4c-2,2.5-3.3,6-4.9,8.8c-1.7,3-3.7,6.1-5.1,9.2c-2.5,5.4-3,12.3-4.4,18.1
				c-0.1,0.6,0.1,1.4,0.7,1.7c9.8,4.4,19.3,9,28.9,14c3.8,2,6.5,1.9,10.9,2.2c5.5,0.3,11.1,0.5,16.6,0.8c-0.4-0.8-0.9-1.5-1.3-2.3
				c-3.5,5-7.4,10-10.6,15.2c-4,6.8-7.6,13.8-11.5,20.7c-4.7,8.5-9.4,17-14.1,25.5c-0.5,0.9-1,1.9-1.6,2.8c-0.6,0.9-0.3,0.6-0.6,1
				c-2.8,3.3-6.4,6.2-9.5,9.2c-2.7,2.6-4.7,4.9-7.5,6.4c-4.2,2.1-8.3,4.3-12.5,6.4c-1.7,0.9-0.2,3.5,1.5,2.6c5.9-3,12.5-5.3,17.2-10
				c4.6-4.5,10.9-8.8,14.2-14.4c9.2-15.3,17.3-31.4,26-47c3.3-6,7.6-11.4,11.5-17c0.7-1-0.2-2.2-1.3-2.3c-5.2-0.2-10.5-0.5-15.7-0.7
				c-2.4-0.1-5.1,0-7.5-0.4c-0.8-0.1,0.8,0.4-0.6-0.3c-1.1-0.5-2.2-1.2-3.3-1.7c-9.2-4.8-18.3-9.2-27.8-13.4
				c0.2,0.6,0.5,1.1,0.7,1.7c1.2-5.4,2-12.2,3.8-17c2-5.2,6.4-11.5,9.3-16.7c0.2-0.4,1.6-2.5,0.6-1.4c0.6-0.6,1.6-1.1,2.3-1.6
				c3.3-2.3,6.7-4.7,10-7c4.8-3.3,7.8-4.7,13.5-7.1c6.1-2.5,12-4.8,18.3-6.7c1.4-0.4,1.5-2.5,0-2.9c-3.7-1-7.4-2.4-11.3-2.8
				c-3.7-0.4-8.1-1.2-11.6,0.1c-5.5,2-10.8,4.3-16.2,6.5c-2.6,1-5.6,1.7-7.6,3.7c-4,4.1-7.2,9.2-10.8,13.6c-1.9,2.4-5.1,5.2-5.9,8.1
				c-1.2,4.3-0.4,10.1-0.6,14.6c-0.2,3.9-0.9,8.4-0.5,12.3c0.3,2.5,1.4,5.1,2.1,7.4c0.6,2,0.9,4.5,2,6.3c2.5,4.1,7,7.7,10.2,11.3
				c0.1-0.8,0.2-1.6,0.3-2.4c-5.7,2.8-11.4,5.6-17.1,8.4c-1.8,0.9-4,1.6-5.6,2.8c-1.7,1.4-3.1,3.7-4.5,5.4
				c-3.2,3.9-7.4,7.7-9.7,12.2c-2.9,5.6-5.3,11.6-7.9,17.3C70.7,176.3,73.3,177.8,74.1,176L74.1,176z"/>
		</g>
	</g>
	<g>
		<polyline class="st3" points="72.8,175.3 54.4,172.1 64.8,187.3 50.7,188.2 59.2,204.6 75.3,218.2 94.1,214 		"/>
		<g>
			<path class="st3" d="M73.2,173.8c-6.1-1-12.3-2.1-18.4-3.1c-1.2-0.2-2.5,1-1.7,2.2c3.5,5,7,10.1,10.4,15.1
				c0.4-0.8,0.9-1.5,1.3-2.3c-4.7,0.3-9.4,0.6-14.1,0.9c-1.2,0.1-1.8,1.2-1.3,2.3c2.6,5.1,5,10.4,7.9,15.3c2.3,3.9,7,6.6,10.4,9.5
				c2.9,2.4,5.6,6.3,9.5,5.6c5.8-1.1,11.5-2.5,17.3-3.8c1.9-0.4,1.1-3.3-0.8-2.9c-5.3,1.2-10.7,2.3-16,3.5c-0.8,0.2-1.8,0.2-2.5,0.5
				c0.6-0.3,1.4,1.1,0.3-0.3c-1.7-2.2-4.7-4-6.8-5.7c-3.4-2.8-7.5-5.5-9.2-8.7c-2.5-4.8-5-9.7-7.5-14.5c-0.4,0.8-0.9,1.5-1.3,2.3
				c4.7-0.3,9.4-0.6,14.1-0.9c1-0.1,2-1.3,1.3-2.3c-3.5-5-7-10.1-10.4-15.1c-0.6,0.7-1.1,1.5-1.7,2.2c6.1,1,12.3,2.1,18.4,3.1
				C74.3,177,75.1,174.1,73.2,173.8L73.2,173.8z"/>
		</g>
	</g>
	<g>
		<polyline class="st3" points="59.3,171.6 67.4,172.9 63.4,173.7 59.3,171.6 		"/>
		<g>
			<path class="st3" d="M58.9,173.1c2.7,0.4,5.4,0.8,8.1,1.2c0-1,0-1.9,0-2.9c-1.4,0.3-2.7,0.5-4.1,0.8c0.4,0.1,0.8,0.1,1.2,0.2
				c-1.4-0.7-2.7-1.4-4.1-2.1c-1.7-0.9-3.2,1.7-1.5,2.6c1.4,0.7,2.8,1.7,4.2,2.1c1.4,0.4,3.6-0.5,5-0.7c1.4-0.3,1.5-2.7,0-2.9
				c-2.7-0.4-5.4-0.8-8.1-1.2C57.8,169.9,57,172.8,58.9,173.1L58.9,173.1z"/>
		</g>
	</g>
	<g>
		<polygon class="st3" points="196.1,141.2 233,123.7 236.1,125.6 237.2,134.9 230,151.2 217.4,161.5 200,166.5 		"/>
		<g>
			<path class="st3" d="M196.8,142.5c6.2-2.9,12.3-5.8,18.5-8.7c4.1-2,8.2-3.9,12.4-5.9c1.4-0.7,2.8-1.3,4.2-2
				c0.8-0.4,2.4-0.6,1.2-0.8c-1.4-0.2,1,1.2,1.5,1.3c0.8,0.3,0.4-1.2,0.2,0.2c-0.3,1.9,0.4,4.9,0.8,6.7c0.1,0.3,0.2,1.9,0.3,1.2
				c0.1-0.6-0.3,0.6-0.4,0.9c-0.9,2-1.8,4-2.7,6c-1.1,2.5-2.7,7.5-4,9c-2.5,2.9-6.4,5.2-9.4,7.6c-0.8,0.6-1.6,1.3-2.4,1.9
				c-0.7,0.5-0.6,0.4-0.2,0.2c-1.5,0.7-3.3,1-4.9,1.4c-4.1,1.2-8.2,2.4-12.3,3.5c0.6,0.3,1.2,0.7,1.8,1c-1.3-8.4-2.6-16.8-3.9-25.3
				c-0.3-1.9-3.2-1.1-2.9,0.8c1.3,8.4,2.6,16.8,3.9,25.3c0.1,0.8,1.1,1.3,1.8,1c3.8-1.1,7.6-2.2,11.4-3.3c2.8-0.8,5.4-1.2,7.7-3
				c3.6-2.7,7.8-5.6,10.9-8.8c2.2-2.2,3.1-5.7,4.3-8.6c1.2-2.8,3.6-6.4,4-9.5c0.2-1.8-0.5-4.1-0.7-5.9c-0.1-1.3,0-3.2-0.8-4.3
				c-3.9-5.3-12.5,1.5-16.4,3.3c-8.5,4-17,8-25.5,12.1C193.6,140.7,195.1,143.3,196.8,142.5z"/>
		</g>
	</g>
	<g>
		<polygon class="st3" points="199,168.5 217.4,161.5 200,160.3 		"/>
		<g>
			<path class="st3" d="M199.4,170c6.1-2.3,12.2-4.7,18.3-7c1.6-0.6,1.3-2.8-0.4-2.9c-5.8-0.4-11.6-0.8-17.4-1.2
				c-0.9-0.1-1.4,0.7-1.5,1.5c-0.3,2.7-0.6,5.5-1,8.2c-0.2,1.9,2.8,1.9,3,0c0.3-2.7,0.6-5.5,1-8.2c-0.5,0.5-1,1-1.5,1.5
				c5.8,0.4,11.6,0.8,17.4,1.2c-0.1-1-0.3-2-0.4-2.9c-6.1,2.3-12.2,4.7-18.3,7C196.9,167.8,197.6,170.7,199.4,170z"/>
		</g>
	</g>
	<g>
		<polygon class="st2" points="135.3,225.5 130.8,255.2 133.2,263.5 144.6,265.8 160.6,262.7 173.4,254.4 164.9,253.4 151.5,255.4 
			143.9,254.3 141,244.3 140.9,236.3 146.4,224 		"/>
		<g>
			<path class="st2" d="M133.9,225.1c-1.1,7.3-2.2,14.6-3.3,21.9c-0.4,2.5-1.2,5.3-1.2,7.8c0,3,1.5,6.3,2.4,9.1c0.1,0.5,0.5,0.9,1,1
				c3.6,0.7,7.6,2.1,11.3,2.3c3.5,0.2,7.4-1.3,10.8-1.9c3.1-0.6,5.7-0.8,8.3-2.6c3.7-2.4,7.3-4.7,11-7.1c1.3-0.9,0.7-2.6-0.8-2.8
				c-5.2-0.6-9.1-0.9-14.2-0.1c-1.8,0.3-3.7,0.6-5.5,0.8c-0.4,0.1-3.4,0.4-2,0.4c-1.3,0-2.8-0.4-4.1-0.6c-0.7-0.1-1.7-0.5-2.5-0.4
				c-1.3,0.2-0.1,0,0.1,0.6c-2-5.8-2.6-10-2.8-15.9c0-0.4-0.1-0.9,0-1.3c-0.2,1.1,0,0.3,0.1-0.1c0.4-1.4,1.2-2.8,1.8-4.2
				c1.1-2.5,2.2-5,3.3-7.5c0.6-1.3-0.4-2.4-1.7-2.2c-3.7,0.5-7.4,1-11,1.5c-1.9,0.3-1.1,3.1,0.8,2.9c3.7-0.5,7.4-1,11-1.5
				c-0.6-0.7-1.1-1.5-1.7-2.2c-2,4.4-5.5,9.6-5.6,14.5c-0.1,6.2,1.3,11,3,17c0.1,0.5,0.5,1,1,1c5.3,0.8,8.9,1,14.1,0.2
				c2.2-0.3,5.8-1.1,7.4-1.1c2.8,0,5.6,0.7,8.4,1c-0.3-0.9-0.5-1.9-0.8-2.8c-5.5,3.6-10.4,7.8-16.3,8.9c-3.8,0.8-7.9,2.1-11.8,2.3
				c-0.5,0,1.1,0.1-0.3-0.1c-1-0.1-2-0.4-3-0.6c-1.8-0.4-4.6-1.5-6.4-1.3c-1.4,0.2-0.9-1.2-0.1,0.7c-0.3-0.8-0.5-1.8-0.7-2.6
				c-0.4-1.3-1.5-4.8-1.6-5.1c0.1,0.6,0.3-1.6,0.3-2c0.3-1.8,0.6-3.6,0.8-5.5c1.1-7.3,2.2-14.6,3.3-21.9
				C137,224,134.1,223.2,133.9,225.1z"/>
		</g>
	</g>
	<g>
		<g>
			<path d="M133.5,227.2c-1.3,8.2-2.4,16.4-3.7,24.6c-1,6.2-1.2,11.5,5.6,14.2c12.7,5.2,29.6-2.2,39-10.6c0.9-0.8,0.3-2.2-0.7-2.5
				c-4-1.3-8-1.3-12.1-0.6c-5.9,0.9-13.8,4.2-17-2.9c-3.3-7.3,0.5-17.8,4.5-24.1c1-1.6-1.6-3.1-2.6-1.5c-4.5,7.2-8.3,18.5-4.7,26.8
				c1.5,3.4,4.4,6.2,8.2,6.4c7.9,0.4,15-3.7,22.9-1.1c-0.2-0.8-0.4-1.7-0.7-2.5c-8.7,7.7-22.6,13.6-34.4,10.4
				c-8.3-2.2-5.1-12.2-4.1-18.5c0.8-5.7,1.7-11.5,2.6-17.2C136.7,226.1,133.8,225.3,133.5,227.2L133.5,227.2z"/>
		</g>
	</g>
	<g>
		<polygon class="st2" points="111.3,226.3 102.1,254.9 103,263.5 113.9,267.6 130.2,267.1 144.2,261 136,258.6 122.4,258.4 
			115.1,256.1 113.9,245.8 115.1,237.8 122.5,226.6 		"/>
		<g>
			<path class="st2" d="M109.9,225.9c-2.2,6.9-4.5,13.8-6.7,20.6c-0.8,2.5-2.2,5.4-2.6,7.9c-0.4,2.8,0.6,6.2,0.9,9
				c0.1,0.7,0.4,1.2,1.1,1.4c3.5,1.3,7.2,3.4,10.8,4.1c3.6,0.7,7.9-0.1,11.5-0.2c3.1-0.1,5.3,0,8.1-1.2c4-1.7,8-3.5,12-5.2
				c1.2-0.5,0.8-2.4-0.4-2.7c-5-1.4-8.9-2.4-14-2.5c-2.6,0-5.6,0.4-8.1-0.1c-1.6-0.3-4.9-1.6-7-2.3c0.4,0.5,0.7,1,1.1,1.4
				c-0.7-6-1.2-10.3-0.3-16.1c0.7-4.1,4.9-8.8,7.5-12.7c0.6-1-0.2-2.2-1.3-2.3c-3.7-0.1-7.4-0.2-11.1-0.3c-1.9-0.1-1.9,2.9,0,3
				c3.7,0.1,7.4,0.2,11.1,0.3c-0.4-0.8-0.9-1.5-1.3-2.3c-2.7,4.1-6.9,8.5-7.8,13.4c-1.1,6-0.5,10.8,0.2,16.9
				c0.1,0.7,0.4,1.2,1.1,1.4c5.1,1.6,8.7,2.4,14,2.5c5.9,0.1,9.3,0.7,15.1,2.4c-0.1-0.9-0.2-1.8-0.4-2.7c-3.6,1.6-7.3,3.2-10.9,4.8
				c-0.8,0.3-1.6,0.8-2.5,1.1c-1.3,0.4,0.4,0-0.2,0.1c-1.8,0.2-3.7,0.1-5.4,0.2c-3.1,0.1-8.3,0.7-10.5,0.2c-3.5-0.7-7.1-2.7-10.5-4
				c0.4,0.5,0.7,1,1.1,1.4c-0.3-2.5-1.2-6.8-0.9-8.5c0.4-2.8,1.9-5.8,2.8-8.5c2.1-6.6,4.3-13.2,6.4-19.8
				C113.4,224.8,110.5,224,109.9,225.9z"/>
		</g>
	</g>
	<g>
		<polygon class="st4" points="78.3,218.2 90.2,224.3 119.8,227.6 144.2,225.3 161.9,218.9 173.4,211.2 183.2,200.9 192.5,185 
			199.3,157 192.2,140.8 177.6,128.3 172.1,124.7 181.8,114.5 188.9,97.1 189.3,85.8 184.5,69.2 175,57 168.9,52.7 168.9,52.7 
			158.2,53.1 137.2,63.2 129.5,68.9 120.2,79.2 112.4,90 108.7,99.9 108.9,109.5 114.6,114 129.3,120.2 144,124.4 160.4,125.9 
			164.4,126.6 153,139.8 144,160.3 131,184.9 117.3,200.9 102.1,212.3 90.8,216.2 		"/>
		<g>
			<path class="st4" d="M77.6,219.5c5.1,2.6,9.9,6,15.7,6.7c8.5,1,17.1,2.5,25.7,2.9c6.8,0.3,14.1-1.2,20.9-1.8
				c6.8-0.6,12.8-3.4,19.2-5.7c11.1-4,21.8-13.6,27.7-23.8c3.5-5.9,6.9-10.9,8.5-17.5c1.2-4.8,2.3-9.6,3.5-14.5
				c0.6-2.5,2.1-5.8,2-8.4c0-3.1-2.7-6.9-3.9-9.7c-1.3-2.9-2.2-6.3-4.4-8.6c-5.5-6-12.8-11.3-19.7-15.7c0.1,0.8,0.2,1.6,0.3,2.4
				c3-3.2,6.6-6.2,9.2-9.7c1.9-2.6,2.9-6,4.1-9c3-7.4,5.6-13.9,4.2-22.1c-0.8-4.8-2.8-9.8-4.2-14.5c-1-3.3-3.5-5.7-5.6-8.4
				c-2.4-3-4.3-5.7-7.3-8c-1.4-1-2.9-2.5-4.5-2.9c-2-0.4-4.7,0.2-6.7,0.3c-8.2,0.3-15.8,5.6-23.1,9.2c-6.9,3.3-11.8,8.6-16.9,14.2
				c-4.8,5.3-9.9,11.2-12.4,17.9c-1.8,4.8-2.6,7.4-2.5,12.5c0,1.4-0.4,3.7,0.3,5.1c0.7,1.5,3.6,3,4.9,3.9c3.7,2.7,8.4,4,12.6,5.8
				c4.1,1.7,8.3,2.9,12.6,4.1c8.6,2.5,17.8,2.4,26.3,3.9c-0.2-0.8-0.4-1.7-0.7-2.5c-5.2,6-10.6,11.3-13.8,18.5
				c-3.5,8-7,15.8-11.1,23.5c-2.7,5-5.4,10-8,15c-1.3,2.5-3.8,5.1-6.2,7.8c-2.4,2.9-6,7.6-8.1,9.5c-3.8,3.5-8.5,6.3-12.7,9.4
				c-6.7,5-17,6-25.6,7.4c-1.9,0.3-1.1,3.2,0.8,2.9c7.9-1.3,17-2.1,24.2-6.1c4.4-2.4,8.4-6.2,12.4-9.2c2.8-2,4.6-4.1,6.9-6.7
				c3.2-3.8,7-7.4,9.8-11.5c2-2.8,3.4-6.2,5-9.3c4.3-8,8.4-15.9,12.1-24.2c1.7-3.9,3.7-9.8,5.8-12.5c3.2-4.3,7.1-8.3,10.7-12.4
				c0.7-0.8,0.5-2.3-0.7-2.5c-6.7-1.2-15-1.1-20.7-2.3c-7.8-1.7-15.3-4.5-22.6-7.6c-1.9-0.8-4-1.5-5.8-2.4c-1.2-0.6,0.4,0.3-0.5-0.3
				c-1.2-0.8-2.4-1.8-3.5-2.7c-0.7-0.5-1.9-2-1.3-0.4c-0.2-0.6,0-1.7-0.1-2.4c-0.1-2.2-0.5-4.8-0.2-7c1.1-7.1,6.5-13.9,11.2-19.8
				c4.4-5.5,9.9-11.4,16.2-15.5c2.6-1.6,5.6-2.8,8.3-4.1c4.1-2,8.2-4.3,12.4-5.9c0.4-0.2,1.2-0.4,0.1-0.1c0.7-0.1,1.5-0.1,2.1-0.1
				c2.4-0.1,4.9-0.3,7.3-0.3c1.5,0,0.4-0.2,0.9,0.1c0.9,0.4,1.8,1.3,2.6,1.8c1.4,1,2.5,1.7,3.3,2.6c3,3.3,5.9,7.1,8.4,10.8
				c0.5,0.8,0.4,0.7,0.2,0.2c0.3,0.6,0.4,1.4,0.6,2.1c0.7,2.5,1.4,5,2.2,7.5c1.4,5,1.9,7.1,1.7,12.1c-0.2,4.9-0.7,6.6-2.6,11.3
				c-1.1,2.7-2.2,5.4-3.3,8.1c-0.4,0.9-0.7,1.9-1.1,2.7c-0.5,1,0.5-0.6-0.2,0.2c-2.8,3.5-6.3,6.6-9.3,9.9c-0.7,0.7-0.5,1.8,0.3,2.4
				c6.1,4,11.3,8.6,17.1,13.6c4.8,4.1,5.7,11,9.1,17c1,1.7,0.4,0,0.3,0.6c-0.3,1.3-0.6,2.6-0.9,3.9c-1.1,4.5-2.2,8.9-3.3,13.4
				c-0.8,3.2-1.3,6.7-2.4,9.8c-0.4,1.2-2.7,4.8-3.9,6.7c-1.7,2.8-3.6,6.7-5.3,9.1c-1.7,2.3-5,5.3-7.3,7.7
				c-3.5,3.7-9.7,8.2-14.1,10.1c-5.3,2.3-13.1,5.6-17.9,6.2c-7.4,0.9-15.3,2.1-22.7,2.2c-7.7,0-15.8-1.8-23.4-2.6
				c-1.7-0.2-3.4-0.4-5.2-0.6c-1.9-0.2,0.1,0.4-1.6-0.5c-3.5-1.9-7.2-3.7-10.7-5.5C77.4,216,75.8,218.6,77.6,219.5z"/>
		</g>
	</g>
	<g>
		<g>
			<path d="M116.5,62.3c9.5-7.1,20.6-10,31.8-12.9c12.2-3.1,22.3,2.9,29.8,12.2c15.5,19.2,12.8,46.7-6.7,62.1
				c-0.8,0.6-0.4,1.9,0.3,2.4c12.8,8.2,27.2,18.4,26.7,35.4c-0.3,8.8-4,17.2-8.2,24.7c-3.9,6.9-8.2,13.6-13.4,19.5
				c-20.7,23.1-58.6,24.5-86.8,16.7c-17.8-4.9-32.2-16.6-37.9-34.6c-0.5,0.6-1,1.3-1.4,1.9c5.4-0.6,10.9-0.8,16.3-0.5
				c1.7,0.1,2.1-2.7,0.4-2.9c-4-0.7-7.7-2-11.3-4.1c-0.3,0.9-0.5,1.9-0.8,2.8c2.7-0.2,5,0.2,7.4,1.1c1.4,0.5,2.5-1.5,1.5-2.5
				c-3.7-3.4-6.5-7.2-8.5-11.9c-0.3,0.6-0.7,1.2-1,1.8c6.1-1.1,11.9,0,17.2,3c0.9,0.5,1.9,0,2.2-0.9c6.6-20.4,21.1-40.1,43.2-44.6
				c1.3-0.3,1.4-2.1,0.4-2.7c-17.4-10.5-17.2-41.4-7.4-56.8c1-1.6-1.6-3.1-2.6-1.5c-6.5,10.3-7.7,24-6.1,35.8
				c1.4,10.1,5.5,19.7,14.5,25.1c0.1-0.9,0.2-1.8,0.4-2.7c-23.1,4.6-38.4,25.3-45.3,46.6c0.7-0.3,1.5-0.6,2.2-0.9
				c-6.1-3.4-12.6-4.5-19.5-3.3c-0.7,0.1-1.3,1.1-1,1.8c2.2,5.1,5.1,9.5,9.3,13.2c0.5-0.8,1-1.7,1.5-2.5c-2.8-1-5.3-1.4-8.2-1.2
				c-1.4,0.1-2.1,2-0.8,2.8c3.8,2.2,7.7,3.6,12,4.4c0.1-1,0.3-2,0.4-2.9c-5.5-0.3-10.9-0.2-16.3,0.5c-0.9,0.1-1.8,0.9-1.4,1.9
				c11,34.8,50,42.8,82.3,40.2c16.6-1.4,33.1-6.6,45.1-18.6c6.1-6.1,11-13.5,15.3-21c4.4-7.5,8.2-15.7,9.2-24.4
				c2.5-19.8-13-31.8-27.9-41.4c0.1,0.8,0.2,1.6,0.3,2.4c20.3-16,23.3-44.8,7.6-65.1c-6.9-8.9-17.2-16.9-29.1-15.2
				c-6.2,0.9-12.6,2.9-18.6,4.8c-6.7,2.1-13,5.2-18.6,9.4C113.4,60.8,114.9,63.5,116.5,62.3L116.5,62.3z"/>
		</g>
	</g>
	<g>
		<g>
			<path d="M67.9,214.6c20.7,10.9,45.2-6.4,57.5-22.2c8-10.3,13.7-22.1,19.4-33.8c3-6.2,6-12.3,9.4-18.3c3.9-6.9,9.7-15.9,19-12.8
				c1.8,0.6,2.6-2.3,0.8-2.9c-11.4-3.9-18.6,7.2-23.3,15.7c-6.5,11.7-11.7,24.1-18.3,35.8c-6.4,11.4-14.4,22-25.2,29.5
				c-10.4,7.2-25.9,12.7-37.9,6.3C67.7,211.1,66.2,213.7,67.9,214.6L67.9,214.6z"/>
		</g>
	</g>
	<g>
		<g>
			<path d="M154.7,45.2c-10.4,0.3-20.1,4-28.7,9.7c-8.5,5.6-17.6,13-22.6,22c-0.9,1.7,1.6,3.2,2.6,1.5c4.8-8.5,13.5-15.6,21.6-20.9
				c8.2-5.4,17.3-9,27.2-9.2C156.7,48.1,156.7,45.1,154.7,45.2L154.7,45.2z"/>
		</g>
	</g>
	<g>
		<g>
			<path d="M183,63.8c5.4-3,10.6-6.1,16.1-8.9c3.3-1.7,6.6-2.9,10.3-3c3.1-0.1,11.8,0.2,9.5,5.2c-2.3,4.8-9.8,8.1-14.1,10.9
				c-5.2,3.4-10.5,6.8-15.8,10c-1.6,1-0.1,3.6,1.5,2.6c8-4.9,15.9-9.9,23.6-15.2c3.6-2.5,10.9-7.3,8.5-12.8c-2-4.6-13.2-4-17.2-3.2
				c-8.5,1.8-16.4,7.7-23.9,11.9C179.8,62.1,181.3,64.7,183,63.8L183,63.8z"/>
		</g>
	</g>
	<g>
		<g>
			<path d="M189.8,84.1c5.8-1.1,11.7-2.6,17-5.3c-0.7-0.6-1.5-1.1-2.2-1.7c-2.3,6.8-5.8,13.5-14,13.4c-1.9,0-1.9,3,0,3
				c9.6,0.1,14.2-7.5,16.9-15.6c0.4-1.3-1.1-2.2-2.2-1.7c-5,2.5-10.8,3.9-16.3,5C187.1,81.6,187.9,84.5,189.8,84.1L189.8,84.1z"/>
		</g>
	</g>
	<g>
		<g>
			<g>
				<path d="M154.3,83.7c0.9-1.9,1.9-3.7,3.3-5.3c0.4-0.4,5.2-5.2,5.2-2.6c0,1.9,3,1.9,3,0c-0.1-3.4-3.8-4.5-6.4-3
					c-3.5,2-6.1,5.9-7.7,9.4C151,84,153.5,85.5,154.3,83.7L154.3,83.7z"/>
			</g>
		</g>
		<g>
			<g>
				<path d="M148.9,84.1c1.1,0.2,2.2,0.4,3.4,0.6c0.8,0.1,1.6-0.2,1.8-1c0.2-0.7-0.2-1.7-1-1.8c-1.1-0.2-2.2-0.4-3.4-0.6
					c-0.8-0.1-1.6,0.2-1.8,1C147.7,83,148.1,84,148.9,84.1L148.9,84.1z"/>
			</g>
		</g>
	</g>
	<g>
		<g>
			<path d="M167.7,48.8c-6.9,0.2-13.7,3.2-20,5.8c-8.1,3.4-15,9.1-21.2,15.2c-5.8,5.7-12,11.7-15.9,19c-3.5,6.5-4.6,13.4-5.2,20.7
				c-0.2,1.9,2.8,1.9,3,0c0.6-7.1,1.7-13.6,5.2-19.9c3.7-6.7,9.6-12.4,15-17.7c5.5-5.4,11.4-10.4,18.4-13.7
				c6.2-2.9,13.9-6.2,20.8-6.4C169.6,51.7,169.6,48.7,167.7,48.8L167.7,48.8z"/>
		</g>
	</g>
	<g>
		<g>
			<path d="M106.1,110.8c9.6,5.3,18.5,11.3,29.2,14.3c9.5,2.7,19.4,2.8,29.1,2.9c1.9,0,1.9-3,0-3c-9.5-0.1-19.1-0.2-28.3-2.8
				c-10.4-2.9-19.1-8.9-28.5-14C105.9,107.3,104.4,109.9,106.1,110.8L106.1,110.8z"/>
		</g>
	</g>
	<g>
		<g>
			<path d="M69.5,195.9c10.4,6,23.9,8.7,35.5,4.7c5.3-1.8,10.4-5.4,14.8-8.7c4.6-3.4,8.6-7.4,11-12.7c0.8-1.7-1.8-3.3-2.6-1.5
				c-2.3,5-6.1,8.8-10.6,12c-4.1,3-8.7,6.3-13.5,8c-10.9,3.7-23.5,1.2-33.2-4.4C69.3,192.3,67.8,194.9,69.5,195.9L69.5,195.9z"/>
		</g>
	</g>
	<g>
		<g>
			<path d="M109.2,228c-2.6,7.9-5.1,15.8-7.6,23.6c-1.9,5.7-2.9,10.7,2.9,14.5c5.4,3.6,13.6,3.9,19.9,3.3c7.4-0.7,14.4-3.2,20.7-7.1
				c0.9-0.6,1-2,0-2.6c-3.5-1.8-7-2.5-10.9-2.7c-4.8-0.2-13,1.8-16.2-2.9c-5-7.4,1.4-19.1,6.4-24.7c1.3-1.4-0.8-3.6-2.1-2.1
				c-5.7,6.4-11.1,17.1-8.1,25.8c1.3,3.7,3.8,6.1,7.7,6.8c7.4,1.2,14.7-1.3,21.7,2.4c0-0.9,0-1.7,0-2.6c-9.8,6.1-24.7,10-35.8,4.7
				c-7.9-3.8-2.9-12.9-1-19.1c1.8-5.5,3.5-11,5.3-16.5C112.7,226.9,109.8,226.1,109.2,228L109.2,228z"/>
		</g>
	</g>
	<g>
		<g>
			<path d="M199.7,171.2c8.2-1.3,17.1-7,23.7-11.8c7.8-5.7,14.1-13.9,15.2-23.8c0.4-3.3,0.6-9.8-2.1-12.4c-2.5-2.4-6,0.1-8.3,1.4
				c-11.2,6.2-22.9,11.5-34.9,16.1c0.4,0.9,0.8,1.8,1.2,2.7c12.5-5.8,24.9-11.6,37.4-17.5c1.7-0.8,0.2-3.4-1.5-2.6
				c-12.5,5.8-24.9,11.6-37.4,17.5c-1.5,0.7-0.4,3.4,1.2,2.7c8.2-3.2,16.2-6.7,24.1-10.5c3.9-1.9,8.1-5.1,12.2-6.3
				c1.5-1.3,3.1-1.1,4.8,0.7c0.4,1.4,0.6,2.8,0.6,4.2c0.1,2.2-0.1,4.4-0.7,6.6c-2.2,9.3-9.3,16.2-17.2,21.1
				c-5.7,3.5-12.3,7.8-19,8.9C197,168.6,197.8,171.5,199.7,171.2L199.7,171.2z"/>
		</g>
	</g>
	<g>
		<polyline class="st5" points="78.8,105.3 94.1,89.8 121.2,58.4 132.5,50.3 147.3,45.5 176.8,46.2 183.2,47.3 176.8,38.1 
			167.5,33.9 145.2,34.1 133.2,36.7 101.8,25.2 73.7,20 61.8,23.6 59.2,43.2 59.2,60.9 61.3,67.3 74.4,45.7 78.8,34.2 83.7,50.3 
			88.4,70.9 89.1,83 78.8,105.3 78.8,105.3 		"/>
		<g>
			<path class="st5" d="M79.8,106.4c12.4-12.6,23.9-25.5,35.4-38.8c2.3-2.6,4.4-5.6,6.9-8c2-1.9,6.9-5.1,10-7.2
				c2.7-1.8,7.9-2.9,11.7-4.2c3.6-1.2,4.6-1.2,8.6-1.1c10.3,0.2,20.7,0,30.4,1.6c1.2,0.2,2.5-1,1.7-2.2c-2.1-3-4.1-7.6-7-9.8
				c-2.5-1.9-7.3-3.8-10.4-4.3c-5.2-0.8-11.1,0.1-16.4,0.1c-3.8,0-6.8,0.3-10.5,1.1c-2.3,0.5-5,1.6-7.3,1.6c1.4,0-1.8-0.9-2.4-1.1
				c-5.6-2-11.1-4.1-16.7-6.1c-3.8-1.4-7.6-3.2-11.5-4.2c-3.8-1-7.8-1.4-11.7-2.1c-5.2-1-11-2.9-16.3-3c-4.1-0.1-8.9,2.4-12.8,3.6
				c-0.7,0.2-1,0.8-1.1,1.4c-0.9,6.9-2.5,13.9-2.6,20.9c-0.1,4.8,0,9.7,0,14.5c0,3.1,1.2,5.7,2.2,8.6c0.4,1.2,2,1.5,2.7,0.4
				c3.7-6.2,7.5-12.3,11.2-18.5c2.8-4.7,4.4-9.8,6.4-14.9c-1,0-1.9,0-2.9,0c3.7,11.9,7.7,24.1,9.6,36.5c0.3,1.8,0.3,6.4,0.5,9.1
				c0,0.8,0,3.4,0.3,2.3c-0.3,1.1-1,2.1-1.4,3.1c-2.9,6.3-5.8,12.7-8.7,19c-0.8,1.7,1.8,3.3,2.6,1.5c3-6.5,6-13.1,9-19.6
				c2.2-4.8,1.5-10.5,0.8-15.8c-1.7-12.5-6-24.9-9.7-36.9c-0.5-1.5-2.4-1.4-2.9,0c-2.1,5.5-3.6,10.2-6.5,14.8
				c-3.6,6-7.2,11.9-10.9,17.9c0.9,0.1,1.8,0.2,2.7,0.4c-1.1-3.3-2.1-5.4-2.1-8.5c0-4.8-0.2-9.6,0-14.3c0.3-6.8,1.7-13.7,2.6-20.4
				c-0.4,0.5-0.7,1-1.1,1.4c2-0.6,4-1.2,5.9-1.8c1.3-0.4,2.6-0.8,3.9-1.2c0.5-0.2,2.8-0.6,1.3-0.6c4.1-0.1,8.9,1.6,13,2.4
				c7.8,1.4,14.9,2.7,22.4,5.5c5.6,2,11.2,4.1,16.7,6.1c2.5,0.9,5.6,2.7,8.2,2.7c3.7-0.1,9-2.4,11.9-2.6c5-0.4,10.2,0,15.2-0.1
				c2.1,0,4.5-0.3,6.6,0c-1-0.1,0.8,0.4,1.6,0.8c1.4,0.6,2.8,1.2,4.2,1.9c3,1.3,2.3,0.7,4.2,3.4c1.5,2.2,3,4.4,4.6,6.6
				c0.6-0.7,1.1-1.5,1.7-2.2c-8.9-1.5-17.8-1.4-26.9-1.6c-3.3-0.1-6.9-0.7-10.2-0.1c-4.4,0.8-9.7,2.7-13.8,4.5
				c-5.8,2.5-11.4,7.3-15.6,12.1c-7.3,8.5-14.6,16.9-21.9,25.4c-5.5,6.3-11.6,12.1-17.5,18.1C76.4,105.6,78.5,107.8,79.8,106.4
				L79.8,106.4z"/>
		</g>
	</g>
	<g>
		<g>
			<path class="st6" d="M115.1,30.7c1.9,0,1.9-3,0-3C113.1,27.7,113.1,30.7,115.1,30.7L115.1,30.7z"/>
		</g>
	</g>
	<g>
		<g>
			<path class="st6" d="M115.3,30.7c1.9,0,1.9-3,0-3C113.4,27.7,113.4,30.7,115.3,30.7L115.3,30.7z"/>
		</g>
	</g>
	<g>
		<g>
			<path class="st6" d="M114.6,31c1.9,0,1.9-3,0-3C112.6,28,112.6,31,114.6,31L114.6,31z"/>
		</g>
	</g>
	<g>
		<g>
			<path class="st6" d="M116.6,30.2c1.9,0,1.9-3,0-3C114.6,27.2,114.6,30.2,116.6,30.2L116.6,30.2z"/>
		</g>
	</g>
	<g>
		<path class="st6" d="M116.3,31.5c-1.4,0.1-2.7-0.3-3.9-0.9"/>
		<g>
			<path class="st6" d="M116.3,30c-1.1,0-2.2-0.2-3.2-0.7c-1.7-0.9-3.2,1.7-1.5,2.6c1.5,0.7,3,1.1,4.7,1.1
				C118.3,32.9,118.3,29.9,116.3,30L116.3,30z"/>
		</g>
	</g>
	<g>
		<g>
			<path class="st6" d="M100.9,43.5c-1.3,1.7-2.8,3.2-4.7,4.2c-1,0.6-2.2,1-3.3,1.5c-1.2,0.6-2.2,1.3-3.2,2.1c4.7-1.7,10-2.1,14.9-1
				c-3.3-0.5-6.3-2.3-9.2-4.1c-1.4-0.9-2.9-1.8-4.3-2.7c2.4,3.1,4.2,6.6,5.3,10.4c0.8-3.7,2-7.2,3.5-10.7"/>
			<g>
				<path class="st6" d="M99.8,42.4c-1.6,2-3.3,3.5-5.6,4.6c-2,0.9-3.8,1.8-5.6,3.2c-1.2,0.9,0.1,3,1.5,2.5c4.6-1.6,9.3-2,14.1-1
					c1.9,0.4,2.7-2.5,0.8-2.9c-4.9-1-9-4.1-13.1-6.7c-1.2-0.7-3,0.8-2.1,2.1c2.3,3.1,4,6.4,5.2,10c0.4,1.3,2.5,1.5,2.9,0
					c0.8-3.5,1.9-7,3.3-10.3c0.7-1.8-1.8-3.3-2.6-1.5c-1.5,3.6-2.7,7.2-3.6,11c1,0,1.9,0,2.9,0c-1.2-3.9-3-7.5-5.5-10.7
					c-0.7,0.7-1.4,1.4-2.1,2.1c4.4,2.7,8.7,5.9,13.9,7c0.3-1,0.5-1.9,0.8-2.9c-5.3-1-10.6-0.7-15.7,1c0.5,0.8,1,1.7,1.5,2.5
					c2-1.6,4.4-2.3,6.6-3.6c1.8-1.1,3.3-2.6,4.6-4.2C103.1,43.1,101,40.9,99.8,42.4L99.8,42.4z"/>
			</g>
		</g>
		<g>
			<path class="st6" d="M156.6,34.2c-3.4,2.5-7.2,4.6-11.1,6.1c4.4-0.3,8.8-0.2,13.1,0.4c-4.2-1.1-8.2-3.3-11.3-6.4
				c1.3,1.7,2.1,3.7,3,5.7c0.9,2,1.7,3.9,2.6,5.9c0.9-1,0.8-2.5,0.8-3.8c0-2.8,0.6-5.7,1.6-8.3"/>
			<g>
				<path class="st6" d="M155.8,32.9c-3.4,2.4-6.9,4.4-10.8,6c-1.4,0.6-1.4,3.1,0.4,2.9c4.4-0.3,8.7-0.2,13.1,0.4
					c1.7,0.2,2-2.5,0.4-2.9c-4-1.1-7.6-3.1-10.6-6c-1.2-1.1-3.4,0.4-2.4,1.8c2.4,3.5,3.9,7.7,5.6,11.6c0.5,1.1,2.1,0.9,2.6,0
					c1-1.6,1-3.2,1.1-5.1c0.1-2.6,0.6-5,1.5-7.4c0.6-1.8-2.3-2.6-2.9-0.8c-0.6,1.9-1.1,3.7-1.4,5.7c-0.2,1.9,0.2,4.5-0.9,6.1
					c0.9,0,1.7,0,2.6,0c-1.7-3.9-3.2-8.1-5.6-11.6c-0.8,0.6-1.6,1.2-2.4,1.8c3.4,3.2,7.4,5.5,11.9,6.8c0.1-1,0.3-2,0.4-2.9
					c-4.4-0.5-8.7-0.7-13.1-0.4c0.1,1,0.3,2,0.4,2.9c4.1-1.6,7.9-3.7,11.5-6.3C158.9,34.4,157.4,31.8,155.8,32.9L155.8,32.9z"/>
			</g>
		</g>
		<g>
			<path class="st6" d="M99.5,68.4c-2.2,2.7-5,4.8-8.1,6.2c4.4-0.7,8.9-0.7,13.3-0.1c-4.8-1-9.3-3.1-13.2-6.1
				c2.1,1.3,3.4,3.7,4.6,5.9c0.6,1.2,1.3,2.4,1.9,3.5c0.2,0.3,0.4,0.7,0.8,0.6c0.4-0.1,0.3-0.6,0.3-1c-0.6-3-0.3-6.1,1-8.9"/>
			<g>
				<path class="st6" d="M98.5,67.4c-2.2,2.6-4.8,4.5-7.8,5.9c-1.7,0.8-0.4,3,1.2,2.7c4.3-0.6,8.6-0.6,12.9,0c1.7,0.2,2-2.6,0.4-2.9
					c-4.7-1.1-9-3-12.9-5.9c-0.5,0.9-1,1.7-1.5,2.6c2.2,1.5,3.3,3.9,4.5,6.2c0.8,1.5,1.3,3.4,3.1,3.9c0.7,0.2,1.3-0.2,1.7-0.7
					c0.9-1.2,0.3-2.6,0.2-4c-0.1-2.2,0.4-4.2,1.2-6.3c0.7-1.8-2.2-2.6-2.9-0.8c-0.6,1.5-1.1,3.1-1.2,4.8c-0.1,0.9-0.1,1.8,0,2.7
					c0,0.4,0.4,1.8,0.2,2c0.6-0.2,1.1-0.5,1.7-0.7c0.1,0-1-2-1.3-2.5c-0.6-1-1.1-2.1-1.7-3.1c-1.1-1.7-2.3-3.1-3.9-4.2
					c-1.6-1.1-3,1.5-1.5,2.6c4.1,3,8.6,5.1,13.6,6.2c0.1-1,0.3-2,0.4-2.9c-4.6-0.6-9.1-0.5-13.7,0.1c0.4,0.9,0.8,1.8,1.2,2.7
					c3.3-1.5,6.1-3.6,8.4-6.4C101.8,68,99.7,65.9,98.5,67.4L98.5,67.4z"/>
			</g>
		</g>
		<g>
			<path class="st6" d="M123.3,45.2c-1.4,1.7-3.3,3-5.3,3.9c-1.2,0.5-2.6,1-3.4,2c3.7-0.4,7.5-0.2,11.2,0.4
				c-3.8-0.8-6.7-3.6-9.5-6.3c1.4,3.2,2.9,6.4,4.3,9.6c1.2-3.7,2.5-7.4,4-11"/>
			<g>
				<path class="st6" d="M122.2,44.1c-1.3,1.5-2.8,2.7-4.6,3.5c-1.5,0.7-2.9,1.2-4,2.4c-0.8,0.9-0.3,2.7,1.1,2.6
					c3.6-0.3,7.2-0.2,10.8,0.4c1.9,0.3,2.7-2.4,0.8-2.9c-3.6-0.9-6.2-3.4-8.9-5.9c-1.3-1.2-3,0.3-2.4,1.8c1.4,3.2,2.9,6.4,4.3,9.6
					c0.6,1.3,2.4,0.8,2.7-0.4c1.2-3.7,2.5-7.4,4-11c0.7-1.8-2.2-2.6-2.9-0.8c-1.4,3.6-2.7,7.3-4,11c0.9-0.1,1.8-0.2,2.7-0.4
					c-1.4-3.2-2.9-6.4-4.3-9.6c-0.8,0.6-1.6,1.2-2.4,1.8c3,2.9,6.1,5.6,10.2,6.7c0.3-1,0.5-1.9,0.8-2.9c-3.9-0.6-7.7-0.8-11.6-0.5
					c0.4,0.9,0.7,1.7,1.1,2.6c1.2-1.3,3.1-1.7,4.7-2.7c1.5-0.9,2.8-2,3.9-3.3C125.6,44.8,123.5,42.7,122.2,44.1L122.2,44.1z"/>
			</g>
		</g>
		<g>
			<path class="st6" d="M68.6,44.3c-1.4,2-2.9,3.8-4.7,5.4c-1.1,1-2.2,2-3.3,2.9c2.9-1.2,6.1-1.9,9.2-2c-2.9-1.9-5.9-3.8-8.8-5.7
				c1.3,3.5,2.6,7.1,3.9,10.6c1.6-3.2,0.5-7.4,2.6-10.4"/>
			<g>
				<path class="st6" d="M67.3,43.5c-2.2,3.1-4.9,5.6-7.8,8c-1.1,0.9,0.1,3.1,1.5,2.5c2.8-1.1,5.8-1.8,8.8-2c1.5-0.1,2-2,0.8-2.8
					c-2.9-1.9-5.9-3.8-8.8-5.7c-1-0.7-2.7,0.5-2.2,1.7c1.3,3.5,2.6,7.1,3.9,10.6c0.4,1.1,2.2,1.7,2.7,0.4c1.4-3.3,0.7-7.3,2.6-10.4
					c1-1.6-1.6-3.2-2.6-1.5c-2,3.2-1.1,7-2.6,10.4c0.9,0.1,1.8,0.2,2.7,0.4c-1.3-3.5-2.6-7.1-3.9-10.6c-0.7,0.6-1.5,1.1-2.2,1.7
					c2.9,1.9,5.9,3.8,8.8,5.7c0.3-0.9,0.5-1.9,0.8-2.8c-3.3,0.2-6.5,0.9-9.6,2.1c0.5,0.8,1,1.7,1.5,2.5c3.1-2.6,5.9-5.4,8.2-8.7
					C71,43.5,68.4,42,67.3,43.5L67.3,43.5z"/>
			</g>
		</g>
		<g>
			<path class="st6" d="M74.5,23.6c-1.8,2.9-4.5,5.2-7.7,6.4c-0.7,0.3-1.5,0.7-1.6,1.4c1.1-1,2.7-1.4,4.1-1.7
				c2.9-0.6,5.9-0.9,8.9-0.9c-1.5,0.1-2.8-0.5-4.2-1.2c-2.4-1.2-4.7-2.3-7.1-3.5c2.4,3.2,4.3,6.7,5.6,10.5
				c-0.2-3.7-0.5-7.6,0.9-11.1"/>
			<g>
				<path class="st6" d="M73.2,22.9c-1.5,2.2-3.4,4-5.7,5.2c-1.6,0.9-3,1.2-3.8,3c-0.5,1.2,1.2,2.5,2.2,1.7
					c3.2-2.4,8.4-2.3,12.2-2.4c1.9-0.1,1.9-3,0-3c-3.4-0.1-7.5-3-10.5-4.5c-1.2-0.6-3,0.7-2.1,2.1c2.3,3.1,4.1,6.5,5.5,10.1
					c0.5,1.5,3.1,1.4,2.9-0.4c-0.2-3.6-0.4-7.2,0.8-10.7c0.6-1.8-2.3-2.6-2.9-0.8c-1.3,3.7-1.2,7.6-1,11.5c1-0.1,2-0.3,2.9-0.4
					c-1.4-3.9-3.3-7.5-5.8-10.8c-0.7,0.7-1.4,1.4-2.1,2.1c3.6,1.8,7.9,4.8,12,4.9c0-1,0-2,0-3c-4.3,0.1-10.2,0-13.7,2.8
					c0.7,0.6,1.5,1.1,2.2,1.7c0.2-0.5,1.9-0.9,2.4-1.2c1-0.5,1.9-1.1,2.8-1.8c1.6-1.3,2.9-2.8,4-4.5C76.8,22.8,74.2,21.3,73.2,22.9
					L73.2,22.9z"/>
			</g>
		</g>
		<g>
			<path class="st6" d="M99.3,25.4c-2.7,2.7-5.9,5-9.4,6.6c3-0.1,6.1-0.5,9-1.3"/>
			<g>
				<path class="st6" d="M98.2,24.3c-2.7,2.6-5.7,4.7-9.1,6.4c-1.3,0.6-0.7,2.9,0.8,2.8c3.2-0.1,6.3-0.6,9.4-1.3
					c1.9-0.5,1.1-3.3-0.8-2.9c-2.8,0.7-5.7,1.1-8.6,1.2c0.3,0.9,0.5,1.9,0.8,2.8c3.6-1.7,6.9-4,9.7-6.8
					C101.7,25.1,99.6,23,98.2,24.3L98.2,24.3z"/>
			</g>
		</g>
		<g>
			<path class="st6" d="M100,30.3c-3.4-1.7-6.5-3.8-9.4-6.2c1.6,4,3.2,8.1,5.4,11.8c-0.3-3.9,0.5-7.8,2.1-11.3"/>
			<g>
				<path class="st6" d="M100.8,29c-3.2-1.7-6.3-3.7-9.1-6c-1-0.8-3.1-0.1-2.5,1.5c1.6,4.2,3.3,8.3,5.6,12.2
					c0.7,1.2,2.9,0.8,2.8-0.8c-0.2-3.6,0.4-7.2,1.9-10.5c0.8-1.7-1.8-3.3-2.6-1.5c-1.7,3.8-2.5,7.8-2.3,12c0.9-0.3,1.9-0.5,2.8-0.8
					c-2.1-3.7-3.7-7.5-5.3-11.5c-0.8,0.5-1.7,1-2.5,1.5c3,2.5,6.2,4.6,9.7,6.4C101,32.5,102.5,29.9,100.8,29L100.8,29z"/>
			</g>
		</g>
		<g>
			<path class="st6" d="M178,38.9c-2.5,0.4-5.1,0.4-7.6,0.1c2.1,0.2,4.1,0.9,5.9,2c0.2,0.1,0.5,0.4,0.4,0.6c0,0.1-0.1,0.2-0.2,0.2
				c-1.5,1.2-3,2.4-4.6,3.6"/>
			<g>
				<path class="st6" d="M178,37.4c-2.5,0.3-5.1,0.4-7.6,0.1c-1.9-0.2-1.9,2.8,0,3c0.9,0.1,1.8,0.3,2.7,0.6c0.3,0.1,2.1,0.7,2.2,0.9
					c0.1-0.5,0.3-1,0.4-1.5c-1.3,1.5-3.2,2.6-4.8,3.9c-1.5,1.2,0.6,3.3,2.1,2.1c1.3-1,2.6-2.1,3.9-3.1c1-0.8,1.8-1.7,1.1-3
					c-0.6-1-2.1-1.5-3.1-1.9c-1.4-0.6-2.9-0.9-4.4-1.1c0,1,0,2,0,3c2.6,0.3,5.1,0.3,7.6-0.1C179.9,40.2,179.9,37.2,178,37.4
					L178,37.4z"/>
			</g>
		</g>
		<g>
			<path class="st6" d="M117.1,32.5c-0.3-0.4-1-0.1-1.4,0.2c-1.4,1.1-2.8,2.4-3.9,3.7c1.3-1.3,2.7-2.5,4-3.8c0.6-0.5,1.4-1.1,2-0.6
				c0.2,0.2,0.3,0.4,0.4,0.7c0.6,1.6,1.1,3.3,1.4,5.1c-1.4-1.4-2.2-3.3-2.3-5.3c0-0.2,0-0.5,0.2-0.7c0.3-0.3,0.7-0.2,1.1-0.1
				c1,0.3,2,0.6,2.9,0.9"/>
			<g>
				<path class="st6" d="M117.8,31.2c-2.5-1.7-5.7,2.5-7.1,4.1c-1.3,1.4,0.7,3.4,2.1,2.1c0.7-0.6,1.3-1.3,2-1.9
					c0.4-0.4,1.2-1.5,1.8-1.6c0.1-0.3,0.3-0.3,0.4-0.1c0.2,0.5,0.3,0.9,0.5,1.4c0.3,1,0.5,1.9,0.7,2.9c0.8-0.5,1.7-1,2.5-1.5
					c-1-1-1.3-2.1-1.8-3.5c0-0.3-0.1-0.5-0.1-0.8c-0.9,0.5-0.8,0.8,0.1,0.9c0.5,0.4,1.6,0.5,2.2,0.7c1.9,0.6,2.6-2.3,0.8-2.9
					c-1.8-0.6-5.5-2.3-6.1,0.8c-0.5,2.4,1.1,5.2,2.7,6.9c1.1,1.2,2.8-0.1,2.5-1.5c-0.4-2-0.9-6.7-3.6-7c-1.2-0.1-2.2,0.7-3,1.4
					c-1.3,1.1-2.5,2.4-3.8,3.5c0.7,0.7,1.4,1.4,2.1,2.1c0.3-0.4,3.5-3.7,3.5-3.7C117.9,34.8,119.4,32.2,117.8,31.2L117.8,31.2z"/>
			</g>
		</g>
		<g>
			<path class="st6" d="M87.6,91.4c1.6-0.5,3-1.6,3.9-3c-0.7,0.6-1.4,1.3-2.2,1.9c-0.2,0.2-0.5,0.4-0.7,0.4
				c-0.8-0.1-0.7-1.5-1.4-1.7c0.6,1.5,1.3,3,2.2,4.4"/>
			<g>
				<path class="st6" d="M88,92.8c2-0.7,3.6-1.9,4.8-3.7c1-1.5-1.1-2.9-2.4-1.8c-0.4,0.4-0.8,0.7-1.2,1.1c-0.3,0.2-0.7,0.8-1,0.8
					c0.3,0,0.5,0,0.8,0c0.9,0.2,0.3,0.5,0.3,0.1c0-0.2-0.2-0.6-0.3-0.7c-0.2-0.4-0.6-0.8-1-1c-1-0.5-2.7,0.3-2.2,1.7
					c0.7,1.7,1.4,3.3,2.3,4.8c1,1.7,3.6,0.2,2.6-1.5c-0.8-1.3-1.5-2.7-2-4.1c-0.7,0.6-1.5,1.1-2.2,1.7c0,0-0.1-0.3,0,0.1
					c0.1,0.2,0.2,0.5,0.3,0.7c0.4,0.6,0.9,1,1.6,1.1c1.6,0.2,3.1-1.7,4.2-2.7c-0.8-0.6-1.6-1.2-2.4-1.8c-0.7,1.1-1.8,1.9-3,2.3
					C85.4,90.6,86.2,93.5,88,92.8L88,92.8z"/>
			</g>
		</g>
	</g>
	<g>
		<g>
			<path d="M77.9,110.9c6.8-8.5,14.1-16.6,21.4-24.7c7-7.8,13.4-16.7,20.9-24.1c16.5-16.3,41.1-16.3,62.6-13.4
				c1.1,0.1,2.2-0.6,1.8-1.8c-4.7-15.4-23.3-16.7-36.8-14.8c-3.7,0.5-7.2,1.5-10.8,2.5c-6.1,1.5-11.1-1.9-16.6-4.2
				c-7.7-3.3-15.7-6.1-23.8-8.1c-7.9-2-16.3-3.6-24.5-3.8c-5.9-0.1-11.2,1.7-13.2,7.7c-2.4,7.2-1.1,16.1-1.1,23.5
				c0,5.4-2.1,14.5,2.5,18.6c0.7,0.6,1.8,0.6,2.4-0.3c6.1-10.1,12.3-20.2,18.4-30.4c-0.9-0.1-1.8-0.2-2.7-0.4c1.5,6,3,12,4.5,18.1
				c1.5,6.1,3.9,12.7,4.2,19c0.2,5.9-2.1,11.3-4.3,16.6c-2.4,6.1-4.9,12.3-7.4,18.4c-0.7,1.8,2.2,2.6,2.9,0.8
				c2.6-6.5,5.2-12.9,7.7-19.4c2.1-5.3,4.3-10.7,4-16.5c-0.3-5.7-2.2-11.5-3.6-17c-1.7-7-3.5-13.9-5.2-20.9
				c-0.3-1.3-2.1-1.4-2.7-0.4C72.3,46.3,66.2,56.4,60,66.5c0.8-0.1,1.6-0.2,2.4-0.3c-2.7-2.4-1.7-7.6-1.7-10.9c0-3.4,0-6.8,0.1-10.3
				c0-5.7-1.5-15.1,1.9-20.1c4.3-6.2,17.1-3,23.3-2c6.9,1.2,13.7,3,20.4,5.2c6.9,2.3,13.4,5.2,20,8.1c5.5,2.4,9,1.7,14.6,0.2
				c12.9-3.4,35.8-5,40.7,11.2c0.6-0.6,1.2-1.2,1.8-1.8c-11.6-1.6-23.3-1.9-35-0.5c-10.4,1.2-18.6,5.4-26.9,11.6
				c-3.8,2.9-6.6,6.6-9.7,10.2c-3.8,4.5-7.7,9-11.7,13.4C92,89.9,83.6,99,75.8,108.8C74.6,110.3,76.7,112.4,77.9,110.9L77.9,110.9z"
				/>
		</g>
	</g>
</g>
</svg>
