<?xml version="1.0" encoding="utf-8"?>
<!-- Generator: Adobe Illustrator 19.1.0, SVG Export Plug-In . SVG Version: 6.00 Build 0)  -->
<svg version="1.1" xmlns="http://www.w3.org/2000/svg" xmlns:xlink="http://www.w3.org/1999/xlink" x="0px" y="0px"
	 viewBox="0 0 288 288" style="enable-background:new 0 0 288 288;" xml:space="preserve">
<style type="text/css">
	.st0{display:none;}
	.st1{display:inline;}
	.st2{fill:#CB2027;}
	.st3{fill:#1D0D0B;}
	.st4{fill:#FFFFFF;}
	.st5{fill:#0C122E;}
	.st6{fill:#FFF4C2;}
</style>
<g id="puffin_colors">
</g>
<g id="base_puffin">
</g>
<g id="wings_and_wands">
</g>
<g id="hat_colors">
</g>
<g id="hat">
	<g>
		<polygon class="st2" points="184.3,62.9 204.1,53.2 208.9,52.2 220.2,54.8 191.3,78.7 		"/>
		<g>
			<path class="st2" d="M185.1,64.2c6.2-3,12.3-6.6,18.6-9.2c1.2-0.5,1.1-0.4,2.3-0.7c0.9-0.2,2.1-0.6,3.1-0.6
				c-0.7,0-0.3,0.1,0.2,0.1c3.5,0.5,7,1.6,10.4,2.4c-0.2-0.8-0.4-1.7-0.7-2.5c-9.6,8-19.2,16-28.8,24c0.8,0.1,1.6,0.2,2.4,0.3
				c-2.3-5.3-4.7-10.5-7-15.8c-0.8-1.8-3.4-0.2-2.6,1.5c2.3,5.3,4.7,10.5,7,15.8c0.4,1,1.7,0.9,2.4,0.3c9.6-8,19.2-16,28.8-24
				c0.9-0.7,0.4-2.3-0.7-2.5c-6.1-1.4-11.5-3.6-17.6-1.3c-6.7,2.6-13,6.4-19.4,9.6C181.8,62.5,183.4,65.1,185.1,64.2z"/>
		</g>
	</g>
	<g>
		<polygon class="st2" points="196.1,81.6 204.7,79.7 197.7,88.9 189.6,92.5 190.7,83.7 		"/>
		<g>
			<path class="st2" d="M196.5,83c2.9-0.6,5.7-1.3,8.6-1.9c-0.6-0.7-1.1-1.5-1.7-2.2c-2.2,2.9-4.5,5.8-6.7,8.8
				c-0.4,0.6,0.7-0.2-0.4,0.1c-0.9,0.2-1.8,0.8-2.6,1.2c-1.6,0.7-3.2,1.4-4.8,2.2c0.8,0.4,1.5,0.9,2.3,1.3c0.4-2.9,0.7-5.8,1.1-8.8
				c-0.4,0.5-0.7,1-1.1,1.4C192.9,84.5,194.7,83.8,196.5,83c1.8-0.7,1-3.6-0.8-2.9c-1.8,0.7-3.6,1.4-5.4,2.1c-0.7,0.3-1,0.7-1.1,1.4
				c-0.4,2.9-0.7,5.8-1.1,8.8c-0.2,1.3,1.4,1.7,2.3,1.3c2.7-1.2,6.7-2.2,8.7-4.3c2.6-2.6,4.7-6.1,6.9-9.1c0.9-1.1-0.6-2.5-1.7-2.2
				c-2.9,0.6-5.7,1.3-8.6,1.9C193.8,80.6,194.6,83.5,196.5,83z"/>
		</g>
	</g>
	<g>
		<polyline class="st2" points="191.3,78.7 215.6,62.9 216.7,57.5 191.3,78.7 		"/>
		<g>
			<path class="st2" d="M192.1,80c5.7-3.7,11.3-7.4,17-11.1c2.2-1.4,5.3-2.8,7.2-4.7c1.5-1.6,1.5-4.2,1.8-6.4
				c0.3-1.5-1.3-2.4-2.5-1.5c-8.4,7.1-16.9,14.1-25.3,21.2c-1.5,1.2,0.7,3.4,2.1,2.1c8.4-7.1,16.9-14.1,25.3-21.2
				c-0.8-0.5-1.7-1-2.5-1.5c-0.3,1.6-0.6,3.1-0.9,4.7c-0.2,0.8,1.1-0.5-0.3,0.3c-2.7,1.7-5.3,3.5-8,5.2c-5.1,3.4-10.3,6.7-15.4,10.1
				C189,78.5,190.5,81.1,192.1,80L192.1,80z"/>
		</g>
	</g>
	<g>
		<g>
			<polyline class="st3" points="72.8,175.7 81.3,157.1 94.7,141.2 117,130.1 107.5,120.1 103.2,105.8 104.3,79.1 121.2,57.8 
				145.2,48.2 154,48.7 165,53.2 158.7,53.6 138.8,61.7 121.5,76.3 110.7,92.8 107.4,108.5 121.2,116.4 138.8,125.6 160.8,126.4 
				152.3,141.3 124.3,191.9 108.7,207 94.1,214.5 			"/>
			<g>
				<path class="st3" d="M74.1,176.5c2.5-5.6,5.2-11.1,7.7-16.8c1.7-3.9,6.2-8.2,9.5-12.1c1.1-1.3,3.6-4.7,4.3-5.2
					c1.7-1.3,4.1-2,6-3c5.4-2.7,10.9-5.4,16.3-8c0.9-0.4,0.9-1.7,0.3-2.4c-3-3.1-6.8-6.2-9.3-9.8c-0.4-0.5,0.4,0.8-0.1-0.3
					c-0.5-1-0.7-2.3-1-3.3c-0.8-2.8-1.7-5.5-2.5-8.3c-0.8-2.6-0.4-5.4-0.3-8.9c0.2-5.5,0.5-11,0.7-16.5c0.1-1.2,0.7-3.8-0.2-2
					c0.7-1.3,2-2.5,2.9-3.7c3.6-4.6,7.3-9.2,10.9-13.8c0.9-1.2,1.8-2.6,2.9-3.6c0.4-0.4-1,0.6-0.1,0.1c0.7-0.4,1.5-0.6,2.2-0.9
					c5.3-2.1,10.6-4.2,15.9-6.3c5-2,6.6-2.2,12.1-1.7c3.7,0.3,8.4,2.9,12.4,4.5c0.1-1,0.3-2,0.4-2.9c-2.3,0.1-4.8,0-7,0.6
					c-3,0.8-5.9,2.4-8.7,3.6c-4.8,1.9-9.7,3.3-13.7,6.6c-4.9,4.1-10.9,8-15.1,12.7c-1.7,1.9-2.9,4.4-4.3,6.5c-2,3.1-4.3,6.1-6.1,9.3
					c-2.7,4.8-3,11.6-4.1,17c-0.1,0.7,0.1,1.3,0.7,1.7c9.1,5.2,18.3,10.2,27.6,15.1c3.8,2,5.6,2.2,10,2.4c5.5,0.2,11.1,0.4,16.6,0.6
					c-0.4-0.8-0.9-1.5-1.3-2.3c-7.1,12.3-14,24.7-20.8,37.2c-4.6,8.3-9.2,16.6-13.7,24.9c-2.8,5.2-7.2,8.5-12,13.1
					c-2.6,2.5-4.5,4.7-7.2,6c-4.2,2.1-8.3,4.3-12.5,6.4c-1.7,0.9-0.2,3.5,1.5,2.6c5.9-3,12.5-5.3,17.2-10
					c4.6-4.4,10.7-8.8,14.1-14.2c9.4-15.1,17.3-31.4,26-47c3.2-5.9,6.6-11.7,10-17.5c0.6-1-0.2-2.2-1.3-2.3
					c-5.2-0.2-10.5-0.4-15.7-0.6c-2-0.1-4.2,0.2-6.2-0.2c1.2,0.2-0.1-0.2-0.7-0.5c-1.2-0.7-2.5-1.3-3.7-1.9
					c-8.9-4.7-17.7-9.5-26.4-14.5c0.2,0.6,0.5,1.1,0.7,1.7c1.3-6.4,1.8-13.3,5-18.2c4.3-6.6,7.4-12.3,13-17
					c3.7-3.1,7.4-6.2,11.1-9.4c0.6-0.5,2.5-1.9,1.4-1.3c1.3-0.7,2.8-1.1,4.2-1.7c4.4-1.8,8.8-3.6,13.2-5.4c2.8-1.1,4.9-1.1,8.2-1.3
					c1.8-0.1,1.9-2.3,0.4-2.9c-6.9-2.8-14.9-7.1-22.4-4.3c-5.6,2.1-11.2,4.5-16.8,6.7c-2.7,1.1-5.1,1.6-7.1,3.8
					c-3.8,4.3-7.2,9.1-10.8,13.6c-1.8,2.3-4.8,4.9-5.6,7.7c-1.2,4.3-0.4,10.1-0.6,14.6c-0.2,3.9-1,8.4-0.5,12.3
					c0.4,2.5,1.6,5.2,2.3,7.6c0.6,2.1,1,4.8,2,6.7c2.2,4,6.8,7.4,9.9,10.7c0.1-0.8,0.2-1.6,0.3-2.4c-5.7,2.8-11.4,5.6-17.1,8.4
					c-1.8,0.9-4,1.6-5.6,2.8c-1.7,1.4-3.1,3.7-4.5,5.4c-3.2,3.9-7.4,7.7-9.7,12.2c-2.9,5.6-5.3,11.6-7.9,17.3
					C70.7,176.7,73.3,178.3,74.1,176.5L74.1,176.5z"/>
			</g>
		</g>
		<g>
			<polyline class="st3" points="72.8,175.7 55.3,173.7 68.7,190.2 51.5,190.2 59.2,205.1 75.3,216.6 94.1,214.5 			"/>
			<g>
				<path class="st3" d="M72.8,174.2c-5.8-0.7-11.7-1.3-17.5-2c-1.4-0.2-1.8,1.7-1.1,2.6c4.5,5.5,8.9,11,13.4,16.5
					c0.4-0.9,0.7-1.7,1.1-2.6c-5.7,0-11.5,0-17.2,0c-1.2,0-1.8,1.3-1.3,2.3c2.4,4.6,4.4,9.6,7.2,14c2.3,3.5,6.9,5.7,10.3,8.1
					c3.4,2.5,5.8,5.3,10,4.8c5.5-0.6,10.9-1.2,16.4-1.8c1.9-0.2,1.9-3.2,0-3c-5.1,0.6-10.2,1.1-15.3,1.7c-1,0.1-2,0.4-2.9,0.3
					c-1.1,0,0.7,0.5-0.3-0.1c-2.2-1.1-4.3-3.1-6.4-4.6c-2.4-1.7-4.9-3.5-7.3-5.2c-0.6-0.4-1.4-0.8-1.9-1.4c0.9,1-0.1-0.6-0.3-0.9
					c-2-4.6-4.7-9-7-13.5c-0.4,0.8-0.9,1.5-1.3,2.3c5.7,0,11.5,0,17.2,0c1.4,0,1.8-1.6,1.1-2.6c-4.5-5.5-8.9-11-13.4-16.5
					c-0.4,0.9-0.7,1.7-1.1,2.6c5.8,0.7,11.7,1.3,17.5,2C74.7,177.5,74.7,174.5,72.8,174.2L72.8,174.2z"/>
			</g>
		</g>
	</g>
	<g>
		<polygon class="st3" points="196.1,141.7 233,124.2 236.1,126.1 237.2,135.4 230,151.7 217.4,162 200,167 		"/>
		<g>
			<path class="st3" d="M196.8,143c6.2-2.9,12.3-5.8,18.5-8.7c4.1-2,8.2-3.9,12.4-5.9c1.4-0.7,2.8-1.3,4.2-2
				c0.8-0.4,2.4-0.6,1.2-0.8c-1.4-0.2,1,1.2,1.5,1.3c0.8,0.3,0.4-1.2,0.2,0.2c-0.3,1.9,0.4,4.9,0.8,6.7c0.1,0.3,0.2,1.9,0.3,1.2
				c0.1-0.6-0.3,0.6-0.4,0.9c-0.9,2-1.8,4-2.7,6c-1.1,2.5-2.7,7.5-4,9c-2.5,2.9-6.4,5.2-9.4,7.6c-0.8,0.6-1.6,1.3-2.4,1.9
				c-0.7,0.5-0.6,0.4-0.2,0.2c-1.5,0.7-3.3,1-4.9,1.4c-4.1,1.2-8.2,2.4-12.3,3.5c0.6,0.3,1.2,0.7,1.8,1c-1.3-8.4-2.6-16.8-3.9-25.3
				c-0.3-1.9-3.2-1.1-2.9,0.8c1.3,8.4,2.6,16.8,3.9,25.3c0.1,0.8,1.1,1.3,1.8,1c3.8-1.1,7.6-2.2,11.4-3.3c2.8-0.8,5.4-1.2,7.7-3
				c3.6-2.7,7.8-5.6,10.9-8.8c2.2-2.2,3.1-5.7,4.3-8.6c1.2-2.8,3.6-6.4,4-9.5c0.2-1.8-0.5-4.1-0.7-5.9c-0.1-1.3,0-3.2-0.8-4.3
				c-3.9-5.3-12.5,1.5-16.4,3.3c-8.5,4-17,8-25.5,12.1C193.6,141.2,195.1,143.8,196.8,143z"/>
		</g>
	</g>
	<g>
		<polygon class="st3" points="199,169 217.4,162 200,160.8 		"/>
		<g>
			<path class="st3" d="M199.4,170.4c6.1-2.3,12.2-4.7,18.3-7c1.6-0.6,1.3-2.8-0.4-2.9c-5.8-0.4-11.6-0.8-17.4-1.2
				c-0.9-0.1-1.4,0.7-1.5,1.5c-0.3,2.7-0.6,5.5-1,8.2c-0.2,1.9,2.8,1.9,3,0c0.3-2.7,0.6-5.5,1-8.2c-0.5,0.5-1,1-1.5,1.5
				c5.8,0.4,11.6,0.8,17.4,1.2c-0.1-1-0.3-2-0.4-2.9c-6.1,2.3-12.2,4.7-18.3,7C196.9,168.2,197.6,171.1,199.4,170.4z"/>
		</g>
	</g>
	<g>
		<polygon class="st2" points="148.9,223 150.3,253 154.3,260.7 165.9,260.7 181,254.5 191.9,243.8 183.4,244.5 170.6,249.2 
			161.1,251.8 154.3,243.9 152.4,233.9 157.4,219.4 		"/>
		<g>
			<path class="st2" d="M147.4,223c0.4,7.4,0.7,14.7,1.1,22.1c0.1,2.5-0.2,5.5,0.4,7.9c0.6,2.9,2.8,5.8,4.2,8.5
				c0.2,0.5,0.8,0.7,1.3,0.7c3.7,0,7.9,0.6,11.5,0c3.6-0.6,7.4-2.9,10.7-4.3c2.8-1.2,5-1.9,7.1-3.9c3.1-3,6.2-6.1,9.4-9.1
				c0.9-0.9,0.3-2.7-1.1-2.6c-2.8,0.2-5.8,0.1-8.6,0.7c-2.8,0.6-5.5,1.9-8.1,2.9c-2.2,0.8-4.4,1.6-6.7,2.3c-1.8,0.5-3.6,1-5.4,1.5
				c-0.7,0.2-1.4,0.3-2,0.5c-0.7,0.2,1.2,1.1,0.5,0c-1.5-2.7-4.9-4.5-6.3-7.2c0.5,1-0.2-2.4-0.4-3c-0.3-1.8-0.8-3.6-1-5.4
				c-0.2-1.5-0.3,0.5,0.2-1.2c0.5-1.8,1.2-3.5,1.8-5.3c0.9-2.7,1.9-5.4,2.8-8.2c0.3-1-0.8-2.3-1.8-1.8c-2.8,1.2-5.7,2.4-8.5,3.6
				c-1.8,0.7-1,3.6,0.8,2.9c2.8-1.2,5.7-2.4,8.5-3.6c-0.6-0.6-1.2-1.2-1.8-1.8c-1.8,5.1-5.5,11.5-4.7,16.9c0.4,2.8,0.6,6.7,2,9.2
				c1.6,2.8,4.6,5.3,6.8,7.8c0.3,0.4,1,0.5,1.5,0.4c4.9-1.3,9.8-2.6,14.5-4.4c2.2-0.8,5.7-2.4,7.5-2.8c2.7-0.6,5.7-0.5,8.4-0.7
				c-0.4-0.9-0.7-1.7-1.1-2.6c-2.6,2.6-5.3,5.1-7.9,7.7c-3,2.9-2.3,2.5-6,4.1c-3.6,1.5-7.4,3.7-11.2,4.6c-2.2,0.6-7.4-0.9-10.3,0.1
				c-1.5,0.5-0.8-1,0.1,0.6c-0.4-0.8-0.8-1.6-1.2-2.4c-0.6-1.1-1.1-2.3-1.8-3.4c-0.1-0.1-1-2.1-0.8-1.3c0.2,0.6,0-1.7,0-2.1
				c-0.1-1.8-0.2-3.7-0.3-5.5c-0.4-7.4-0.7-14.7-1.1-22.1C150.3,221.1,147.3,221.1,147.4,223z"/>
		</g>
	</g>
	<g>
		<polygon class="st2" points="100.1,224.6 82.9,247.2 81,255.2 89.2,262.5 103.6,267.4 117.8,266.5 111.3,261.7 99.5,257.1 
			93.9,252.6 96.2,243 99.8,236.2 109.8,228.6 		"/>
		<g>
			<path class="st2" d="M98.8,223.9c-4.2,5.5-8.5,11.1-12.7,16.6c-1.4,1.8-3.5,3.9-4.5,6c-1.2,2.4-1.4,5.8-2.1,8.4
				c-0.1,0.5,0,1.1,0.4,1.5c2.6,2.3,5.2,5.3,8.1,7.2c2.8,1.8,6.7,2.5,9.8,3.5c2.9,1,5,1.9,8,1.7c4-0.3,8-0.5,12-0.8
				c1.6-0.1,1.9-1.9,0.8-2.8c-3.7-2.8-6.7-4.9-11-6.6c-2.4-0.9-5.1-1.7-7.4-2.9c0.9,0.5-1.5-1.2-2-1.6c-0.6-0.4-3.5-3-2.9-1.8
				c0.5,1,0.7-1.7,0.9-2.7c0.4-1.5,0.7-3,1.1-4.6c0.6-2.2,1.8-4,2.9-6.3c0.4-0.9,1-1.7,0.7-1.4c0.9-1,2.4-1.8,3.5-2.7
				c2.1-1.6,4.1-3.2,6.2-4.7c1.1-0.8,0.9-2.2-0.4-2.7c-3.2-1.3-6.4-2.6-9.6-3.9c-1.8-0.7-2.6,2.2-0.8,2.9c3.2,1.3,6.4,2.6,9.6,3.9
				c-0.1-0.9-0.2-1.8-0.4-2.7c-3.7,2.9-8.9,5.5-11.3,9.6c-3,5-4,9.7-5.3,15.3c-0.1,0.5,0,1.1,0.4,1.5c4.1,3.3,6.9,5.1,11.8,7
				c5.2,2,7.9,3.8,12.4,7.1c0.3-0.9,0.5-1.9,0.8-2.8c-6.5,0.4-12.2,1.5-17.8-0.4c-3.3-1.1-7.2-1.9-10.3-3.5c1.1,0.6,0.2,0-0.1-0.2
				c-0.8-0.6-1.6-1.4-2.3-2.1c-1.1-1-3.1-3.5-4.5-4c-1.3-0.4-0.1-0.3-0.2,0.5c0.1-0.8,0.4-1.6,0.5-2.3c0.4-1.6,0.5-3.7,1.2-5.2
				c0.5-1.1,3-3.9,4.2-5.4c4.3-5.7,8.6-11.3,12.9-17C102.6,223.8,100,222.3,98.8,223.9z"/>
		</g>
	</g>
	<g>
		<polygon class="st4" points="78.8,218.6 90.6,224.7 120.2,228.1 144.7,225.8 162.4,219.4 171.3,213.4 184,199.3 193.1,184.3 
			199,155.8 192.7,141.3 178,128.8 172.6,125.2 182.3,114.9 185.2,105.8 189.1,93.9 189.8,86.3 185,69.7 175.5,57.5 169.4,53.2 
			158.7,53.6 141,62 129.5,69.5 121.1,78 113.3,88.9 111.4,93.9 109.5,104.3 109.5,111.5 127.7,120.9 141,124.2 163,125.8 
			164.4,126.4 153.9,138.5 142.8,159.9 131.4,185.4 117.8,201.4 103,212.3 91.5,217.4 		"/>
		<g>
			<path class="st4" d="M78,219.9c5.1,2.6,9.9,6,15.7,6.7c8.5,1,17,2.4,25.5,2.9c6.9,0.4,14.2-1.1,21-1.8c6.7-0.6,12.5-3.3,18.9-5.6
				c5-1.8,10.1-4.7,13.9-8.4c4.6-4.5,9.8-9.8,13.2-15.3c3.3-5.3,7.7-10.6,8.9-16.8c1-4.7,1.9-9.4,2.9-14.1c0.7-3.5,2.2-7.4,2.3-11
				c0.1-2.8-1.9-5.8-3.1-8.3c-1.3-2.9-2.2-6.3-4.4-8.6c-5.6-6-12.8-11.2-19.7-15.7c0.1,0.8,0.2,1.6,0.3,2.4
				c3.5-3.7,8.9-7.6,10.6-12.5c2.1-6.2,4.8-12.7,6.2-19.1c1.4-6.1,0.3-10.3-1.3-16.1c-0.9-3-1.3-6.7-2.7-9.4c-1.3-2.5-3.7-4.8-5.4-7
				c-2.9-3.8-6.8-9.5-11.8-10.5c-2.7-0.5-7.5-0.1-10.2,0.4c-2.1,0.4-4.1,1.7-6,2.6c-12.1,5.7-22.9,11.5-32.1,21.4
				c-4,4.4-8,9.8-10.1,15.3c-2.4,6.4-2.7,13.3-2.8,20.1c0,0.5,0.3,1.1,0.7,1.3c5,2.6,9.9,5.1,14.9,7.7c4.1,2.1,8.2,3,12.7,4.1
				c4,1,7.7,1.3,11.9,1.6c4.9,0.4,11.3-0.2,15.8,1.6c-0.2-0.8-0.4-1.7-0.7-2.5c-5.3,6.1-10.2,11.4-13.9,18.5
				c-4,7.7-7.9,15.3-11.4,23.2c-2.3,5.3-4.7,10.5-7,15.8c-1.2,2.7-3.4,4.9-5.8,7.7c-2.5,2.9-6.1,7.7-8.3,9.8
				c-3.8,3.5-8.6,6.3-12.8,9.4c-3.6,2.6-8.1,4.3-12.2,6c-1.7,0.7,0.3,0.1-1.1,0.3c-1.4,0.2-2.8,0.3-4.2,0.4
				c-2.6,0.2-5.2,0.5-7.8,0.7c-1.9,0.2-1.9,3.2,0,3c4.1-0.4,8.7-0.3,12.8-1.2c3.9-0.9,8.6-3.3,12.1-5.3c6.8-3.9,13.6-9.2,18.6-15.2
				c3.3-3.8,7.3-7.6,10.1-11.8c2-3,3.2-6.8,4.6-10c3.7-8.3,7.4-16.4,11.5-24.4c2-3.9,4.6-9.9,6.6-12.8c3-4.2,6.9-8,10.3-11.9
				c0.8-0.9,0.4-2.1-0.7-2.5c-2.8-1.1-6-0.9-9-1.1c-4.6-0.3-9.4-0.5-14-1c-5.9-0.7-13-2.9-18.6-5.8c-2.4-1.3-4.9-2.5-7.3-3.8
				c-1.4-0.8-3.6-2.4-5.2-2.7c-1.1-0.2,0.1,1.3,0.3,0.4c0.2-1.2,0-2.7,0-4c0-1.9,0.1-2.8,0.4-4.7c0.7-4,1.2-7.9,2.9-11.7
				c1.4-3.1,4.4-6.6,6.6-9.7c4.2-5.9,10.1-10.5,16.4-14.6c6.6-4.4,13.9-7,20.9-10.8c1.7-0.9,0.2-0.5,2.4-0.5c2.4,0,4.9-0.2,7.3-0.3
				c1.1,0,1.4,0.1,1-0.1c0.8,0.3,1.7,1.2,2.4,1.7c1.3,0.9,2.8,1.9,3.5,2.7c3.1,3.2,5.8,7.2,8.4,10.8c0.5,0.6,0.7,1.1,0.4,0.4
				c0.2,0.5,0.4,1.2,0.5,1.7c0.6,2.5,1.4,4.9,2.1,7.3c1.5,5.3,2.2,7.6,1.5,13c-0.5,3.8-2.5,8.5-3.8,12.5c-0.5,1.6-1,3.1-1.5,4.7
				c-0.4,1.3-0.8,2.8-1.3,4.1c-0.5,1.3,0.2,0.1-0.3,0.7c-2.7,3.5-6.3,6.6-9.3,9.9c-0.7,0.7-0.5,1.8,0.3,2.4
				c6,3.9,11.1,8.5,16.8,13.3c2.7,2.3,2.9,2.5,4.3,5.7c1.6,3.5,3.5,7.1,4.8,10.8c-0.3-0.8,0.1-0.9-0.3,0.6c-0.5,1.7-0.7,3.6-1.1,5.4
				c-0.9,4.5-1.9,9.1-2.8,13.6c-0.5,2.4-0.9,6.2-1.6,8c-0.9,2.4-3.7,6-5.2,8.6c-6,9.9-15.1,21.3-25.4,25.9
				c-5.4,2.4-13.2,5.7-18.2,6.2c-7.4,0.8-15.1,2.2-22.6,2.1c-7.7,0-15.7-1.8-23.3-2.6c-1.7-0.2-3.4-0.4-5.2-0.6
				c-1.9-0.2,0.1,0.4-1.6-0.5c-3.5-1.9-7.2-3.7-10.7-5.5C77.8,216.5,76.3,219,78,219.9z"/>
		</g>
	</g>
	<g>
		<g>
			<path d="M110.6,71.3c0.2-1.2-0.1-4.1,0.6-5.1c0.4-0.6,2.2-1.2,2.8-1.6c5.7-3.7,10.7-7.4,17.1-9.8c12.6-4.7,26.8-7.1,38.8,0.5
				c24.8,15.5,23.5,51.7,1.6,68.9c-0.8,0.6-0.4,1.9,0.3,2.4c12.8,8.2,27.2,18.4,26.7,35.4c-0.3,8.8-4,17.2-8.2,24.7
				c-3.9,6.9-8.2,13.7-13.4,19.5c-20.7,23.1-58.6,24.5-86.8,16.7c-17.8-4.9-32.2-16.6-37.9-34.6c-0.5,0.6-1,1.3-1.4,1.9
				c5.4-0.6,10.9-0.8,16.3-0.5c1.7,0.1,2.1-2.7,0.4-2.9c-4-0.7-7.7-2-11.3-4.1c-0.3,0.9-0.5,1.9-0.8,2.8c2.7-0.2,5,0.2,7.4,1.1
				c1.4,0.5,2.5-1.5,1.5-2.5c-3.7-3.4-6.5-7.2-8.5-11.9c-0.3,0.6-0.7,1.2-1,1.8c6.1-1.1,11.9,0,17.2,3c0.9,0.5,1.9,0,2.2-0.9
				c6.6-20.4,21.1-40.1,43.2-44.6c1.3-0.3,1.4-2.1,0.4-2.7c-17.4-10.5-17.2-41.4-7.4-56.8c1-1.6-1.6-3.1-2.6-1.5
				c-6.5,10.3-7.7,24-6.1,35.8c1.4,10.1,5.5,19.7,14.5,25.1c0.1-0.9,0.2-1.8,0.4-2.7c-23.1,4.6-38.4,25.3-45.3,46.6
				c0.7-0.3,1.5-0.6,2.2-0.9c-6.1-3.4-12.6-4.5-19.5-3.3c-0.7,0.1-1.3,1.1-1,1.8c2.2,5.1,5.1,9.5,9.3,13.2c0.5-0.8,1-1.7,1.5-2.5
				c-2.8-1-5.3-1.4-8.2-1.2c-1.4,0.1-2.1,2-0.8,2.8c3.8,2.2,7.7,3.6,12,4.4c0.1-1,0.3-2,0.4-2.9c-5.5-0.3-10.9-0.2-16.3,0.5
				c-0.9,0.1-1.8,0.9-1.4,1.9c11,34.8,50,42.8,82.3,40.2c16.6-1.4,33.1-6.6,45.1-18.6c6.1-6.1,11-13.5,15.3-21
				c4.4-7.5,8.2-15.7,9.2-24.4c2.5-19.8-13-31.8-27.9-41.4c0.1,0.8,0.2,1.6,0.3,2.4c23.8-18.8,24-58.6-3.5-74.4
				c-13.5-7.7-29.6-4.5-43.2,1.4c-5.9,2.6-11.6,6.3-16.8,10.1c-2.6,1.9-2.1,5-2.5,8C107.4,73.2,110.4,73.2,110.6,71.3L110.6,71.3z"
				/>
		</g>
	</g>
	<g>
		<g>
			<path d="M67.9,215.1c20.7,10.9,45.2-6.4,57.5-22.2c8-10.3,13.7-22.1,19.4-33.8c3-6.2,6-12.3,9.4-18.3c3.9-6.9,9.7-15.9,19-12.8
				c1.8,0.6,2.6-2.3,0.8-2.9c-11.4-3.9-18.6,7.2-23.3,15.7c-6.5,11.7-11.7,24.1-18.3,35.8c-6.4,11.4-14.4,22-25.2,29.5
				c-10.4,7.2-25.9,12.7-37.9,6.3C67.7,211.6,66.2,214.2,67.9,215.1L67.9,215.1z"/>
		</g>
	</g>
	<g>
		<g>
			<path d="M190.5,81c8.7-5.3,17.3-10.9,25.7-16.7c2-1.4,4.3-2.8,5.1-5.2c0.5-1.6,1.2-4.7,1-6.3c-0.1-0.5-0.2-1.1-0.7-1.3
				c-14.8-6.4-27.7,3.3-40.2,10.2c-1.7,0.9-0.2,3.5,1.5,2.6c5.8-3.2,11.6-6.9,17.7-9.7c3.7-1.7,7.5-2.5,11.6-2.2
				c-0.5,0,6.9,0.8,7.1,1.1c0.2,0.3-0.6,1.4-0.6,1.8c0.6,5.6-8.4,9.4-12.4,12c-5.7,3.8-11.5,7.5-17.4,11.1
				C187.4,79.4,188.9,82,190.5,81L190.5,81z"/>
		</g>
	</g>
	<g>
		<g>
			<path d="M189.5,83c5.8-1,11.9-1.1,17.3-3.7c-0.7-0.6-1.5-1.1-2.2-1.7c-1.2,3.7-2.6,8-5.8,10.5c-2.5,1.9-6.2,3-9.3,2.9
				c-1.9,0-1.9,3,0,3c4,0.1,8.4-1.3,11.5-3.8c3.5-2.9,5.1-7.6,6.5-11.7c0.4-1.3-1.1-2.2-2.2-1.7c-5.1,2.4-11.1,2.5-16.6,3.4
				C186.8,80.5,187.6,83.4,189.5,83L189.5,83z"/>
		</g>
	</g>
	<g>
		<g>
			<g>
				<path d="M154.3,84.2c0.9-1.9,1.9-3.7,3.3-5.3c0.4-0.4,5.2-5.2,5.2-2.6c0,1.9,3,1.9,3,0c-0.1-3.4-3.8-4.5-6.4-3
					c-3.5,2-6.1,5.9-7.7,9.4C151,84.4,153.5,86,154.3,84.2L154.3,84.2z"/>
			</g>
		</g>
		<g>
			<g>
				<path d="M148.9,84.6c1.1,0.2,2.2,0.4,3.4,0.6c0.8,0.1,1.6-0.2,1.8-1c0.2-0.7-0.2-1.7-1-1.8c-1.1-0.2-2.2-0.4-3.4-0.6
					c-0.8-0.1-1.6,0.2-1.8,1C147.7,83.5,148.1,84.5,148.9,84.6L148.9,84.6z"/>
			</g>
		</g>
	</g>
	<g>
		<g>
			<path d="M167.5,50.7c-16.5,0.3-30.3,8.9-41.7,20.2c-5.8,5.8-11.9,11.7-15.6,19.1c-3.2,6.3-4.3,13-4.9,20c-0.2,1.9,2.8,1.9,3,0
				c0.6-7.1,1.8-13.6,5.2-19.9c3.6-6.5,9.2-11.9,14.4-17.1c10.8-10.7,23.9-19,39.6-19.3C169.5,53.6,169.5,50.6,167.5,50.7
				L167.5,50.7z"/>
		</g>
	</g>
	<g>
		<g>
			<path d="M175.1,125.2c-11.7-0.1-23.6-0.3-35.2-2.6c-5.8-1.1-11.5-2.7-16.8-5.1c-5.5-2.5-10.3-5.9-15.6-8.8
				c-1.7-0.9-3.2,1.7-1.5,2.6c5.7,3.2,11.1,6.9,17.1,9.5c5.1,2.2,10.5,3.7,16,4.8c11.8,2.3,24,2.5,36,2.7
				C177.1,128.2,177.1,125.2,175.1,125.2L175.1,125.2z"/>
		</g>
	</g>
	<g>
		<g>
			<path d="M69.5,196.4c10.4,6,23.9,8.7,35.5,4.7c5.3-1.8,10.4-5.4,14.8-8.7c4.6-3.4,8.6-7.4,11-12.7c0.8-1.7-1.8-3.3-2.6-1.5
				c-2.3,5-6.1,8.8-10.6,12c-4.1,3-8.7,6.3-13.5,8c-10.9,3.7-23.5,1.2-33.2-4.4C69.3,192.8,67.8,195.4,69.5,196.4L69.5,196.4z"/>
		</g>
	</g>
	<g>
		<g>
			<path d="M96.8,230.7c1.9,0,1.9-3,0-3C94.9,227.7,94.9,230.7,96.8,230.7L96.8,230.7z"/>
		</g>
	</g>
	<g>
		<g>
			<path d="M145,226.7c0.3,8.7,0.3,17.8,1.4,26.5c0.3,2,0.5,4.9,2,6.5c1.8,2.1,5.7,2.5,8.2,3c13.9,2.6,30.9-7.7,39-18.4
				c0.8-1-0.3-2.1-1.3-2.3c-9.1-1.2-16.9,4.4-25.6,5.7c-2.6,0.4-4.8,1.5-7.4,0.2c-2.8-1.4-3.5-4.5-4.2-7.3c-1.4-6-1.6-12,2.7-16.9
				c1.3-1.4-0.8-3.6-2.1-2.1c-4,4.5-5.1,9.7-4.3,15.6c0.6,4.4,1.4,9.8,5.3,12.6c4.2,3.1,9.8,1.6,14.4,0.2c7-2.1,13.7-6,21.2-5
				c-0.4-0.8-0.9-1.5-1.3-2.3c-7.3,9.6-22.4,18.5-34.9,17c-3.2-0.4-6.8-1-8.2-4.2c-1-2.4-0.7-5.6-0.8-8.1
				c-0.3-6.9-0.8-13.9-1.1-20.8C147.9,224.8,144.9,224.7,145,226.7L145,226.7z"/>
		</g>
	</g>
	<g>
		<g>
			<path d="M96.6,245c1.9,0,1.9-3,0-3C94.7,242,94.7,245,96.6,245L96.6,245z"/>
		</g>
	</g>
	<g>
		<g>
			<path d="M96.3,227.6c-2.8,3.6-5.6,7.2-8.4,10.8c-2.3,3-5.4,6-7.2,9.3c-2.4,4.2-1.3,8.6,2.1,12c8.8,8.9,23.8,10.8,35.4,8.2
				c1.2-0.3,1.4-1.7,0.7-2.5c-2.4-2.7-5.2-4.5-8.6-5.9c-4.6-1.9-12.5-2.8-13.3-8.7c-1.1-8.2,8.4-16.8,14.8-20.4
				c1.7-0.9,0.2-3.5-1.5-2.6c-7.2,4.1-16,12.4-16.4,21.3c-0.6,12.4,16.5,11,22.9,18.4c0.2-0.8,0.4-1.7,0.7-2.5
				c-10,2.2-20.9,0.6-29.6-5.1c-2.1-1.4-5.1-3.6-5.4-6.3c-0.4-4,2.9-7.1,5.2-9.9c3.6-4.6,7.2-9.3,10.9-13.9
				C99.6,228.2,97.5,226.1,96.3,227.6L96.3,227.6z"/>
		</g>
	</g>
	<g>
		<g>
			<path d="M199.4,170.4c17-2.5,37.2-16.2,39.2-34.4c0.4-3.3,0.6-9.8-2.1-12.4c-2.5-2.4-6,0.1-8.3,1.4c-11.2,6.2-23,11.4-34.9,16
				c0.4,0.9,0.8,1.8,1.2,2.7c12.5-5.8,25-11.6,37.4-17.4c1.7-0.8,0.2-3.4-1.5-2.6c-12.5,5.8-25,11.6-37.4,17.4
				c-1.5,0.7-0.4,3.4,1.2,2.7c8.2-3.2,16.3-6.6,24.2-10.4c3.9-1.9,8.1-5.1,12.2-6.3c1.5-1.3,3.1-1.1,4.8,0.7
				c0.4,1.4,0.6,2.8,0.6,4.2c0.1,2.2-0.1,4.4-0.7,6.6c-3.6,15.3-21.6,26.5-36.5,28.8C196.7,167.8,197.5,170.7,199.4,170.4
				L199.4,170.4z"/>
		</g>
	</g>
	<g>
		<polyline class="st5" points="78.8,105.8 90.6,92.8 118.6,57.5 133.6,50.3 158.7,44.3 176.8,46.7 183.2,47.7 176.8,38.6 
			166.7,34.2 145.2,34.5 133.2,37.2 101.8,25.7 73.7,20.5 63.1,22.7 59.4,32.5 59.2,43.7 59.2,61.4 60,66.3 71.7,46.4 78.8,34.7 
			83.7,50.8 88.4,71.4 89.1,83.5 78.8,105.8 78.8,105.8 		"/>
		<g>
			<path class="st5" d="M79.8,106.9c12.2-13.3,23.3-27.4,34.5-41.6c1.5-1.9,3.7-5.4,5.2-6.6c2.8-2.3,8.8-4.1,12.5-5.9
				c6.7-3.2,16.9-4.5,25-6.5c3.4-0.8,7.5,0.3,11.7,0.8c5.1,0.7,9.2,1.2,14.1,2.1c1.2,0.2,2.5-1,1.7-2.2c-1.9-2.7-3.7-5.5-5.7-8.2
				c-1.5-2-3.5-2.5-5.9-3.5c-2.1-0.9-4.4-2.2-6.6-2.6c-3.2-0.4-6.7,0.1-9.9,0.1c-6,0.1-11.3,0.1-17.2,1.4c-1.8,0.4-3.6,0.9-5.4,1.2
				c-1.7,0.3,0.3,0.4-1,0c-2.8-0.8-5.5-2-8.3-3c-7.1-2.6-14.1-5.4-21.2-7.8c-4.7-1.6-9.9-2-14.8-2.9c-5-0.9-11.1-3.1-16.2-2.5
				c-2.5,0.3-7.4,0.7-9.6,2c-2,1.2-2.5,4.8-3.3,6.9c-2.1,5.6-1.8,11.2-1.8,17.2c0,7.2-0.3,14.3,0.9,21.5c0.2,1.3,2.1,1.4,2.7,0.4
				c6.2-10.6,12.4-21.2,18.7-31.7c-0.9-0.1-1.8-0.2-2.7-0.4C81,47,85.1,59.2,86.9,71.5c0.3,1.8,0.3,6.4,0.5,9.1c0,0.8,0,3.4,0.3,2.3
				c-0.3,1.1-1,2.1-1.4,3.1c-2.9,6.3-5.8,12.7-8.7,19c-0.8,1.7,1.8,3.3,2.6,1.5c3-6.5,6-13.1,9-19.6c2.2-4.8,1.5-10.5,0.8-15.8
				c-1.7-12.5-6-24.9-9.7-36.9c-0.4-1.2-2.1-1.5-2.7-0.4C71.1,44.4,64.9,55,58.7,65.6c0.9,0.1,1.8,0.2,2.7,0.4
				c-1-5.9-0.8-11.8-0.8-18.1c0-4.8-0.7-10.9,0.2-15.2c0.6-2.6,3.2-6,3.4-8.9c0.1-1.2-0.3,0.3-0.5,0.3c0.5,0,1.1-0.3,1.6-0.3
				c1.9-0.2,3.8-0.8,5.7-1.2c0.6-0.1,3.7-0.6,2.3-0.6c0.7,0,1.5,0.3,2.2,0.4c3.6,0.7,7.2,1.3,10.8,2c5,0.9,10.3,1.5,15.3,2.8
				c6,1.7,11.9,4.4,17.8,6.5c3.3,1.2,6.6,2.4,9.9,3.7c1.4,0.5,2.8,1.3,4.3,1.3c5.1-0.1,9.9-2.6,14.4-2.6c4.4-0.1,8.7-0.1,13.1-0.2
				c1.6,0,3.1-0.1,4.7-0.1c1.3,0-0.3-0.4,1.5,0.4c1.9,0.9,3.9,1.7,5.8,2.5c0.8,0.3,1.8,0.6,2.5,1.1c0.6,0.4-0.6-0.7,0.2,0.2
				c2.3,2.5,4.1,5.8,6,8.6c0.6-0.7,1.1-1.5,1.7-2.2c-3.7-0.6-7.4-1.2-11.2-1.7c-4.4-0.6-9.5-2-13.9-1.7c-4,0.2-8.4,2-12.3,2.9
				c-4.3,1-8.9,1.7-13,3.1c-4.2,1.5-8.3,3.9-12.4,5.9c-2.7,1.3-3.5,1.9-5.3,4.2c-7.1,9-14.3,18-21.4,27
				c-5.2,6.6-10.8,12.6-16.5,18.8C76.4,106.2,78.5,108.3,79.8,106.9L79.8,106.9z"/>
		</g>
	</g>
	<g>
		<g>
			<path class="st6" d="M115.1,31.2c1.9,0,1.9-3,0-3C113.1,28.2,113.1,31.2,115.1,31.2L115.1,31.2z"/>
		</g>
	</g>
	<g>
		<g>
			<path class="st6" d="M115.3,31.2c1.9,0,1.9-3,0-3C113.4,28.2,113.4,31.2,115.3,31.2L115.3,31.2z"/>
		</g>
	</g>
	<g>
		<g>
			<path class="st6" d="M114.6,31.4c1.9,0,1.9-3,0-3C112.6,28.4,112.6,31.4,114.6,31.4L114.6,31.4z"/>
		</g>
	</g>
	<g>
		<g>
			<path class="st6" d="M116.6,30.7c1.9,0,1.9-3,0-3C114.6,27.7,114.6,30.7,116.6,30.7L116.6,30.7z"/>
		</g>
	</g>
	<g>
		<path class="st6" d="M116.3,32c-1.4,0.1-2.7-0.3-3.9-0.9"/>
		<g>
			<path class="st6" d="M116.3,30.5c-1.1,0-2.2-0.2-3.2-0.7c-1.7-0.9-3.2,1.7-1.5,2.6c1.5,0.7,3,1.1,4.7,1.1
				C118.3,33.4,118.3,30.4,116.3,30.5L116.3,30.5z"/>
		</g>
	</g>
	<g>
		<g>
			<path class="st6" d="M100.9,44c-1.3,1.7-2.8,3.2-4.7,4.2c-1,0.6-2.2,1-3.3,1.5c-1.2,0.6-2.2,1.3-3.2,2.1c4.7-1.7,10-2.1,14.9-1
				c-3.3-0.5-6.3-2.3-9.2-4.1c-1.4-0.9-2.9-1.8-4.3-2.7c2.4,3.1,4.2,6.6,5.3,10.4c0.8-3.7,2-7.2,3.5-10.7"/>
			<g>
				<path class="st6" d="M99.8,42.9c-1.6,2-3.3,3.5-5.6,4.6c-2,0.9-3.8,1.8-5.6,3.2c-1.2,0.9,0.1,3,1.5,2.5c4.6-1.6,9.3-2,14.1-1
					c1.9,0.4,2.7-2.5,0.8-2.9c-4.9-1-9-4.1-13.1-6.7c-1.2-0.7-3,0.8-2.1,2.1c2.3,3.1,4,6.4,5.2,10c0.4,1.3,2.5,1.5,2.9,0
					c0.8-3.5,1.9-7,3.3-10.3c0.7-1.8-1.8-3.3-2.6-1.5c-1.5,3.6-2.7,7.2-3.6,11c1,0,1.9,0,2.9,0c-1.2-3.9-3-7.5-5.5-10.7
					c-0.7,0.7-1.4,1.4-2.1,2.1c4.4,2.7,8.7,5.9,13.9,7c0.3-1,0.5-1.9,0.8-2.9c-5.3-1-10.6-0.7-15.7,1c0.5,0.8,1,1.7,1.5,2.5
					c2-1.6,4.4-2.3,6.6-3.6c1.8-1.1,3.3-2.6,4.6-4.2C103.1,43.5,101,41.4,99.8,42.9L99.8,42.9z"/>
			</g>
		</g>
		<g>
			<path class="st6" d="M156.6,34.7c-3.4,2.5-7.2,4.6-11.1,6.1c4.4-0.3,8.8-0.2,13.1,0.4c-4.2-1.1-8.2-3.3-11.3-6.4
				c1.3,1.7,2.1,3.7,3,5.7c0.9,2,1.7,3.9,2.6,5.9c0.9-1,0.8-2.5,0.8-3.8c0-2.8,0.6-5.7,1.6-8.3"/>
			<g>
				<path class="st6" d="M155.8,33.4c-3.4,2.4-6.9,4.4-10.8,6c-1.4,0.6-1.4,3.1,0.4,2.9c4.4-0.3,8.7-0.2,13.1,0.4
					c1.7,0.2,2-2.5,0.4-2.9c-4-1.1-7.6-3.1-10.6-6c-1.2-1.1-3.4,0.4-2.4,1.8c2.4,3.5,3.9,7.7,5.6,11.6c0.5,1.1,2.1,0.9,2.6,0
					c1-1.6,1-3.2,1.1-5.1c0.1-2.6,0.6-5,1.5-7.4c0.6-1.8-2.3-2.6-2.9-0.8c-0.6,1.9-1.1,3.7-1.4,5.7c-0.2,1.9,0.2,4.5-0.9,6.1
					c0.9,0,1.7,0,2.6,0c-1.7-3.9-3.2-8.1-5.6-11.6c-0.8,0.6-1.6,1.2-2.4,1.8c3.4,3.2,7.4,5.5,11.9,6.8c0.1-1,0.3-2,0.4-2.9
					c-4.4-0.5-8.7-0.7-13.1-0.4c0.1,1,0.3,2,0.4,2.9c4.1-1.6,7.9-3.7,11.5-6.3C158.9,34.8,157.4,32.2,155.8,33.4L155.8,33.4z"/>
			</g>
		</g>
		<g>
			<path class="st6" d="M99.5,68.9c-2.2,2.7-5,4.8-8.1,6.2c4.4-0.7,8.9-0.7,13.3-0.1c-4.8-1-9.3-3.1-13.2-6.1
				c2.1,1.3,3.4,3.7,4.6,5.9c0.6,1.2,1.3,2.4,1.9,3.5c0.2,0.3,0.4,0.7,0.8,0.6c0.4-0.1,0.3-0.6,0.3-1c-0.6-3-0.3-6.1,1-8.9"/>
			<g>
				<path class="st6" d="M98.5,67.8c-2.2,2.6-4.8,4.5-7.8,5.9c-1.7,0.8-0.4,3,1.2,2.7c4.3-0.6,8.6-0.6,12.9,0c1.7,0.2,2-2.6,0.4-2.9
					c-4.7-1.1-9-3-12.9-5.9c-0.5,0.9-1,1.7-1.5,2.6c2.2,1.5,3.3,3.9,4.5,6.2c0.8,1.5,1.3,3.4,3.1,3.9c0.7,0.2,1.3-0.2,1.7-0.7
					c0.9-1.2,0.3-2.6,0.2-4c-0.1-2.2,0.4-4.2,1.2-6.3c0.7-1.8-2.2-2.6-2.9-0.8c-0.6,1.5-1.1,3.1-1.2,4.8c-0.1,0.9-0.1,1.8,0,2.7
					c0,0.4,0.4,1.8,0.2,2c0.6-0.2,1.1-0.5,1.7-0.7c0.1,0-1-2-1.3-2.5c-0.6-1-1.1-2.1-1.7-3.1c-1.1-1.7-2.3-3.1-3.9-4.2
					c-1.6-1.1-3,1.5-1.5,2.6c4.1,3,8.6,5.1,13.6,6.2c0.1-1,0.3-2,0.4-2.9c-4.6-0.6-9.1-0.5-13.7,0.1c0.4,0.9,0.8,1.8,1.2,2.7
					c3.3-1.5,6.1-3.6,8.4-6.4C101.8,68.5,99.7,66.4,98.5,67.8L98.5,67.8z"/>
			</g>
		</g>
		<g>
			<path class="st6" d="M123.3,45.6c-1.4,1.7-3.3,3-5.3,3.9c-1.2,0.5-2.6,1-3.4,2c3.7-0.4,7.5-0.2,11.2,0.4
				c-3.8-0.8-6.7-3.6-9.5-6.3c1.4,3.2,2.9,6.4,4.3,9.6c1.2-3.7,2.5-7.4,4-11"/>
			<g>
				<path class="st6" d="M122.2,44.6c-1.3,1.5-2.8,2.7-4.6,3.5c-1.5,0.7-2.9,1.2-4,2.4c-0.8,0.9-0.3,2.7,1.1,2.6
					c3.6-0.3,7.2-0.2,10.8,0.4c1.9,0.3,2.7-2.4,0.8-2.9c-3.6-0.9-6.2-3.4-8.9-5.9c-1.3-1.2-3,0.3-2.4,1.8c1.4,3.2,2.9,6.4,4.3,9.6
					c0.6,1.3,2.4,0.8,2.7-0.4c1.2-3.7,2.5-7.4,4-11c0.7-1.8-2.2-2.6-2.9-0.8c-1.4,3.6-2.7,7.3-4,11c0.9-0.1,1.8-0.2,2.7-0.4
					c-1.4-3.2-2.9-6.4-4.3-9.6c-0.8,0.6-1.6,1.2-2.4,1.8c3,2.9,6.1,5.6,10.2,6.7c0.3-1,0.5-1.9,0.8-2.9c-3.9-0.6-7.7-0.8-11.6-0.5
					c0.4,0.9,0.7,1.7,1.1,2.6c1.2-1.3,3.1-1.7,4.7-2.7c1.5-0.9,2.8-2,3.9-3.3C125.6,45.3,123.5,43.1,122.2,44.6L122.2,44.6z"/>
			</g>
		</g>
		<g>
			<path class="st6" d="M68.6,44.8c-1.4,2-2.9,3.8-4.7,5.4c-1.1,1-2.2,2-3.3,2.9c2.9-1.2,6.1-1.9,9.2-2c-2.9-1.9-5.9-3.8-8.8-5.7
				c1.3,3.5,2.6,7.1,3.9,10.6c1.6-3.2,0.5-7.4,2.6-10.4"/>
			<g>
				<path class="st6" d="M67.3,44c-2.2,3.1-4.9,5.6-7.8,8c-1.1,0.9,0.1,3.1,1.5,2.5c2.8-1.1,5.8-1.8,8.8-2c1.5-0.1,2-2,0.8-2.8
					c-2.9-1.9-5.9-3.8-8.8-5.7c-1-0.7-2.7,0.5-2.2,1.7c1.3,3.5,2.6,7.1,3.9,10.6c0.4,1.1,2.2,1.7,2.7,0.4c1.4-3.3,0.7-7.3,2.6-10.4
					c1-1.6-1.6-3.2-2.6-1.5c-2,3.2-1.1,7-2.6,10.4c0.9,0.1,1.8,0.2,2.7,0.4C65,52,63.7,48.5,62.4,45c-0.7,0.6-1.5,1.1-2.2,1.7
					c2.9,1.9,5.9,3.8,8.8,5.7c0.3-0.9,0.5-1.9,0.8-2.8c-3.3,0.2-6.5,0.9-9.6,2.1c0.5,0.8,1,1.7,1.5,2.5c3.1-2.6,5.9-5.4,8.2-8.7
					C71,43.9,68.4,42.4,67.3,44L67.3,44z"/>
			</g>
		</g>
		<g>
			<path class="st6" d="M74.5,24.1c-1.8,2.9-4.5,5.2-7.7,6.4c-0.7,0.3-1.5,0.7-1.6,1.4c1.1-1,2.7-1.4,4.1-1.7
				c2.9-0.6,5.9-0.9,8.9-0.9c-1.5,0.1-2.8-0.5-4.2-1.2c-2.4-1.2-4.7-2.3-7.1-3.5c2.4,3.2,4.3,6.7,5.6,10.5
				c-0.2-3.7-0.5-7.6,0.9-11.1"/>
			<g>
				<path class="st6" d="M73.2,23.4c-1.5,2.2-3.4,4-5.7,5.2c-1.6,0.9-3,1.2-3.8,3c-0.5,1.2,1.2,2.5,2.2,1.7
					c3.2-2.4,8.4-2.3,12.2-2.4c1.9-0.1,1.9-3,0-3c-3.4-0.1-7.5-3-10.5-4.5c-1.2-0.6-3,0.7-2.1,2.1c2.3,3.1,4.1,6.5,5.5,10.1
					c0.5,1.5,3.1,1.4,2.9-0.4c-0.2-3.6-0.4-7.2,0.8-10.7c0.6-1.8-2.3-2.6-2.9-0.8c-1.3,3.7-1.2,7.6-1,11.5c1-0.1,2-0.3,2.9-0.4
					c-1.4-3.9-3.3-7.5-5.8-10.8c-0.7,0.7-1.4,1.4-2.1,2.1c3.6,1.8,7.9,4.8,12,4.9c0-1,0-2,0-3c-4.3,0.1-10.2,0-13.7,2.8
					c0.7,0.6,1.5,1.1,2.2,1.7c0.2-0.5,1.9-0.9,2.4-1.2c1-0.5,1.9-1.1,2.8-1.8c1.6-1.3,2.9-2.8,4-4.5C76.8,23.3,74.2,21.8,73.2,23.4
					L73.2,23.4z"/>
			</g>
		</g>
		<g>
			<path class="st6" d="M99.3,25.9c-2.7,2.7-5.9,5-9.4,6.6c3-0.1,6.1-0.5,9-1.3"/>
			<g>
				<path class="st6" d="M98.2,24.8c-2.7,2.6-5.7,4.7-9.1,6.4c-1.3,0.6-0.7,2.9,0.8,2.8c3.2-0.1,6.3-0.6,9.4-1.3
					c1.9-0.5,1.1-3.3-0.8-2.9c-2.8,0.7-5.7,1.1-8.6,1.2c0.3,0.9,0.5,1.9,0.8,2.8c3.6-1.7,6.9-4,9.7-6.8
					C101.7,25.6,99.6,23.5,98.2,24.8L98.2,24.8z"/>
			</g>
		</g>
		<g>
			<path class="st6" d="M100,30.7c-3.4-1.7-6.5-3.8-9.4-6.2c1.6,4,3.2,8.1,5.4,11.8c-0.3-3.9,0.5-7.8,2.1-11.3"/>
			<g>
				<path class="st6" d="M100.8,29.4c-3.2-1.7-6.3-3.7-9.1-6c-1-0.8-3.1-0.1-2.5,1.5c1.6,4.2,3.3,8.3,5.6,12.2
					c0.7,1.2,2.9,0.8,2.8-0.8c-0.2-3.6,0.4-7.2,1.9-10.5c0.8-1.7-1.8-3.3-2.6-1.5c-1.7,3.8-2.5,7.8-2.3,12c0.9-0.3,1.9-0.5,2.8-0.8
					c-2.1-3.7-3.7-7.5-5.3-11.5c-0.8,0.5-1.7,1-2.5,1.5c3,2.5,6.2,4.6,9.7,6.4C101,32.9,102.5,30.3,100.8,29.4L100.8,29.4z"/>
			</g>
		</g>
		<g>
			<path class="st6" d="M178,39.4c-2.5,0.4-5.1,0.4-7.6,0.1c2.1,0.2,4.1,0.9,5.9,2c0.2,0.1,0.5,0.4,0.4,0.6c0,0.1-0.1,0.2-0.2,0.2
				c-1.5,1.2-3,2.4-4.6,3.6"/>
			<g>
				<path class="st6" d="M178,37.9c-2.5,0.3-5.1,0.4-7.6,0.1c-1.9-0.2-1.9,2.8,0,3c0.9,0.1,1.8,0.3,2.7,0.6c0.3,0.1,2.1,0.7,2.2,0.9
					c0.1-0.5,0.3-1,0.4-1.5c-1.3,1.5-3.2,2.6-4.8,3.9c-1.5,1.2,0.6,3.3,2.1,2.1c1.3-1,2.6-2.1,3.9-3.1c1-0.8,1.8-1.7,1.1-3
					c-0.6-1-2.1-1.5-3.1-1.9c-1.4-0.6-2.9-0.9-4.4-1.1c0,1,0,2,0,3c2.6,0.3,5.1,0.3,7.6-0.1C179.9,40.7,179.9,37.7,178,37.9
					L178,37.9z"/>
			</g>
		</g>
		<g>
			<path class="st6" d="M117.1,32.9c-0.3-0.4-1-0.1-1.4,0.2c-1.4,1.1-2.8,2.4-3.9,3.7c1.3-1.3,2.7-2.5,4-3.8c0.6-0.5,1.4-1.1,2-0.6
				c0.2,0.2,0.3,0.4,0.4,0.7c0.6,1.6,1.1,3.3,1.4,5.1c-1.4-1.4-2.2-3.3-2.3-5.3c0-0.2,0-0.5,0.2-0.7c0.3-0.3,0.7-0.2,1.1-0.1
				c1,0.3,2,0.6,2.9,0.9"/>
			<g>
				<path class="st6" d="M117.8,31.6c-2.5-1.7-5.7,2.5-7.1,4.1c-1.3,1.4,0.7,3.4,2.1,2.1c0.7-0.6,1.3-1.3,2-1.9
					c0.4-0.4,1.2-1.5,1.8-1.6c0.1-0.3,0.3-0.3,0.4-0.1c0.2,0.5,0.3,0.9,0.5,1.4c0.3,1,0.5,1.9,0.7,2.9c0.8-0.5,1.7-1,2.5-1.5
					c-1-1-1.3-2.1-1.8-3.5c0-0.3-0.1-0.5-0.1-0.8c-0.9,0.5-0.8,0.8,0.1,0.9c0.5,0.4,1.6,0.5,2.2,0.7c1.9,0.6,2.6-2.3,0.8-2.9
					c-1.8-0.6-5.5-2.3-6.1,0.8c-0.5,2.4,1.1,5.2,2.7,6.9c1.1,1.2,2.8-0.1,2.5-1.5c-0.4-2-0.9-6.7-3.6-7c-1.2-0.1-2.2,0.7-3,1.4
					c-1.3,1.1-2.5,2.4-3.8,3.5c0.7,0.7,1.4,1.4,2.1,2.1c0.3-0.4,3.5-3.7,3.5-3.7C117.9,35.3,119.4,32.7,117.8,31.6L117.8,31.6z"/>
			</g>
		</g>
		<g>
			<path class="st6" d="M87.6,91.9c1.6-0.5,3-1.6,3.9-3c-0.7,0.6-1.4,1.3-2.2,1.9c-0.2,0.2-0.5,0.4-0.7,0.4
				c-0.8-0.1-0.7-1.5-1.4-1.7c0.6,1.5,1.3,3,2.2,4.4"/>
			<g>
				<path class="st6" d="M88,93.3c2-0.7,3.6-1.9,4.8-3.7c1-1.5-1.1-2.9-2.4-1.8c-0.4,0.4-0.8,0.7-1.2,1.1c-0.3,0.2-0.7,0.8-1,0.8
					c0.3,0,0.5,0,0.8,0c0.9,0.2,0.3,0.5,0.3,0.1c0-0.2-0.2-0.6-0.3-0.7c-0.2-0.4-0.6-0.8-1-1c-1-0.5-2.7,0.3-2.2,1.7
					c0.7,1.7,1.4,3.3,2.3,4.8c1,1.7,3.6,0.2,2.6-1.5c-0.8-1.3-1.5-2.7-2-4.1c-0.7,0.6-1.5,1.1-2.2,1.7c0,0-0.1-0.3,0,0.1
					c0.1,0.2,0.2,0.5,0.3,0.7c0.4,0.6,0.9,1,1.6,1.1c1.6,0.2,3.1-1.7,4.2-2.7c-0.8-0.6-1.6-1.2-2.4-1.8c-0.7,1.1-1.8,1.9-3,2.3
					C85.4,91,86.2,93.9,88,93.3L88,93.3z"/>
			</g>
		</g>
	</g>
	<g>
		<g>
			<path d="M77.9,111.4c13.5-16.8,28.5-32.4,42.3-49c7.4-8.9,16.3-12,27.5-13.4c11.7-1.5,23.5-1.3,35.1,0.3c1.1,0.1,2.2-0.6,1.8-1.8
				c-4.7-15.4-23.3-16.7-36.8-14.8c-3.7,0.5-7.2,1.5-10.8,2.5c-6.1,1.5-11.1-1.9-16.6-4.2c-7.7-3.3-15.7-6.1-23.8-8.1
				c-7.9-2-16.3-3.6-24.5-3.8c-5.9-0.1-11.2,1.7-13.2,7.7c-2.4,7.2-1.1,16.1-1.1,23.5c0,5.4-2.1,14.5,2.5,18.6
				c0.7,0.6,1.8,0.6,2.4-0.3c6.1-10.1,12.3-20.2,18.4-30.4c-0.9-0.1-1.8-0.2-2.7-0.4c1.5,6,3,12,4.5,18.1c1.5,6.1,3.9,12.7,4.2,19
				c0.2,5.9-2.1,11.3-4.3,16.6c-2.4,6.1-4.9,12.3-7.4,18.4c-0.7,1.8,2.2,2.6,2.9,0.8c2.6-6.5,5.2-12.9,7.7-19.4
				c2.1-5.3,4.3-10.7,4-16.5c-0.3-5.7-2.2-11.5-3.6-17c-1.7-7-3.5-13.9-5.2-20.9c-0.3-1.3-2.1-1.4-2.7-0.4
				C72.3,46.7,66.2,56.9,60,67c0.8-0.1,1.6-0.2,2.4-0.3c-2.7-2.4-1.7-7.6-1.7-10.9c0-3.4,0-6.8,0.1-10.3c0-5.7-1.5-15.1,1.9-20.1
				c4.3-6.2,17.1-3,23.3-2c6.9,1.2,13.7,3,20.4,5.2c6.9,2.3,13.4,5.2,20,8.1c5.5,2.4,9,1.7,14.6,0.2c12.9-3.4,35.8-5,40.7,11.2
				c0.6-0.6,1.2-1.2,1.8-1.8c-11.6-1.6-23.3-1.9-35-0.5c-9.5,1.1-19.2,2.9-26.4,9.8c-8,7.6-14.5,17.2-21.9,25.4
				c-8.3,9.3-16.8,18.5-24.6,28.2C74.6,110.7,76.7,112.9,77.9,111.4L77.9,111.4z"/>
		</g>
	</g>
</g>
</svg>
