<?xml version="1.0" encoding="utf-8"?>
<!-- Generator: Adobe Illustrator 19.1.0, SVG Export Plug-In . SVG Version: 6.00 Build 0)  -->
<svg version="1.1" xmlns="http://www.w3.org/2000/svg" xmlns:xlink="http://www.w3.org/1999/xlink" x="0px" y="0px"
	 viewBox="0 0 288 288" style="enable-background:new 0 0 288 288;" xml:space="preserve">
<style type="text/css">
	.st0{display:none;}
	.st1{display:inline;}
	.st2{fill:#CB2027;}
	.st3{fill:#1D0D0B;}
	.st4{fill:#FFFFFF;}
	.st5{fill:#0C122E;}
	.st6{fill:#FFF4C2;}
</style>
<g id="puffin_colors">
</g>
<g id="base_puffin">
</g>
<g id="wings_and_wands">
</g>
<g id="hat_colors">
</g>
<g id="hat">
	<g>
		<polygon class="st2" points="184.3,63.7 204.1,54 208.9,53 220.2,55.6 217.4,62.4 207.6,68.9 191.3,79.5 		"/>
		<g>
			<path class="st2" d="M185.1,65c6.2-3,12.3-6.6,18.6-9.2c1.2-0.5,1.1-0.4,2.3-0.7c0.9-0.2,2.1-0.6,3.1-0.6c-0.7,0-0.3,0.1,0.2,0.1
				c3.5,0.5,7,1.6,10.4,2.4c-0.3-0.6-0.7-1.2-1-1.8c-0.7,1.7-1.5,3.3-2.1,5c-0.1,0.4-0.4,1.3-0.7,1.6c1-1.5,0-0.3-0.6,0.1
				c-3,1.6-5.7,3.9-8.5,5.8c-5.4,3.6-10.8,7.1-16.2,10.6c0.7,0.2,1.4,0.4,2.1,0.5c-2.3-5.3-4.7-10.5-7-15.8
				c-0.8-1.8-3.4-0.2-2.6,1.5c2.3,5.3,4.7,10.5,7,15.8c0.3,0.7,1.4,0.9,2.1,0.5c5.5-3.6,11-7.1,16.5-10.8c3-2,7-3.8,9.5-6.4
				c1.9-1.9,2.6-5.3,3.6-7.7c0.3-0.7-0.3-1.7-1-1.8c-6.1-1.4-11.5-3.6-17.6-1.3c-6.7,2.6-13,6.4-19.4,9.6
				C181.8,63.3,183.4,65.9,185.1,65z"/>
		</g>
	</g>
	<g>
		<polygon class="st2" points="190.7,84.5 204.7,80.5 197.7,89.7 191.3,92.2 190.7,84.5 		"/>
		<g>
			<path class="st2" d="M191.1,86c4.7-1.3,9.3-2.7,14-4c-0.6-0.7-1.1-1.5-1.7-2.2c-2.1,2.7-4.1,5.4-6.2,8.1
				c-0.3,0.3-1.3,1.3-0.4,0.7c1-0.7-0.9,0.2-1.3,0.3c-1.5,0.6-3.1,1.2-4.6,1.8c0.6,0.5,1.3,1,1.9,1.4c-0.2-2.5-0.5-5.1-0.7-7.6
				c-0.2-1.9-3.2-1.9-3,0c0.2,2.5,0.5,5.1,0.7,7.6c0.1,0.9,0.9,1.8,1.9,1.4c2.5-1,5.9-1.6,7.6-3.7c2.3-2.8,4.4-5.8,6.6-8.6
				c0.8-1.1-0.5-2.5-1.7-2.2c-4.7,1.3-9.3,2.7-14,4C188.4,83.6,189.2,86.5,191.1,86z"/>
		</g>
	</g>
	<g>
		<polyline class="st2" points="191.3,79.5 215.6,63.7 216.7,58.3 191.3,79.5 		"/>
		<g>
			<path class="st2" d="M192.1,80.8c5.7-3.7,11.3-7.4,17-11.1c2.2-1.4,5.3-2.8,7.2-4.7c1.5-1.6,1.5-4.2,1.8-6.4
				c0.3-1.5-1.3-2.4-2.5-1.5c-8.4,7.1-16.9,14.1-25.3,21.2c-1.5,1.2,0.7,3.4,2.1,2.1c8.4-7.1,16.9-14.1,25.3-21.2
				c-0.8-0.5-1.7-1-2.5-1.5c-0.3,1.6-0.6,3.1-0.9,4.7c-0.2,0.8,1.1-0.5-0.3,0.3c-2.7,1.7-5.3,3.5-8,5.2c-5.1,3.4-10.3,6.7-15.4,10.1
				C189,79.3,190.5,81.9,192.1,80.8L192.1,80.8z"/>
		</g>
	</g>
	<g>
		<polyline class="st3" points="72.8,176.5 81.3,157.9 94.7,142 117,130.9 107.5,121 103.2,106.6 104.3,79.9 121.2,58.6 145.2,49 
			156.1,49.6 165,54 158.7,54.4 138.8,62.5 121.2,74.8 110.7,93.6 106.8,109 121.2,117.2 138.8,126.4 160.8,127.2 152.3,142.1 
			124.3,192.7 108.7,207.8 94.1,215.3 		"/>
		<g>
			<path class="st3" d="M74.1,177.3c2.5-5.6,5.2-11.1,7.7-16.8c1.7-3.9,6.2-8.2,9.5-12.1c1.1-1.3,3.6-4.7,4.3-5.2c1.7-1.3,4.1-2,6-3
				c5.4-2.7,10.9-5.4,16.3-8c0.9-0.4,0.9-1.7,0.3-2.4c-3-3.1-6.8-6.2-9.3-9.7c-0.4-0.5,0.4,0.8-0.1-0.3c-0.5-1-0.7-2.3-1-3.3
				c-0.8-2.8-1.7-5.5-2.5-8.3c-0.8-2.6-0.4-5.4-0.3-8.9c0.2-5.5,0.5-11,0.7-16.5c0.1-1.2,0.7-3.8-0.2-2c0.7-1.3,2-2.5,2.9-3.7
				c3.6-4.6,7.3-9.2,10.9-13.8c0.9-1.2,1.8-2.6,2.9-3.6c0.4-0.4-1,0.6-0.1,0.1c0.7-0.4,1.5-0.6,2.2-0.9c5.3-2.1,10.6-4.2,15.9-6.3
				c5-2,6.3-2,11.9-1.7c1.2,0.1,2.5,0,3.6,0.2c0.8,0.2-0.1-0.1-0.2-0.1c0.5,0.1,1.1,0.5,1.5,0.7c2.4,1.3,4.9,2.4,7.4,3.6
				c0.3-0.9,0.5-1.9,0.8-2.8c-2.3,0.1-4.8,0-7,0.6c-3.1,0.8-6.2,2.5-9.2,3.7c-4.9,2-9.6,3.6-14,6.6c-3.3,2.3-6.6,4.6-9.8,6.9
				c-1.6,1.1-3.8,2.2-5.1,3.8c-1.7,2-2.8,5-4,7.3c-1.9,3.4-3.8,6.7-5.6,10.1c-2.7,5.1-3.4,11.5-4.8,17.1c-0.2,0.6,0.1,1.4,0.7,1.7
				c9.2,5.3,18.4,10.3,27.8,15.2c4,2.1,5.9,2.4,10.4,2.6c5.5,0.2,11.1,0.4,16.6,0.6c-0.4-0.8-0.9-1.5-1.3-2.3
				c-7.1,12.3-14,24.7-20.8,37.2c-4.6,8.3-9.2,16.6-13.7,24.9c-2.8,5.2-7.2,8.5-12,13.1c-2.6,2.5-4.5,4.7-7.2,6
				c-4.2,2.1-8.3,4.3-12.5,6.4c-1.7,0.9-0.2,3.5,1.5,2.6c5.9-3,12.5-5.3,17.2-10c4.6-4.4,10.7-8.8,14.1-14.2
				c9.4-15.1,17.3-31.4,26-47c3.2-5.9,6.6-11.7,10-17.5c0.6-1-0.2-2.2-1.3-2.3c-5.2-0.2-10.5-0.4-15.7-0.6c-2-0.1-4.3,0.2-6.2-0.2
				c1.3,0.3-0.4-0.3-0.9-0.6c-1.2-0.7-2.5-1.3-3.8-2c-9-4.7-17.8-9.6-26.6-14.6c0.2,0.6,0.5,1.1,0.7,1.7c1.2-4.7,2.3-11.5,3.8-15.2
				c2.4-5.9,6.5-11.3,9.5-17c0.2-0.4,1.4-2.2,0.4-1.1c0.6-0.6,1.6-1.1,2.3-1.6c3.2-2.2,6.4-4.5,9.6-6.7c4.7-3.3,7.2-4.6,12.6-6.8
				c3.7-1.5,7.4-3.1,11.1-4.5c2.2-0.8,4.6-0.8,7.4-0.9c1.4-0.1,2.2-2.1,0.8-2.8c-3.5-1.7-7-4.2-10.9-4.6c-3.7-0.4-8.1-1.2-11.6,0.1
				c-5.5,2-10.8,4.3-16.2,6.5c-2.6,1-5.6,1.7-7.6,3.7c-4,4.1-7.2,9.2-10.8,13.6c-1.9,2.4-5.1,5.2-5.9,8.1
				c-1.2,4.3-0.4,10.1-0.6,14.6c-0.2,3.9-1,8.4-0.5,12.3c0.3,2.4,1.5,4.9,2.2,7.2c0.7,2.2,1.1,5.2,2.2,7.2c2.2,4,6.8,7.3,9.9,10.6
				c0.1-0.8,0.2-1.6,0.3-2.4c-5.7,2.8-11.4,5.6-17.1,8.4c-1.8,0.9-4,1.6-5.6,2.8c-1.7,1.4-3.1,3.7-4.5,5.4
				c-3.2,3.9-7.4,7.7-9.7,12.2c-2.9,5.6-5.3,11.6-7.9,17.3C70.7,177.5,73.3,179.1,74.1,177.3L74.1,177.3z"/>
		</g>
	</g>
	<g>
		<polyline class="st3" points="72.8,176.5 54.4,173.4 65.4,188.7 50.7,189.5 59.2,205.9 75.3,219.4 94.1,215.3 		"/>
		<g>
			<path class="st3" d="M73.2,175.1c-6.1-1-12.3-2.1-18.4-3.1c-1.1-0.2-2.5,1-1.7,2.2c3.7,5.1,7.3,10.2,11,15.3
				c0.4-0.8,0.9-1.5,1.3-2.3c-4.9,0.3-9.8,0.5-14.7,0.8c-1.2,0.1-1.8,1.2-1.3,2.3c2.6,5.1,5,10.4,7.9,15.3c2.3,3.9,7,6.6,10.4,9.5
				c2.9,2.4,5.6,6.3,9.5,5.6c5.8-1.1,11.5-2.5,17.3-3.8c1.9-0.4,1.1-3.3-0.8-2.9c-5.3,1.2-10.7,2.3-16,3.5c-0.8,0.2-1.8,0.2-2.5,0.5
				c0.6-0.3,1.4,1.1,0.3-0.3c-1.7-2.2-4.7-4-6.8-5.7c-3.4-2.8-7.5-5.5-9.2-8.7c-2.5-4.8-5-9.7-7.5-14.5c-0.4,0.8-0.9,1.5-1.3,2.3
				c4.9-0.3,9.8-0.5,14.7-0.8c1-0.1,2-1.3,1.3-2.3c-3.7-5.1-7.3-10.2-11-15.3c-0.6,0.7-1.1,1.5-1.7,2.2c6.1,1,12.3,2.1,18.4,3.1
				C74.3,178.3,75.1,175.4,73.2,175.1L73.2,175.1z"/>
		</g>
	</g>
	<g>
		<polyline class="st3" points="59.3,172.9 67.4,174.1 63.4,174.9 59.3,172.9 		"/>
		<g>
			<path class="st3" d="M58.9,174.3c2.7,0.4,5.4,0.8,8.1,1.2c0-1,0-1.9,0-2.9c-1.4,0.3-2.7,0.5-4.1,0.8c0.4,0.1,0.8,0.1,1.2,0.2
				c-1.4-0.7-2.7-1.4-4.1-2.1c-1.7-0.9-3.2,1.7-1.5,2.6c1.4,0.7,2.8,1.7,4.2,2.1c1.4,0.4,3.6-0.5,5-0.7c1.4-0.3,1.5-2.7,0-2.9
				c-2.7-0.4-5.4-0.8-8.1-1.2C57.8,171.2,57,174,58.9,174.3L58.9,174.3z"/>
		</g>
	</g>
	<g>
		<polygon class="st3" points="196.1,142.5 233,125 236.1,126.9 237.2,136.2 230,152.5 217.4,162.8 200,167.8 		"/>
		<g>
			<path class="st3" d="M196.8,143.8c6.2-2.9,12.3-5.8,18.5-8.7c4.1-2,8.2-3.9,12.4-5.9c1.4-0.7,2.8-1.3,4.2-2
				c0.8-0.4,2.4-0.6,1.2-0.8c-1.4-0.2,1,1.2,1.5,1.3c0.8,0.3,0.4-1.2,0.2,0.2c-0.3,1.9,0.4,4.9,0.8,6.7c0.1,0.3,0.2,1.9,0.3,1.2
				c0.1-0.6-0.3,0.6-0.4,0.9c-0.9,2-1.8,4-2.7,6c-1.1,2.5-2.7,7.5-4,9c-2.5,2.9-6.4,5.2-9.4,7.6c-0.8,0.6-1.6,1.3-2.4,1.9
				c-0.7,0.5-0.6,0.4-0.2,0.2c-1.5,0.7-3.3,1-4.9,1.4c-4.1,1.2-8.2,2.4-12.3,3.5c0.6,0.3,1.2,0.7,1.8,1c-1.3-8.4-2.6-16.8-3.9-25.3
				c-0.3-1.9-3.2-1.1-2.9,0.8c1.3,8.4,2.6,16.8,3.9,25.3c0.1,0.8,1.1,1.3,1.8,1c3.8-1.1,7.6-2.2,11.4-3.3c2.8-0.8,5.4-1.2,7.7-3
				c3.6-2.7,7.8-5.6,10.9-8.8c2.2-2.2,3.1-5.7,4.3-8.6c1.2-2.8,3.6-6.4,4-9.5c0.2-1.8-0.5-4.1-0.7-5.9c-0.1-1.3,0-3.2-0.8-4.3
				c-3.9-5.3-12.5,1.5-16.4,3.3c-8.5,4-17,8-25.5,12.1C193.6,142,195.1,144.6,196.8,143.8z"/>
		</g>
	</g>
	<g>
		<polygon class="st3" points="199,169.8 217.4,162.8 200,161.6 		"/>
		<g>
			<path class="st3" d="M199.4,171.2c6.1-2.3,12.2-4.7,18.3-7c1.6-0.6,1.3-2.8-0.4-2.9c-5.8-0.4-11.6-0.8-17.4-1.2
				c-0.9-0.1-1.4,0.7-1.5,1.5c-0.3,2.7-0.6,5.5-1,8.2c-0.2,1.9,2.8,1.9,3,0c0.3-2.7,0.6-5.5,1-8.2c-0.5,0.5-1,1-1.5,1.5
				c5.8,0.4,11.6,0.8,17.4,1.2c-0.1-1-0.3-2-0.4-2.9c-6.1,2.3-12.2,4.7-18.3,7C196.9,169,197.6,171.9,199.4,171.2z"/>
		</g>
	</g>
	<g>
		<polygon class="st2" points="140.1,226.8 137.3,256.8 140.2,264.9 151.7,266.5 167.5,262.5 179.8,253.4 171.2,252.9 158,255.8 
			150.3,255.1 146.9,245.3 146.4,237.3 151.1,224.7 		"/>
		<g>
			<path class="st2" d="M138.6,226.8c-0.7,7.2-1.3,14.4-2,21.6c-0.2,2.6-1,5.7-0.8,8.3c0.3,2.9,1.9,5.9,2.9,8.6c0.2,0.5,0.5,1,1,1
				c3.7,0.5,7.7,1.6,11.4,1.6c3.5,0,7.3-1.6,10.7-2.5c3-0.8,5.7-1.2,8.2-3c3.5-2.6,7-5.2,10.5-7.7c1.2-0.9,0.8-2.7-0.8-2.8
				c-5.2-0.3-9.2-0.4-14.2,0.7c-2.5,0.5-5.4,1.6-8,1.7c-1.7,0.1-5.1-0.5-7.3-0.7c0.5,0.4,1,0.7,1.4,1.1c-2-5.7-3.5-9.8-3.8-15.6
				c-0.2-4.1,2.9-9.6,4.5-14c0.4-1.2-0.8-2-1.8-1.8c-3.6,0.7-7.3,1.4-10.9,2.1c-1.9,0.4-1.1,3.3,0.8,2.9c3.6-0.7,7.3-1.4,10.9-2.1
				c-0.6-0.6-1.2-1.2-1.8-1.8c-1.7,4.6-4.9,9.8-4.6,14.8c0.3,6,1.9,10.7,3.9,16.4c0.2,0.7,0.7,1,1.4,1.1c5.4,0.5,9,0.4,14.2-0.7
				c5.8-1.2,9.3-1.3,15.3-1c-0.3-0.9-0.5-1.9-0.8-2.8c-5.3,3.9-10,8.4-15.8,9.9c-3.8,1-7.8,2.4-11.7,3c-0.5,0.1,1.1,0-0.3,0
				c-1-0.1-2-0.3-3-0.4c-1.7-0.2-4.8-1.3-6.5-0.9c-1.2,0.3-1.2-1.2-0.2,0.7c-0.4-0.7-0.6-1.8-0.9-2.6c-0.5-1.5-1.7-4-1.8-5.2
				c-0.2-1.9,0.5-5.5,0.7-7.8c0.7-7.3,1.4-14.7,2-22C141.8,224.9,138.8,224.9,138.6,226.8z"/>
		</g>
	</g>
	<g>
		<polygon class="st2" points="103.4,225.6 91.2,251.2 91,259.5 100.5,264.9 115.5,266.8 129.3,263 121.9,259.6 109.5,257.5 
			103,254.3 103.3,244.4 105.4,237 113.7,227.5 		"/>
		<g>
			<path class="st2" d="M102.1,224.8c-3.1,6.4-6.1,12.8-9.2,19.3c-1,2-2.4,4.2-3.1,6.4c-0.8,2.7-0.3,6.2-0.4,9c0,0.5,0.3,1,0.7,1.3
				c3,1.7,6.2,4.2,9.4,5.4c3.1,1.1,7.1,1,10.3,1.4c3,0.4,5.3,0.8,8.2,0c3.9-1.1,7.7-2.1,11.6-3.2c1.2-0.3,1.6-2.2,0.4-2.7
				c-4.2-1.9-7.6-3.5-12.1-4.3c-2.6-0.4-5.4-0.6-7.9-1.3c-0.3-0.1-1.9-0.9-2.6-1.3c-0.7-0.4-3.9-2.2-3.2-1.2c0.7,1,0.4-2,0.4-2.8
				c0-1.6,0-3.1,0.1-4.7c0.1-2.3,1-4.3,1.6-6.8c0.3-1.1,0.6-1.8,0.4-1.5c0.7-1.2,2-2.3,2.9-3.4c1.7-2,3.4-3.9,5.1-5.9
				c0.7-0.8,0.5-2.3-0.7-2.5c-3.4-0.6-6.8-1.3-10.2-1.9c-1.9-0.3-2.7,2.5-0.8,2.9c3.4,0.6,6.8,1.3,10.2,1.9
				c-0.2-0.8-0.4-1.7-0.7-2.5c-3.1,3.6-7.5,7.2-9.1,11.7c-1.8,5.5-1.9,10.3-2,16.1c0,0.5,0.3,1.1,0.7,1.3c4.7,2.4,7.9,3.6,13,4.4
				c5.3,0.9,8.3,2,13.2,4.3c0.1-0.9,0.2-1.8,0.4-2.7c-6.3,1.7-11.6,3.9-17.5,3.2c-3.4-0.4-7.5-0.3-10.8-1.3c1.2,0.4-2.3-1.5-2.8-1.8
				c-1.4-0.8-3.7-2.8-5.2-3c-1.4-0.2,0-0.2,0,0.5c0-0.8,0-1.6,0.1-2.4c0-1.7-0.2-3.7,0.1-5.4c-0.2,1.4,0.5-0.8,0.7-1.2
				c0.8-1.5,1.5-3,2.2-4.6c3.1-6.4,6.1-12.8,9.2-19.3C105.6,224.6,103,223.1,102.1,224.8z"/>
		</g>
	</g>
	<g>
		<polygon class="st4" points="78.3,219.4 90.2,225.5 119.8,228.9 144.2,226.6 161.9,220.2 172.8,213 183.2,202.2 192,187.3 
			199.3,158.3 192.2,142.1 177.6,129.6 172.1,126 181.8,115.7 188.9,98.3 189.3,87.1 184.5,70.5 175,58.3 168.9,54 168.9,54 165,54 
			152,56.1 141,61.6 132,69.7 120.2,80.5 115.5,87.1 108.7,101.2 108.9,110.8 118.9,115.9 127.8,120.3 144,125 160.4,127.2 
			163.9,127.2 155.5,139.2 144,161.6 131,186.2 117.3,202.2 103,212.8 91,217.4 		"/>
		<g>
			<path class="st4" d="M77.6,220.7c5.1,2.6,9.9,6,15.7,6.7c8.5,1,17,2.4,25.5,2.9c6.9,0.4,14.2-1.1,21-1.8
				c6.7-0.6,12.5-3.3,18.9-5.6c11.3-4.1,22-13.5,28.1-23.8c2.1-3.6,4.8-7.2,6.5-11c0.9-2,1.2-4.3,1.7-6.4c1.2-4.9,2.5-9.8,3.7-14.7
				c0.6-2.5,2.2-5.8,2.1-8.4c-0.1-3.2-2.8-7.2-4.1-10.1c-1.2-2.8-2.1-5.9-4.2-8.1c-5.5-6-12.8-11.3-19.7-15.7
				c0.1,0.8,0.2,1.6,0.3,2.4c3.4-3.6,8.3-7.3,10.4-11.8c1.7-3.5,3-7.3,4.4-10.9c0.8-2,2-4.1,2.4-6.3c1.1-6.6,0.2-12.1-1.6-18.2
				c-0.9-3.1-1.4-6.8-2.8-9.7c-1-2.2-3.1-4.1-4.6-6c-3.2-4-7.1-10.2-12.5-11.6c-2.3-0.6-5.7,0.3-8,0.7c-3.1,0.5-6.7,0.6-9.7,1.7
				c-11.8,4.2-20.3,13.9-29.3,22.1c-4.4,4.1-7.5,8.9-10.1,14.3c-1.4,2.9-3.9,6.4-4.6,9.6c-0.7,3,0.1,6.9,0.2,10
				c0,0.5,0.3,1.1,0.7,1.3c8.9,4.5,17.3,9,26.9,11.8c9.4,2.7,19.1,4.7,28.9,4.7c-0.4-0.8-0.9-1.5-1.3-2.3
				c-4.9,7.1-9.3,13.8-13.2,21.5c-3.8,7.3-7.5,14.5-11.3,21.8c-2.6,4.9-5.1,9.8-7.7,14.6c-1.3,2.3-4.3,5.4-6.6,8.1
				c-2.3,2.7-5.6,7.1-7.7,8.9c-3.8,3.4-8.4,6.2-12.5,9.3c-6.6,4.8-17.1,6.1-25.6,7.5c-1.9,0.3-1.1,3.2,0.8,2.9
				c8.6-1.4,16.8-2.6,24.7-6.7c4.1-2.1,7.9-5.7,11.7-8.5c2.8-2.1,4.7-4.1,7.1-6.8c3.2-3.8,7-7.4,9.8-11.5c2-2.8,3.4-6.2,5-9.3
				c4.1-7.8,8.3-15.6,12.3-23.5c2.5-4.8,4.8-9.9,7.5-14.6c2.5-4.2,5.6-8.1,8.4-12.1c0.7-1-0.2-2.3-1.3-2.3
				c-15.5,0-30.2-4.1-43.6-10.8c-1.1-0.5-2.1-1.1-3.1-1.6c-1.7-0.9-4.8-3.3-6.7-3.4c-1.4-0.1-0.1,0.3-0.1,0.4c0-1-0.1-1.9-0.1-2.9
				c0-1.4,0-2.8-0.1-4.1c0-0.4,0.1-2.7-0.2-1.4c0.9-4,4-8.2,5.7-11.9c1.4-3,3.4-5.8,5.5-8.4c3.9-4.6,10.3-9.5,15.3-14
				c5.4-4.8,11.7-9.4,18.7-10.6c3.9-0.6,8.8-2.3,12.7-1.6c0.7,0.1,2.5,1.4,4,2.5c1.5,1.1,1.9,1.4,2.9,2.5c2.8,3.3,6.2,6.9,8.4,10.7
				c0.5,0.9-0.3-0.8,0,0.2c0.3,0.7,0.4,1.5,0.6,2.2c0.7,2.5,1.5,5.1,2.2,7.6c1.4,5,1.8,7,1.6,12.1c-0.2,4.7-0.9,6.6-2.8,11.2
				c-1,2.6-2.1,5.1-3.1,7.7c-0.4,0.9-0.7,1.9-1.1,2.7c-0.5,1,0.6-0.7-0.3,0.4c-2.8,3.4-6.2,6.5-9.2,9.7c-0.7,0.7-0.5,1.8,0.3,2.4
				c6,3.9,11.1,8.5,16.8,13.3c2.6,2.2,2.8,2.4,4.2,5.4c1.7,3.8,3.2,7.9,5.2,11.7c0.2,0.4,0.5,0.9,0.6,1.3c0.1,0.4,0-1.6-0.2-0.6
				c-0.3,1.3-0.7,2.7-1,4c-1.1,4.3-2.2,8.7-3.3,13c-0.9,3.6-1.6,7.3-2.7,10.8c-0.5,1.5-2.2,4.1-3.5,6.2c-1.6,2.7-3.8,7.1-5.2,8.9
				c-2.3,3-5.4,5.6-8.1,8.4c-3.4,3.5-9.2,7.6-13.4,9.5c-5.4,2.4-13.2,5.7-18.2,6.2c-7.4,0.8-15.1,2.2-22.6,2.1
				c-7.7,0-15.7-1.8-23.3-2.6c-1.7-0.2-3.4-0.4-5.2-0.6c-1.9-0.2,0.1,0.4-1.6-0.5c-3.5-1.9-7.2-3.7-10.7-5.5
				C77.4,217.3,75.8,219.8,77.6,220.7z"/>
		</g>
	</g>
	<g>
		<g>
			<path d="M116.5,63.6c9.3-7,21.1-11.3,32.7-12.4c11.4-1.1,22,3.7,29.4,12.4c15.8,18.6,11.7,46.6-7.1,61.4
				c-0.8,0.6-0.4,1.9,0.3,2.4c12.8,8.2,27.2,18.4,26.7,35.4c-0.3,8.8-4,17.2-8.2,24.7c-3.9,6.9-8.2,13.6-13.4,19.5
				C156,230,118.1,231.4,90,223.6c-17.8-4.9-32.2-16.6-37.9-34.6c-0.5,0.6-1,1.3-1.4,1.9c5.4-0.6,10.9-0.8,16.3-0.5
				c1.7,0.1,2.1-2.7,0.4-2.9c-4-0.7-7.7-2-11.3-4.1c-0.3,0.9-0.5,1.9-0.8,2.8c2.7-0.2,5,0.2,7.4,1.1c1.4,0.5,2.5-1.5,1.5-2.5
				c-3.7-3.4-6.5-7.2-8.5-11.9c-0.3,0.6-0.7,1.2-1,1.8c6.1-1.1,11.9,0,17.2,3c0.9,0.5,1.9,0,2.2-0.9c6.6-20.4,21.1-40.1,43.2-44.6
				c1.3-0.3,1.4-2.1,0.4-2.7c-17.4-10.5-17.2-41.4-7.4-56.8c1-1.6-1.6-3.1-2.6-1.5c-6.5,10.3-7.7,24-6.1,35.8
				c1.4,10.1,5.5,19.7,14.5,25.1c0.1-0.9,0.2-1.8,0.4-2.7c-23.1,4.6-38.4,25.3-45.3,46.6c0.7-0.3,1.5-0.6,2.2-0.9
				c-6.1-3.4-12.6-4.5-19.5-3.3c-0.7,0.1-1.3,1.1-1,1.8c2.2,5.1,5.1,9.5,9.3,13.2c0.5-0.8,1-1.7,1.5-2.5c-2.8-1-5.3-1.4-8.2-1.2
				c-1.4,0.1-2.1,2-0.8,2.8c3.8,2.2,7.7,3.6,12,4.4c0.1-1,0.3-2,0.4-2.9c-5.5-0.3-10.9-0.2-16.3,0.5c-0.9,0.1-1.8,0.9-1.4,1.9
				c11,34.8,50,42.8,82.3,40.2c16.6-1.4,33.1-6.6,45.1-18.6c6.1-6.1,11-13.5,15.3-21c4.4-7.5,8.2-15.7,9.2-24.4
				c2.5-19.8-13-31.8-27.9-41.4c0.1,0.8,0.2,1.6,0.3,2.4c19.6-15.5,23.9-44.7,8-64.4c-7-8.8-17.6-14.7-29-14.6
				c-13.1,0.1-27.3,5.1-37.7,13C113.4,62.1,114.9,64.7,116.5,63.6L116.5,63.6z"/>
		</g>
	</g>
	<g>
		<g>
			<path d="M67.9,215.9c20.7,10.9,45.2-6.4,57.5-22.2c8-10.3,13.7-22.1,19.4-33.8c3-6.2,6-12.3,9.4-18.3c3.9-6.9,9.7-15.9,19-12.8
				c1.8,0.6,2.6-2.3,0.8-2.9c-11.4-3.9-18.6,7.2-23.3,15.7c-6.5,11.7-11.7,24.1-18.3,35.8c-6.4,11.4-14.4,22-25.2,29.5
				c-10.4,7.2-25.9,12.7-37.9,6.3C67.7,212.4,66.2,215,67.9,215.9L67.9,215.9z"/>
		</g>
	</g>
	<g>
		<g>
			<path d="M154.4,47.5c-10.4,0.3-20.1,4-28.7,9.7c-8.5,5.6-17.6,13-22.6,22c-0.9,1.7,1.6,3.2,2.6,1.5c4.8-8.5,13.5-15.6,21.6-20.9
				c8.2-5.4,17.3-9,27.2-9.2C156.3,50.5,156.3,47.5,154.4,47.5L154.4,47.5z"/>
		</g>
	</g>
	<g>
		<g>
			<path d="M183,65c5.4-3,10.6-6.1,16.1-8.9c3.3-1.7,6.6-2.9,10.3-3c3.1-0.1,11.8,0.2,9.5,5.2c-2.3,4.8-9.8,8.1-14.1,10.9
				c-5.2,3.4-10.5,6.8-15.8,10c-1.6,1-0.1,3.6,1.5,2.6c8-4.9,15.9-9.9,23.6-15.2c3.6-2.5,10.9-7.3,8.5-12.8c-2-4.6-13.2-4-17.2-3.2
				c-8.5,1.8-16.4,7.7-23.9,11.9C179.8,63.4,181.3,66,183,65L183,65z"/>
		</g>
	</g>
	<g>
		<g>
			<path d="M191.1,86c5.5-1.1,10.8-3.3,15.8-5.8c-0.7-0.6-1.5-1.1-2.2-1.7c-2.3,7-6.3,13.8-14.7,13.7c-1.9,0-1.9,3,0,3
				c3.8,0.1,7.8-1.5,10.8-3.9c3.7-2.9,5.4-7.7,6.8-12c0.4-1.3-1.1-2.3-2.2-1.7c-4.8,2.4-9.8,4.5-15.1,5.5
				C188.4,83.5,189.2,86.4,191.1,86L191.1,86z"/>
		</g>
	</g>
	<g>
		<g>
			<g>
				<path d="M154.3,85c0.9-1.9,1.9-3.7,3.3-5.3c0.4-0.4,5.2-5.2,5.2-2.6c0,1.9,3,1.9,3,0c-0.1-3.4-3.8-4.5-6.4-3
					c-3.5,2-6.1,5.9-7.7,9.4C151,85.2,153.5,86.8,154.3,85L154.3,85z"/>
			</g>
		</g>
		<g>
			<g>
				<path d="M148.9,85.4c1.1,0.2,2.2,0.4,3.4,0.6c0.8,0.1,1.6-0.2,1.8-1c0.2-0.7-0.2-1.7-1-1.8c-1.1-0.2-2.2-0.4-3.4-0.6
					c-0.8-0.1-1.6,0.2-1.8,1C147.7,84.3,148.1,85.3,148.9,85.4L148.9,85.4z"/>
			</g>
		</g>
	</g>
	<g>
		<g>
			<path d="M168.9,52.5c-7,0-14.6,0.6-21.1,3.3c-7.9,3.3-14.7,8.7-20.8,14.7c-5.9,5.7-12.1,11.7-16.1,18.9c-3.7,6.7-5,13.9-5.6,21.4
				c-0.2,1.9,2.8,1.9,3,0c0.6-7.7,2-14.7,6-21.3c3.8-6.3,9.5-11.8,14.8-16.9c5.5-5.3,11.5-10.3,18.5-13.5c6.6-3,14.1-3.6,21.3-3.6
				C170.9,55.5,170.9,52.5,168.9,52.5L168.9,52.5z"/>
		</g>
	</g>
	<g>
		<g>
			<path d="M106.1,112.1c9.8,5.4,18.7,11.4,29.7,14.2c9.8,2.5,20,2.5,30,2.6c1.9,0,1.9-3,0-3c-9.8-0.1-19.7-0.1-29.2-2.5
				c-10.7-2.7-19.4-8.6-29-13.9C105.9,108.6,104.4,111.2,106.1,112.1L106.1,112.1z"/>
		</g>
	</g>
	<g>
		<g>
			<path d="M69.5,197.2c10.4,6,23.9,8.7,35.5,4.7c5.3-1.8,10.4-5.4,14.8-8.7c4.6-3.4,8.6-7.4,11-12.7c0.8-1.7-1.8-3.3-2.6-1.5
				c-2.3,5-6.1,8.8-10.6,12c-4.1,3-8.7,6.3-13.5,8c-10.9,3.7-23.5,1.2-33.2-4.4C69.3,193.6,67.8,196.2,69.5,197.2L69.5,197.2z"/>
		</g>
	</g>
	<g>
		<g>
			<path d="M138.4,228.9c-1.1,9-4.5,17.7-5,26.7c-0.3,6,0.4,8.3,6.1,10.5c14.3,5.5,31-1.3,41.3-11.7c0.8-0.8,0.4-2.2-0.7-2.5
				c-4.1-1.1-8-0.8-12.2,0c-5.2,1.1-13.9,5.3-16.6-1.7c-2.6-6.8-0.3-17.6,2.6-24c0.8-1.7-1.8-3.3-2.6-1.5
				c-3.5,7.7-5.6,19.1-2.6,27.3c1.3,3.7,4.6,5.3,8.5,5.2c7.7-0.3,14.2-4.6,22.1-2.5c-0.2-0.8-0.4-1.7-0.7-2.5
				c-9.3,9.3-24.9,16.2-37.9,11.1c-3.4-1.3-4.5-1.9-4.5-5.6c0-3,0.4-5.9,1-8.9c1.3-6.7,3.2-13.3,4-20.1
				C141.7,227,138.6,227,138.4,228.9L138.4,228.9z"/>
		</g>
	</g>
	<g>
		<g>
			<path d="M104.3,245.8c1.9,0,1.9-3,0-3C102.4,242.8,102.4,245.8,104.3,245.8L104.3,245.8z"/>
		</g>
	</g>
	<g>
		<g>
			<path d="M100.3,229.4c-3.6,7.4-8.3,14.9-11.1,22.6c-1.3,3.6-1.7,8.1,1.1,11c8.5,8.9,22.5,7.9,33.1,4.1c2.7-0.9,8.7-2,7.6-6
				c-0.9-3.1-5.7-3.8-8.3-4.3c-4.9-1-16.5-0.7-17.5-7.1c-1.1-6.8,5-14.4,9.7-18.5c1.5-1.3-0.7-3.4-2.1-2.1
				c-5.9,5.1-11.9,13.7-10.4,21.9c1.4,7.5,13.1,7.5,18.9,8.6c1.3,0.3,5.8,0.8,5.8,2.3c0,1.7-6.8,3.2-8.5,3.7
				c-6.2,1.7-13.2,2.2-19.4-0.2c-2.7-1.1-5.8-2.9-7.1-5.6c-1.7-3.6,0.1-6.9,1.7-10.3c3-6.2,6.1-12.3,9.1-18.5
				C103.7,229.1,101.1,227.6,100.3,229.4L100.3,229.4z"/>
		</g>
	</g>
	<g>
		<g>
			<path d="M199.4,171.2c17-2.5,37.2-16.2,39.2-34.4c0.4-3.3,0.6-9.8-2.1-12.4c-2.5-2.4-6,0.1-8.3,1.4c-11.1,6.2-22.5,12-34.4,16.7
				c0.4,0.9,0.8,1.8,1.2,2.7c12.3-6,24.6-12,36.9-18c1.7-0.8,0.2-3.4-1.5-2.6c-12.3,6-24.6,12-36.9,18c-1.5,0.7-0.4,3.4,1.2,2.7
				c8.2-3.2,16.1-6.9,23.8-10.9c3.8-2,8-5.3,12-6.5c1.5-1.4,3.1-1.1,4.8,0.7c0.4,1.4,0.6,2.8,0.6,4.2c0.1,2.2-0.1,4.4-0.7,6.6
				c-3.6,15.3-21.6,26.5-36.5,28.8C196.7,168.6,197.5,171.5,199.4,171.2L199.4,171.2z"/>
		</g>
	</g>
	<g>
		<polyline class="st5" points="78.8,106.6 94.1,91 118.9,60 138.8,48 152.7,45.6 176.8,47.5 183.2,48.5 176.8,39.4 166.7,35 
			145.2,35.3 133.2,38 101.8,26.5 73.7,21.3 63.1,23.5 59.2,44.5 59.2,62.2 61.3,68.5 74.4,47 78.8,35.5 83.7,51.6 88.4,72.2 
			89.1,84.3 78.8,106.6 78.8,106.6 		"/>
		<g>
			<path class="st5" d="M79.8,107.7c5.3-5.3,10.9-10.5,15.8-16.2c6.6-7.7,12.6-15.8,19-23.7c1.3-1.6,2.6-3.2,3.8-4.8
				c0.4-0.5,1.6-1.9,1.4-1.8c3.7-3,8.6-5.2,12.7-7.7c3.4-2,5.9-3.9,9.2-4.5c3.6-0.6,8.9-1.9,11.6-1.9c9.9,0.1,20.2,1.3,29.5,2.9
				c1.2,0.2,2.5-1,1.7-2.2c-2.1-2.9-4.1-7.6-7-9.8c-1.8-1.3-4.7-2-6.7-2.9c-1.4-0.6-2.8-1.4-4.3-1.6c-4.8-0.7-10.4,0.1-15.3,0.2
				c-3.6,0-6.6,0.2-10.1,1c-2.5,0.6-5.4,1.6-7.9,1.8c-0.8,0,1.1,0.2,0-0.1c-0.7-0.2-1.5-0.5-2.2-0.8c-5.4-2-10.9-4-16.3-6
				c-7.6-2.8-14.2-4.9-22.2-6.4c-5.8-1.1-11.8-2.8-17.7-3.3c-3.9-0.3-8.2,1.3-12,2.1c-0.5,0.1-1,0.6-1,1c-1.4,7.2-3.5,14.6-4,21.8
				c-0.4,4.8,0,9.8,0,14.7c0,3.4,1.1,6.1,2.2,9.3c0.4,1.2,2,1.5,2.7,0.4c3.7-6.2,7.5-12.3,11.2-18.5c2.8-4.7,4.4-9.8,6.4-14.9
				c-1,0-1.9,0-2.9,0C81,47.8,85.1,60,86.9,72.3c0.3,1.8,0.3,6.4,0.5,9.1c0,0.8,0,3.4,0.3,2.3c-0.3,1.1-1,2.1-1.4,3.1
				c-2.9,6.3-5.8,12.7-8.7,19c-0.8,1.7,1.8,3.3,2.6,1.5c3-6.5,6-13.1,9-19.6c2.2-4.8,1.5-10.5,0.8-15.8c-1.7-12.5-6-24.9-9.7-36.9
				c-0.5-1.5-2.4-1.4-2.9,0c-2.1,5.5-3.6,10.2-6.5,14.8c-3.6,6-7.2,11.9-10.9,17.9c0.9,0.1,1.8,0.2,2.7,0.4
				c-0.7-2.1-1.9-4.9-2.1-6.5c-0.4-3.3,0-6.9,0-10.2c0-6.1,0.6-9.8,1.8-16.1c0.6-3.1,2-6.9,1.9-10.1c0-0.3,0.1-0.7,0.2-1.1
				c0-0.2-1.3,0.7-0.6,0.7c1.6,0.1,3.7-0.8,5.3-1.1c1.4-0.3,2.9-0.8,4.4-0.9c-0.1,0-0.4-0.1,0.9,0.1c3.3,0.7,6.6,1.2,9.9,1.8
				c5.6,1,11.5,1.6,17,3.1c5.8,1.6,11.4,4.2,17,6.3c3.4,1.3,6.8,2.5,10.2,3.8c1.5,0.5,3.1,1.5,4.7,1.5c4.9,0.1,9.9-2.6,14.3-2.7
				c4.3-0.1,8.7-0.1,13-0.2c1.6,0,3.3-0.1,4.9-0.1c1.7,0-0.1-0.5,1.8,0.4c1.9,0.9,3.9,1.7,5.8,2.5c0.7,0.3,1.6,0.6,2.3,1
				c1,0.6-0.2-0.4,0.3,0.1c2.4,2.3,4.2,6.1,6.2,8.8c0.6-0.7,1.1-1.5,1.7-2.2c-9.1-1.5-18.2-2-27.3-2.8c-3.6-0.3-6.4,0.2-10,0.8
				c-3.5,0.6-7,0.8-10,2.6c-4.9,3-9.9,6-14.8,8.9c-2.3,1.4-3.6,2.2-5.3,4.3c-7,8.7-14,17.5-20.9,26.2c-5.3,6.6-11.6,12.3-17.5,18.3
				C76.4,106.9,78.5,109,79.8,107.7L79.8,107.7z"/>
		</g>
	</g>
	<g>
		<g>
			<path class="st6" d="M115.1,32c1.9,0,1.9-3,0-3C113.1,29,113.1,32,115.1,32L115.1,32z"/>
		</g>
	</g>
	<g>
		<g>
			<path class="st6" d="M115.3,32c1.9,0,1.9-3,0-3C113.4,29,113.4,32,115.3,32L115.3,32z"/>
		</g>
	</g>
	<g>
		<g>
			<path class="st6" d="M114.6,32.2c1.9,0,1.9-3,0-3C112.6,29.2,112.6,32.2,114.6,32.2L114.6,32.2z"/>
		</g>
	</g>
	<g>
		<g>
			<path class="st6" d="M116.6,31.5c1.9,0,1.9-3,0-3C114.6,28.5,114.6,31.5,116.6,31.5L116.6,31.5z"/>
		</g>
	</g>
	<g>
		<path class="st6" d="M116.3,32.8c-1.4,0.1-2.7-0.3-3.9-0.9"/>
		<g>
			<path class="st6" d="M116.3,31.3c-1.1,0-2.2-0.2-3.2-0.7c-1.7-0.9-3.2,1.7-1.5,2.6c1.5,0.7,3,1.1,4.7,1.1
				C118.3,34.2,118.3,31.2,116.3,31.3L116.3,31.3z"/>
		</g>
	</g>
	<g>
		<g>
			<path class="st6" d="M100.9,44.8C99.6,46.4,98,48,96.2,49c-1,0.6-2.2,1-3.3,1.5c-1.2,0.6-2.2,1.3-3.2,2.1c4.7-1.7,10-2.1,14.9-1
				c-3.3-0.5-6.3-2.3-9.2-4.1c-1.4-0.9-2.9-1.8-4.3-2.7c2.4,3.1,4.2,6.6,5.3,10.4c0.8-3.7,2-7.2,3.5-10.7"/>
			<g>
				<path class="st6" d="M99.8,43.7c-1.6,2-3.3,3.5-5.6,4.6c-2,0.9-3.8,1.8-5.6,3.2c-1.2,0.9,0.1,3,1.5,2.5c4.6-1.6,9.3-2,14.1-1
					c1.9,0.4,2.7-2.5,0.8-2.9c-4.9-1-9-4.1-13.1-6.7c-1.2-0.7-3,0.8-2.1,2.1c2.3,3.1,4,6.4,5.2,10c0.4,1.3,2.5,1.5,2.9,0
					c0.8-3.5,1.9-7,3.3-10.3c0.7-1.8-1.8-3.3-2.6-1.5c-1.5,3.6-2.7,7.2-3.6,11c1,0,1.9,0,2.9,0c-1.2-3.9-3-7.5-5.5-10.7
					c-0.7,0.7-1.4,1.4-2.1,2.1c4.4,2.7,8.7,5.9,13.9,7c0.3-1,0.5-1.9,0.8-2.9c-5.3-1-10.6-0.7-15.7,1c0.5,0.8,1,1.7,1.5,2.5
					c2-1.6,4.4-2.3,6.6-3.6c1.8-1.1,3.3-2.6,4.6-4.2C103.1,44.3,101,42.2,99.8,43.7L99.8,43.7z"/>
			</g>
		</g>
		<g>
			<path class="st6" d="M156.6,35.5c-3.4,2.5-7.2,4.6-11.1,6.1c4.4-0.3,8.8-0.2,13.1,0.4c-4.2-1.1-8.2-3.3-11.3-6.4
				c1.3,1.7,2.1,3.7,3,5.7c0.9,2,1.7,3.9,2.6,5.9c0.9-1,0.8-2.5,0.8-3.8c0-2.8,0.6-5.7,1.6-8.3"/>
			<g>
				<path class="st6" d="M155.8,34.2c-3.4,2.4-6.9,4.4-10.8,6c-1.4,0.6-1.4,3.1,0.4,2.9c4.4-0.3,8.7-0.2,13.1,0.4
					c1.7,0.2,2-2.5,0.4-2.9c-4-1.1-7.6-3.1-10.6-6c-1.2-1.1-3.4,0.4-2.4,1.8c2.4,3.5,3.9,7.7,5.6,11.6c0.5,1.1,2.1,0.9,2.6,0
					c1-1.6,1-3.2,1.1-5.1c0.1-2.6,0.6-5,1.5-7.4c0.6-1.8-2.3-2.6-2.9-0.8c-0.6,1.9-1.1,3.7-1.4,5.7c-0.2,1.9,0.2,4.5-0.9,6.1
					c0.9,0,1.7,0,2.6,0c-1.7-3.9-3.2-8.1-5.6-11.6c-0.8,0.6-1.6,1.2-2.4,1.8c3.4,3.2,7.4,5.5,11.9,6.8c0.1-1,0.3-2,0.4-2.9
					c-4.4-0.5-8.7-0.7-13.1-0.4c0.1,1,0.3,2,0.4,2.9c4.1-1.6,7.9-3.7,11.5-6.3C158.9,35.6,157.4,33,155.8,34.2L155.8,34.2z"/>
			</g>
		</g>
		<g>
			<path class="st6" d="M99.5,69.7c-2.2,2.7-5,4.8-8.1,6.2c4.4-0.7,8.9-0.7,13.3-0.1c-4.8-1-9.3-3.1-13.2-6.1
				c2.1,1.3,3.4,3.7,4.6,5.9c0.6,1.2,1.3,2.4,1.9,3.5c0.2,0.3,0.4,0.7,0.8,0.6c0.4-0.1,0.3-0.6,0.3-1c-0.6-3-0.3-6.1,1-8.9"/>
			<g>
				<path class="st6" d="M98.5,68.6c-2.2,2.6-4.8,4.5-7.8,5.9c-1.7,0.8-0.4,3,1.2,2.7c4.3-0.6,8.6-0.6,12.9,0c1.7,0.2,2-2.6,0.4-2.9
					c-4.7-1.1-9-3-12.9-5.9c-0.5,0.9-1,1.7-1.5,2.6c2.2,1.5,3.3,3.9,4.5,6.2c0.8,1.5,1.3,3.4,3.1,3.9c0.7,0.2,1.3-0.2,1.7-0.7
					c0.9-1.2,0.3-2.6,0.2-4c-0.1-2.2,0.4-4.2,1.2-6.3c0.7-1.8-2.2-2.6-2.9-0.8c-0.6,1.5-1.1,3.1-1.2,4.8c-0.1,0.9-0.1,1.8,0,2.7
					c0,0.4,0.4,1.8,0.2,2c0.6-0.2,1.1-0.5,1.7-0.7c0.1,0-1-2-1.3-2.5c-0.6-1-1.1-2.1-1.7-3.1c-1.1-1.7-2.3-3.1-3.9-4.2
					c-1.6-1.1-3,1.5-1.5,2.6c4.1,3,8.6,5.1,13.6,6.2c0.1-1,0.3-2,0.4-2.9c-4.6-0.6-9.1-0.5-13.7,0.1c0.4,0.9,0.8,1.8,1.2,2.7
					c3.3-1.5,6.1-3.6,8.4-6.4C101.8,69.3,99.7,67.2,98.5,68.6L98.5,68.6z"/>
			</g>
		</g>
		<g>
			<path class="st6" d="M123.3,46.4c-1.4,1.7-3.3,3-5.3,3.9c-1.2,0.5-2.6,1-3.4,2c3.7-0.4,7.5-0.2,11.2,0.4
				c-3.8-0.8-6.7-3.6-9.5-6.3c1.4,3.2,2.9,6.4,4.3,9.6c1.2-3.7,2.5-7.4,4-11"/>
			<g>
				<path class="st6" d="M122.2,45.4c-1.3,1.5-2.8,2.7-4.6,3.5c-1.5,0.7-2.9,1.2-4,2.4c-0.8,0.9-0.3,2.7,1.1,2.6
					c3.6-0.3,7.2-0.2,10.8,0.4c1.9,0.3,2.7-2.4,0.8-2.9c-3.6-0.9-6.2-3.4-8.9-5.9c-1.3-1.2-3,0.3-2.4,1.8c1.4,3.2,2.9,6.4,4.3,9.6
					c0.6,1.3,2.4,0.8,2.7-0.4c1.2-3.7,2.5-7.4,4-11c0.7-1.8-2.2-2.6-2.9-0.8c-1.4,3.6-2.7,7.3-4,11c0.9-0.1,1.8-0.2,2.7-0.4
					c-1.4-3.2-2.9-6.4-4.3-9.6c-0.8,0.6-1.6,1.2-2.4,1.8c3,2.9,6.1,5.6,10.2,6.7c0.3-1,0.5-1.9,0.8-2.9c-3.9-0.6-7.7-0.8-11.6-0.5
					c0.4,0.9,0.7,1.7,1.1,2.6c1.2-1.3,3.1-1.7,4.7-2.7c1.5-0.9,2.8-2,3.9-3.3C125.6,46.1,123.5,43.9,122.2,45.4L122.2,45.4z"/>
			</g>
		</g>
		<g>
			<path class="st6" d="M68.6,45.6c-1.4,2-2.9,3.8-4.7,5.4c-1.1,1-2.2,2-3.3,2.9c2.9-1.2,6.1-1.9,9.2-2c-2.9-1.9-5.9-3.8-8.8-5.7
				c1.3,3.5,2.6,7.1,3.9,10.6c1.6-3.2,0.5-7.4,2.6-10.4"/>
			<g>
				<path class="st6" d="M67.3,44.8c-2.2,3.1-4.9,5.6-7.8,8c-1.1,0.9,0.1,3.1,1.5,2.5c2.8-1.1,5.8-1.8,8.8-2c1.5-0.1,2-2,0.8-2.8
					c-2.9-1.9-5.9-3.8-8.8-5.7c-1-0.7-2.7,0.5-2.2,1.7c1.3,3.5,2.6,7.1,3.9,10.6c0.4,1.1,2.2,1.7,2.7,0.4c1.4-3.3,0.7-7.3,2.6-10.4
					c1-1.6-1.6-3.2-2.6-1.5c-2,3.2-1.1,7-2.6,10.4c0.9,0.1,1.8,0.2,2.7,0.4c-1.3-3.5-2.6-7.1-3.9-10.6c-0.7,0.6-1.5,1.1-2.2,1.7
					c2.9,1.9,5.9,3.8,8.8,5.7c0.3-0.9,0.5-1.9,0.8-2.8c-3.3,0.2-6.5,0.9-9.6,2.1c0.5,0.8,1,1.7,1.5,2.5c3.1-2.6,5.9-5.4,8.2-8.7
					C71,44.7,68.4,43.2,67.3,44.8L67.3,44.8z"/>
			</g>
		</g>
		<g>
			<path class="st6" d="M74.5,24.9c-1.8,2.9-4.5,5.2-7.7,6.4c-0.7,0.3-1.5,0.7-1.6,1.4c1.1-1,2.7-1.4,4.1-1.7
				c2.9-0.6,5.9-0.9,8.9-0.9c-1.5,0.1-2.8-0.5-4.2-1.2c-2.4-1.2-4.7-2.3-7.1-3.5c2.4,3.2,4.3,6.7,5.6,10.5
				c-0.2-3.7-0.5-7.6,0.9-11.1"/>
			<g>
				<path class="st6" d="M73.2,24.2c-1.5,2.2-3.4,4-5.7,5.2c-1.6,0.9-3,1.2-3.8,3c-0.5,1.2,1.2,2.5,2.2,1.7
					c3.2-2.4,8.4-2.3,12.2-2.4c1.9-0.1,1.9-3,0-3c-3.4-0.1-7.5-3-10.5-4.5c-1.2-0.6-3,0.7-2.1,2.1c2.3,3.1,4.1,6.5,5.5,10.1
					c0.5,1.5,3.1,1.4,2.9-0.4c-0.2-3.6-0.4-7.2,0.8-10.7c0.6-1.8-2.3-2.6-2.9-0.8c-1.3,3.7-1.2,7.6-1,11.5c1-0.1,2-0.3,2.9-0.4
					c-1.4-3.9-3.3-7.5-5.8-10.8c-0.7,0.7-1.4,1.4-2.1,2.1c3.6,1.8,7.9,4.8,12,4.9c0-1,0-2,0-3c-4.3,0.1-10.2,0-13.7,2.8
					c0.7,0.6,1.5,1.1,2.2,1.7c0.2-0.5,1.9-0.9,2.4-1.2c1-0.5,1.9-1.1,2.8-1.8c1.6-1.3,2.9-2.8,4-4.5C76.8,24.1,74.2,22.6,73.2,24.2
					L73.2,24.2z"/>
			</g>
		</g>
		<g>
			<path class="st6" d="M99.3,26.7c-2.7,2.7-5.9,5-9.4,6.6c3-0.1,6.1-0.5,9-1.3"/>
			<g>
				<path class="st6" d="M98.2,25.6c-2.7,2.6-5.7,4.7-9.1,6.4c-1.3,0.6-0.7,2.9,0.8,2.8c3.2-0.1,6.3-0.6,9.4-1.3
					c1.9-0.5,1.1-3.3-0.8-2.9c-2.8,0.7-5.7,1.1-8.6,1.2c0.3,0.9,0.5,1.9,0.8,2.8c3.6-1.7,6.9-4,9.7-6.8
					C101.7,26.4,99.6,24.3,98.2,25.6L98.2,25.6z"/>
			</g>
		</g>
		<g>
			<path class="st6" d="M100,31.5c-3.4-1.7-6.5-3.8-9.4-6.2c1.6,4,3.2,8.1,5.4,11.8c-0.3-3.9,0.5-7.8,2.1-11.3"/>
			<g>
				<path class="st6" d="M100.8,30.2c-3.2-1.7-6.3-3.7-9.1-6c-1-0.8-3.1-0.1-2.5,1.5c1.6,4.2,3.3,8.3,5.6,12.2
					c0.7,1.2,2.9,0.8,2.8-0.8c-0.2-3.6,0.4-7.2,1.9-10.5c0.8-1.7-1.8-3.3-2.6-1.5c-1.7,3.8-2.5,7.8-2.3,12c0.9-0.3,1.9-0.5,2.8-0.8
					c-2.1-3.7-3.7-7.5-5.3-11.5c-0.8,0.5-1.7,1-2.5,1.5c3,2.5,6.2,4.6,9.7,6.4C101,33.7,102.5,31.1,100.8,30.2L100.8,30.2z"/>
			</g>
		</g>
		<g>
			<path class="st6" d="M178,40.2c-2.5,0.4-5.1,0.4-7.6,0.1c2.1,0.2,4.1,0.9,5.9,2c0.2,0.1,0.5,0.4,0.4,0.6c0,0.1-0.1,0.2-0.2,0.2
				c-1.5,1.2-3,2.4-4.6,3.6"/>
			<g>
				<path class="st6" d="M178,38.7c-2.5,0.3-5.1,0.4-7.6,0.1c-1.9-0.2-1.9,2.8,0,3c0.9,0.1,1.8,0.3,2.7,0.6c0.3,0.1,2.1,0.7,2.2,0.9
					c0.1-0.5,0.3-1,0.4-1.5c-1.3,1.5-3.2,2.6-4.8,3.9c-1.5,1.2,0.6,3.3,2.1,2.1c1.3-1,2.6-2.1,3.9-3.1c1-0.8,1.8-1.7,1.1-3
					c-0.6-1-2.1-1.5-3.1-1.9c-1.4-0.6-2.9-0.9-4.4-1.1c0,1,0,2,0,3c2.6,0.3,5.1,0.3,7.6-0.1C179.9,41.5,179.9,38.5,178,38.7
					L178,38.7z"/>
			</g>
		</g>
		<g>
			<path class="st6" d="M117.1,33.7c-0.3-0.4-1-0.1-1.4,0.2c-1.4,1.1-2.8,2.4-3.9,3.7c1.3-1.3,2.7-2.5,4-3.8c0.6-0.5,1.4-1.1,2-0.6
				c0.2,0.2,0.3,0.4,0.4,0.7c0.6,1.6,1.1,3.3,1.4,5.1c-1.4-1.4-2.2-3.3-2.3-5.3c0-0.2,0-0.5,0.2-0.7c0.3-0.3,0.7-0.2,1.1-0.1
				c1,0.3,2,0.6,2.9,0.9"/>
			<g>
				<path class="st6" d="M117.8,32.4c-2.5-1.7-5.7,2.5-7.1,4.1c-1.3,1.4,0.7,3.4,2.1,2.1c0.7-0.6,1.3-1.3,2-1.9
					c0.4-0.4,1.2-1.5,1.8-1.6c0.1-0.3,0.3-0.3,0.4-0.1c0.2,0.5,0.3,0.9,0.5,1.4c0.3,1,0.5,1.9,0.7,2.9c0.8-0.5,1.7-1,2.5-1.5
					c-1-1-1.3-2.1-1.8-3.5c0-0.3-0.1-0.5-0.1-0.8c-0.9,0.5-0.8,0.8,0.1,0.9c0.5,0.4,1.6,0.5,2.2,0.7c1.9,0.6,2.6-2.3,0.8-2.9
					c-1.8-0.6-5.5-2.3-6.1,0.8c-0.5,2.4,1.1,5.2,2.7,6.9c1.1,1.2,2.8-0.1,2.5-1.5c-0.4-2-0.9-6.7-3.6-7c-1.2-0.1-2.2,0.7-3,1.4
					c-1.3,1.1-2.5,2.4-3.8,3.5c0.7,0.7,1.4,1.4,2.1,2.1c0.3-0.4,3.5-3.7,3.5-3.7C117.9,36.1,119.4,33.5,117.8,32.4L117.8,32.4z"/>
			</g>
		</g>
		<g>
			<path class="st6" d="M87.6,92.7c1.6-0.5,3-1.6,3.9-3c-0.7,0.6-1.4,1.3-2.2,1.9c-0.2,0.2-0.5,0.4-0.7,0.4
				c-0.8-0.1-0.7-1.5-1.4-1.7c0.6,1.5,1.3,3,2.2,4.4"/>
			<g>
				<path class="st6" d="M88,94.1c2-0.7,3.6-1.9,4.8-3.7c1-1.5-1.1-2.9-2.4-1.8c-0.4,0.4-0.8,0.7-1.2,1.1c-0.3,0.2-0.7,0.8-1,0.8
					c0.3,0,0.5,0,0.8,0c0.9,0.2,0.3,0.5,0.3,0.1c0-0.2-0.2-0.6-0.3-0.7c-0.2-0.4-0.6-0.8-1-1c-1-0.5-2.7,0.3-2.2,1.7
					c0.7,1.7,1.4,3.3,2.3,4.8c1,1.7,3.6,0.2,2.6-1.5c-0.8-1.3-1.5-2.7-2-4.1c-0.7,0.6-1.5,1.1-2.2,1.7c0,0-0.1-0.3,0,0.1
					c0.1,0.2,0.2,0.5,0.3,0.7c0.4,0.6,0.9,1,1.6,1.1c1.6,0.2,3.1-1.7,4.2-2.7c-0.8-0.6-1.6-1.2-2.4-1.8c-0.7,1.1-1.8,1.9-3,2.3
					C85.4,91.8,86.2,94.7,88,94.1L88,94.1z"/>
			</g>
		</g>
	</g>
	<g>
		<g>
			<path d="M77.9,112.2c6.8-8.5,14.1-16.6,21.4-24.7c7-7.8,13.4-16.7,20.9-24.1c16.5-16.3,41.1-16.3,62.6-13.4
				c1.1,0.1,2.2-0.6,1.8-1.8c-4.7-15.4-23.3-16.7-36.8-14.8c-3.7,0.5-7.2,1.5-10.8,2.5c-6.1,1.5-11.1-1.9-16.6-4.2
				c-7.7-3.3-15.7-6.1-23.8-8.1c-7.9-2-16.3-3.6-24.5-3.8c-5.9-0.1-11.2,1.7-13.2,7.7c-2.4,7.2-1.1,16.1-1.1,23.5
				c0,5.4-2.1,14.5,2.5,18.6c0.7,0.6,1.8,0.6,2.4-0.3c6.1-10.1,12.3-20.2,18.4-30.4c-0.9-0.1-1.8-0.2-2.7-0.4c1.5,6,3,12,4.5,18.1
				c1.5,6.1,3.9,12.7,4.2,19c0.2,5.9-2.1,11.3-4.3,16.6c-2.4,6.1-4.9,12.3-7.4,18.4c-0.7,1.8,2.2,2.6,2.9,0.8
				c2.6-6.5,5.2-12.9,7.7-19.4c2.1-5.3,4.3-10.7,4-16.5c-0.3-5.7-2.2-11.5-3.6-17c-1.7-7-3.5-13.9-5.2-20.9
				c-0.3-1.3-2.1-1.4-2.7-0.4C72.3,47.5,66.2,57.7,60,67.8c0.8-0.1,1.6-0.2,2.4-0.3c-2.7-2.4-1.7-7.6-1.7-10.9c0-3.4,0-6.8,0.1-10.3
				c0-5.7-1.5-15.1,1.9-20.1c4.3-6.2,17.1-3,23.3-2c6.9,1.2,13.7,3,20.4,5.2c6.9,2.3,13.4,5.2,20,8.1c5.5,2.4,9,1.7,14.6,0.2
				c12.9-3.4,35.8-5,40.7,11.2c0.6-0.6,1.2-1.2,1.8-1.8c-11.6-1.6-23.3-1.9-35-0.5c-10.4,1.2-18.6,5.4-26.9,11.6
				c-3.8,2.9-6.6,6.6-9.7,10.2c-3.8,4.5-7.7,9-11.7,13.4C92,91.1,83.6,100.3,75.8,110C74.6,111.5,76.7,113.7,77.9,112.2L77.9,112.2z
				"/>
		</g>
	</g>
</g>
</svg>
