<?xml version="1.0" encoding="utf-8"?>
<!-- Generator: Adobe Illustrator 19.1.0, SVG Export Plug-In . SVG Version: 6.00 Build 0)  -->
<svg version="1.1" xmlns="http://www.w3.org/2000/svg" xmlns:xlink="http://www.w3.org/1999/xlink" x="0px" y="0px"
	 viewBox="0 0 288 288" style="enable-background:new 0 0 288 288;" xml:space="preserve">
<style type="text/css">
	.st0{display:none;}
	.st1{display:inline;}
	.st2{fill:#CB2027;}
	.st3{fill:#1D0D0B;}
	.st4{fill:#FFFFFF;}
	.st5{fill:#0C122E;}
	.st6{fill:#FFF4C2;}
</style>
<g id="puffin_colors">
</g>
<g id="base_puffin">
</g>
<g id="wings_and_wands">
</g>
<g id="hat_colors">
</g>
<g id="hat">
	<g>
		<polygon class="st2" points="184.3,60.9 204.1,51.2 208.9,50.2 220.2,52.8 191.3,76.7 		"/>
		<g>
			<path class="st2" d="M185.1,62.2c6.2-3,12.3-6.6,18.6-9.2c1.2-0.5,1.1-0.4,2.3-0.7c0.9-0.2,2.1-0.6,3.1-0.6
				c-0.7,0-0.3,0.1,0.2,0.1c3.5,0.5,7,1.6,10.4,2.4c-0.2-0.8-0.4-1.7-0.7-2.5c-9.6,8-19.2,16-28.8,24c0.8,0.1,1.6,0.2,2.4,0.3
				c-2.3-5.3-4.7-10.5-7-15.8c-0.8-1.8-3.4-0.2-2.6,1.5c2.3,5.3,4.7,10.5,7,15.8c0.4,1,1.7,0.9,2.4,0.3c9.6-8,19.2-16,28.8-24
				c0.9-0.7,0.4-2.3-0.7-2.5c-6.1-1.4-11.5-3.6-17.6-1.3c-6.7,2.6-13,6.4-19.4,9.6C181.8,60.5,183.4,63.1,185.1,62.2z"/>
		</g>
	</g>
	<g>
		<polygon class="st2" points="192,80.1 204.7,77.7 197.7,88 192,90.8 190.7,80.3 		"/>
		<g>
			<path class="st2" d="M192.4,81.5c4.2-0.8,8.4-1.6,12.6-2.4c-0.6-0.7-1.1-1.5-1.7-2.2c-1.9,2.8-3.9,5.7-5.8,8.5
				c-0.3,0.5-0.7,1.1-1.1,1.6c-0.4,0.4,0.1-0.2,0.3-0.3c-0.2,0.1-0.5,0.3-0.7,0.4c-1.7,0.6-3.3,1.6-4.9,2.4c0.8,0.4,1.5,0.9,2.3,1.3
				c-0.5-3.5-0.9-7.1-1.4-10.6c-0.5,0.5-1,1-1.5,1.5c0.5-0.1,0.9-0.1,1.4-0.2c1.9-0.2,1.9-3.2,0-3c-0.5,0.1-0.9,0.1-1.4,0.2
				c-0.7,0.1-1.6,0.6-1.5,1.5c0.5,3.5,0.9,7.1,1.4,10.6c0.1,1.1,1.2,1.8,2.3,1.3c2.7-1.3,5.4-2.2,7.1-4.7c2-3,4.1-6,6.1-9
				c0.8-1.2-0.5-2.4-1.7-2.2c-4.2,0.8-8.4,1.6-12.6,2.4C189.7,79,190.5,81.9,192.4,81.5z"/>
		</g>
	</g>
	<g>
		<polyline class="st2" points="191.3,76.7 215.6,60.9 216.7,55.5 191.3,76.7 		"/>
		<g>
			<path class="st2" d="M192.1,78c5.7-3.7,11.3-7.4,17-11.1c2.2-1.4,5.3-2.8,7.2-4.7c1.5-1.6,1.5-4.2,1.8-6.4
				c0.3-1.5-1.3-2.4-2.5-1.5c-8.4,7.1-16.9,14.1-25.3,21.2c-1.5,1.2,0.7,3.4,2.1,2.1c8.4-7.1,16.9-14.1,25.3-21.2
				c-0.8-0.5-1.7-1-2.5-1.5c-0.3,1.6-0.6,3.1-0.9,4.7c-0.2,0.8,1.1-0.5-0.3,0.3c-2.7,1.7-5.3,3.5-8,5.2c-5.1,3.4-10.3,6.7-15.4,10.1
				C189,76.5,190.5,79.1,192.1,78L192.1,78z"/>
		</g>
	</g>
	<g>
		<polyline class="st3" points="72.8,173.7 81.3,155.1 94.7,139.2 117,128.1 106.8,116.9 103.2,103.8 105.2,76.9 121.2,55.8 
			145.2,46.2 155.3,46.2 162.8,49.2 153.6,52.3 138.8,59.7 121.2,72 110.7,90.8 106.8,108 121.2,114.4 138.8,123.6 160.8,124.4 
			152.3,139.3 124.3,189.9 108.7,205 94.1,212.5 		"/>
		<g>
			<path class="st3" d="M74.1,174.5c2.5-5.6,5.2-11.1,7.7-16.8c1.7-3.9,6.2-8.2,9.5-12.1c1.1-1.3,3.6-4.7,4.3-5.2c1.7-1.3,4.1-2,6-3
				c5.4-2.7,10.9-5.4,16.3-8c0.9-0.4,0.9-1.7,0.3-2.4c-3-3.4-6-6.9-9.2-10.2c-1.3-1.3-0.6-0.1-1.2-2.3c-0.6-2.8-1.5-5.5-2.3-8.2
				c-0.9-3.2-0.6-5.1-0.3-9c0.4-5.5,0.8-11,1.3-16.5c0.1-1.2-0.1-2.8,0.3-4c-0.5,1.5,1.5-1.6,1.9-2c3.4-4.5,6.8-9,10.2-13.5
				c1.1-1.4,2.2-2.8,3.3-4.3c0.6-0.8,0.4-0.3-0.3,0.1c0.5-0.3,1.1-0.5,1.7-0.7c5.1-1.7,10.1-4,15.1-6c4.4-1.8,6.5-2.8,10.8-2.8
				c1.9,0,4.8-0.2,6.1,0.1c2.4,0.6,4.7,1.9,7,2.8c0-1,0-1.9,0-2.9c-10.7,3.6-20.8,8.1-30,14.6c-4,2.8-10.1,5.6-12.9,9.6
				c-2,2.9-3.6,6.4-5.3,9.5c-1.5,2.7-3.4,5.4-4.6,8.2c-2.3,5.4-2.9,12.1-4.2,17.8c-0.1,0.6,0.1,1.4,0.7,1.7
				c9.6,4.3,18.9,8.7,28.2,13.6c3.8,2,5.6,2.2,10,2.4c5.5,0.2,11.1,0.4,16.6,0.6c-0.4-0.8-0.9-1.5-1.3-2.3
				c-7.1,12.3-14,24.7-20.8,37.2c-4.6,8.3-9.2,16.6-13.7,24.9c-2.8,5.2-7.2,8.5-12,13.1c-2.6,2.5-4.5,4.7-7.2,6
				c-4.2,2.1-8.3,4.3-12.5,6.4c-1.7,0.9-0.2,3.5,1.5,2.6c5.9-3,12.5-5.3,17.2-10c4.6-4.4,10.7-8.8,14.1-14.2
				c9.4-15.1,17.3-31.4,26-47c3.2-5.9,6.6-11.7,10-17.5c0.6-1-0.2-2.2-1.3-2.3c-5.2-0.2-10.5-0.4-15.7-0.6c-2-0.1-4.2,0.2-6.2-0.2
				c1.2,0.2-0.1-0.2-0.7-0.5c-1.2-0.7-2.5-1.3-3.7-1.9c-8.9-4.7-17.8-8.9-27-13c0.2,0.6,0.5,1.1,0.7,1.7c1.3-5.5,1.9-11.6,3.8-17
				c1.5-4.2,6-10.8,8.6-15.5c0.5-0.9,0.9-1.9,1.6-2.8c0,0-0.4,0.2,0.7-0.5c3-2,6-4.2,8.9-6.2c4.3-3,8.2-5.6,12.8-7.9
				c6.6-3.3,11.6-5.4,18.5-7.7c1.5-0.5,1.4-2.4,0-2.9c-3.9-1.6-6.9-3-11.1-3c-4.1,0-6.9-0.1-10.6,1.3c-5.5,2.2-11,4.4-16.4,6.5
				c-2.6,1.1-4.4,1.5-6.1,3.7c-3.6,4.6-7,9.3-10.5,13.9c-1.8,2.3-4.2,4.6-4.8,7.4c-1,5-0.8,10.6-1.2,15.7c-0.3,3.5-1.1,7.5-0.7,11
				c0.3,2.6,1.5,5.3,2.2,7.8c0.5,1.9,0.8,4.1,1.8,5.8c2.4,4.1,7,7.7,10.2,11.3c0.1-0.8,0.2-1.6,0.3-2.4c-5.7,2.8-11.4,5.6-17.1,8.4
				c-1.8,0.9-4,1.6-5.6,2.8c-1.7,1.4-3.1,3.7-4.5,5.4c-3.2,3.9-7.4,7.7-9.7,12.2c-2.9,5.6-5.3,11.6-7.9,17.3
				C70.7,174.7,73.3,176.3,74.1,174.5L74.1,174.5z"/>
		</g>
	</g>
	<g>
		<polyline class="st3" points="72.8,173.7 54.4,170.6 64.7,186.1 50.7,186.7 59.2,203.1 75.3,216.6 94.1,212.5 		"/>
		<g>
			<path class="st3" d="M73.2,172.3c-6.1-1-12.3-2.1-18.4-3.1c-1.2-0.2-2.5,1-1.7,2.2c3.5,5.1,6.9,10.3,10.4,15.4
				c0.4-0.8,0.9-1.5,1.3-2.3c-4.7,0.2-9.4,0.4-14.1,0.6c-1.2,0.1-1.8,1.2-1.3,2.3c2.6,5.1,5,10.4,7.9,15.3c2.3,3.9,7,6.6,10.4,9.5
				c2.9,2.4,5.6,6.3,9.5,5.6c5.8-1.1,11.5-2.5,17.3-3.8c1.9-0.4,1.1-3.3-0.8-2.9c-5.3,1.2-10.7,2.3-16,3.5c-0.8,0.2-1.8,0.2-2.5,0.5
				c0.6-0.3,1.4,1.1,0.3-0.3c-1.7-2.2-4.7-4-6.8-5.7c-3.4-2.8-7.5-5.5-9.2-8.7c-2.5-4.8-5-9.7-7.5-14.5c-0.4,0.8-0.9,1.5-1.3,2.3
				c4.7-0.2,9.4-0.4,14.1-0.6c1.1,0,2-1.3,1.3-2.3c-3.5-5.1-6.9-10.3-10.4-15.4c-0.6,0.7-1.1,1.5-1.7,2.2c6.1,1,12.3,2.1,18.4,3.1
				C74.3,175.5,75.1,172.6,73.2,172.3L73.2,172.3z"/>
		</g>
	</g>
	<g>
		<polyline class="st3" points="59.3,170.1 67.4,171.3 63.4,172.1 59.3,170.1 		"/>
		<g>
			<path class="st3" d="M58.9,171.5c2.7,0.4,5.4,0.8,8.1,1.2c0-1,0-1.9,0-2.9c-1.4,0.3-2.7,0.5-4.1,0.8c0.4,0.1,0.8,0.1,1.2,0.2
				c-1.4-0.7-2.7-1.4-4.1-2.1c-1.7-0.9-3.2,1.7-1.5,2.6c1.4,0.7,2.8,1.7,4.2,2.1c1.4,0.4,3.6-0.5,5-0.7c1.4-0.3,1.5-2.7,0-2.9
				c-2.7-0.4-5.4-0.8-8.1-1.2C57.8,168.4,57,171.2,58.9,171.5L58.9,171.5z"/>
		</g>
	</g>
	<g>
		<polygon class="st3" points="196.1,139.7 233,122.2 236.1,124.1 237.2,133.4 230,149.7 217.4,160 200,165 		"/>
		<g>
			<path class="st3" d="M196.8,141c6.2-2.9,12.3-5.8,18.5-8.7c4.1-2,8.2-3.9,12.4-5.9c1.4-0.7,2.8-1.3,4.2-2
				c0.8-0.4,2.4-0.6,1.2-0.8c-1.4-0.2,1,1.2,1.5,1.3c0.8,0.3,0.4-1.2,0.2,0.2c-0.3,1.9,0.4,4.9,0.8,6.7c0.1,0.3,0.2,1.9,0.3,1.2
				c0.1-0.6-0.3,0.6-0.4,0.9c-0.9,2-1.8,4-2.7,6c-1.1,2.5-2.7,7.5-4,9c-2.5,2.9-6.4,5.2-9.4,7.6c-0.8,0.6-1.6,1.3-2.4,1.9
				c-0.7,0.5-0.6,0.4-0.2,0.2c-1.5,0.7-3.3,1-4.9,1.4c-4.1,1.2-8.2,2.4-12.3,3.5c0.6,0.3,1.2,0.7,1.8,1c-1.3-8.4-2.6-16.8-3.9-25.3
				c-0.3-1.9-3.2-1.1-2.9,0.8c1.3,8.4,2.6,16.8,3.9,25.3c0.1,0.8,1.1,1.3,1.8,1c3.8-1.1,7.6-2.2,11.4-3.3c2.8-0.8,5.4-1.2,7.7-3
				c3.6-2.7,7.8-5.6,10.9-8.8c2.2-2.2,3.1-5.7,4.3-8.6c1.2-2.8,3.6-6.4,4-9.5c0.2-1.8-0.5-4.1-0.7-5.9c-0.1-1.3,0-3.2-0.8-4.3
				c-3.9-5.3-12.5,1.5-16.4,3.3c-8.5,4-17,8-25.5,12.1C193.6,139.2,195.1,141.8,196.8,141z"/>
		</g>
	</g>
	<g>
		<path class="st2" d="M129.5,267l-15.8-13.4l-2.7-3.4l4.4-9.4l7.1-8.5l0.9-9.2c-0.1,0-0.2,0-0.3,0l-22.6,19.2l-3.2,4.1l6.6,12.9
			l14.1,8.2l12.9,2.2L129.5,267z"/>
		<g>
			<path class="st2" d="M130.6,265.9c-6.3-5.4-13.4-10.3-18.5-16.9c0.1,0.6,0.2,1.2,0.2,1.8c2.7-5.6,4.5-9.5,8.4-14.1
				c1.3-1.6,2.8-2.9,3.4-4.9c0.8-2.7,0.6-6,0.9-8.8c0.1-0.6-0.5-1.3-1.1-1.4c-1.8-0.3-3.4,1.7-4.6,2.8c-3.2,2.7-6.4,5.4-9.6,8.1
				c-4.8,4.1-9.5,7.7-13.3,12.7c-0.4,0.6-0.6,1.2-0.2,1.8c1.9,3.8,3.8,7.8,5.9,11.5c1.5,2.8,4.3,3.7,7.1,5.3c2.9,1.7,5.9,4,9,5
				c3.9,1.2,8.5,1.4,12.5,2.1c1.3,0.2,2.4-1,1.7-2.2c-0.5-0.9-1-1.7-1.4-2.6c-0.9-1.7-3.5-0.2-2.6,1.5c0.5,0.9,1,1.7,1.4,2.6
				c0.6-0.7,1.1-1.5,1.7-2.2c-3.8-0.6-7.7-1.1-11.5-1.9c-2.6-0.6-6-3-8.9-4.6c-1.8-1-3.7-2-5.5-3.2c-0.8-0.6-0.5-0.3-0.3-0.1
				c-0.4-0.5-0.6-1.3-0.9-1.8c-1.8-3.6-3.7-7.3-5.5-10.9c-0.1,0.6-0.2,1.2-0.2,1.8c3.4-4.4,7.2-7.5,11.5-11.2c3.1-2.7,6.3-5.3,9.4-8
				c1.1-1,2.4-1.9,3.4-2.9c1.4-1.4,1.6-0.5,0.3-0.8c-0.4-0.5-0.7-1-1.1-1.4c-0.3,2.9-0.3,5.8-0.9,8.7c-0.2,1.1,0.7-1.2,0.1-0.2
				c-0.3,0.4-0.6,0.8-1,1.2c-1.2,1.3-2.4,2.8-3.5,4.2c-3.2,3.8-4.9,8-7,12.5c-0.3,0.7-0.2,1.3,0.2,1.8c5.2,6.5,12.2,11.5,18.5,16.9
				C129.9,269.3,132.1,267.2,130.6,265.9z"/>
		</g>
	</g>
	<g>
		<path class="st2" d="M165.9,236.5l-10.2,8.9l-7,3.1l-7.7-6.9l-4.4-6.7l-1.7-11.7c0,0,0,0-0.1,0c-0.7,0.1-1.3,0-1.9-0.2l-6.9,5.8
			l12.1,27.5l6.4,5.8l10.9-4.2l11.9-11.2l6.4-13.9L165.9,236.5z"/>
		<g>
			<path class="st2" d="M164.9,235.4c-2.9,2.5-5.8,5.1-8.8,7.6c-2.2,1.9-5.2,2.8-8.2,4.1c0.6,0.1,1.2,0.2,1.8,0.2
				c-4.1-3.7-7.3-6.4-10.2-10.8c-2.5-3.9-2.5-9-3.3-13.9c-0.1-0.8-1.1-1.2-1.8-1c-2.3,0.5-2.2-0.1-4.3,1.6c-1.7,1.4-3.5,2.9-5.2,4.3
				c-0.5,0.5-0.5,1.2-0.2,1.8c2.9,6.6,5.8,13.2,8.7,19.9c1,2.4,1.9,5.5,3.3,7.6c1.6,2.3,4.6,4.2,6.7,6.1c0.4,0.3,1,0.6,1.5,0.4
				c3.5-1.3,7.5-2.3,10.8-4.1c3-1.7,5.6-5,8.1-7.4c2.3-2.2,4.4-3.8,5.7-6.6c1.8-4,3.7-7.9,5.5-11.9c0.6-1.4-0.7-2.7-2.1-2.1
				c-2.6,1.2-5.2,2.5-7.7,3.7c-1.7,0.8-0.2,3.4,1.5,2.6c2.6-1.2,5.2-2.5,7.7-3.7c-0.7-0.7-1.4-1.4-2.1-2.1c-2.8,6-4.7,12.2-9,16.3
				c-2.9,2.7-5.6,5.9-8.8,8.3c-0.4,0.3,0.9-0.5-0.4,0.1c-0.9,0.4-1.9,0.7-2.8,1.1c-1.7,0.6-4.8,1.2-6.1,2.3c-1,0.9-1.5-0.5,0.3,0.7
				c-0.7-0.5-1.4-1.2-2-1.8c-1.2-1.1-3.4-2.7-4.2-3.7c-1.1-1.6-2.2-5-3.1-7.2c-3-6.8-5.9-13.5-8.9-20.3c-0.1,0.6-0.2,1.2-0.2,1.8
				c1.6-1.4,3.2-2.7,4.9-4.1c0.5-0.4,1.3-1.4,1.9-1.6c-1.3,0.4,0.8,0.6,1.4,0.5c-0.6-0.3-1.2-0.7-1.8-1c0.8,5.1,0.7,10.3,3.6,14.6
				c3,4.6,6.5,7.7,10.6,11.4c0.5,0.5,1.2,0.5,1.8,0.2c2.9-1.3,5.9-2.2,8.3-4.2c3.2-2.6,6.2-5.4,9.3-8.1
				C168.5,236.2,166.3,234.1,164.9,235.4z"/>
		</g>
	</g>
	<g>
		<g>
			<path d="M123.2,227.8c3.5,8,7.5,15.8,11.2,23.7c2.2,4.7,5.2,14.8,12,13.9c6.1-0.9,13.4-5.8,17.7-10c6.5-6.5,10.4-15.2,12.9-23.9
				c0.3-1-0.5-1.8-1.4-1.9c-8.4-1-13.8,4.8-19.1,10.4c-1.6,1.7-3.4,3-5.7,3.8c-3.1,1.1-5,0-7.2-2.3c-3.8-4-5.2-9.7-5.2-15.1
				c0-1.9-3-1.9-3,0c0,4.8,1,9.6,3.5,13.8c1.8,3,5.7,7.5,9.5,7.6c4.1,0.1,8.3-3.5,10.8-6.4c4.2-5,9.5-9.7,16.4-8.8
				c-0.5-0.6-1-1.3-1.4-1.9c-2.2,8-5.7,16-11.6,22.1c-2.4,2.5-5.1,4.4-8.1,6c-2.3,1.2-5.7,3.6-8.4,3.6c-5.4,0.1-9.4-13.2-11.4-17.5
				c-3-6.2-6-12.3-8.7-18.6C125,224.5,122.4,226.1,123.2,227.8L123.2,227.8z"/>
		</g>
	</g>
	<g>
		<polygon class="st4" points="78.3,216.6 90.2,222.7 119.8,226.1 144.2,223.8 161.9,217.4 183.2,198.5 194.5,179.5 199,167 
			199.3,155.5 192.2,139.3 177.6,126.8 172.1,123.2 181.8,112.9 188.9,95.5 189.3,84.3 184.5,67.7 175,55.5 165,49.1 165,49.1 
			158.2,51.6 138.8,59.7 131.8,66.9 121.2,77.1 116.3,84.3 108.7,98.4 108.9,108 117.8,112.9 127.3,117.8 138.8,121 160.4,124.4 
			163.9,124.4 155.8,136.4 149.9,144.6 144,158.3 131,183.4 117.3,199.4 101.8,210 90.2,213.5 		"/>
		<g>
			<path class="st4" d="M77.6,217.9c5.1,2.6,9.9,6,15.7,6.7c8.5,1,17.1,2.5,25.7,2.9c6.8,0.3,14.1-1.2,20.9-1.8
				c6.8-0.6,12.8-3.4,19.2-5.7c5.9-2.1,9.9-6.9,14.6-11c4.7-4.1,9.6-7.7,12.8-13c3.6-6.1,8.1-12,10.5-18.7c2.5-7,5.1-13.8,3.9-21.5
				c-0.5-3.2-2.7-6.6-4-9.5c-1.3-2.9-2.2-6.3-4.4-8.6c-5.5-6-12.8-11.3-19.7-15.7c0.1,0.8,0.2,1.6,0.3,2.4c3-3.2,6.6-6.2,9.2-9.7
				c1.9-2.6,2.9-6,4.1-9c3-7.3,5.7-14.1,4.2-22.3c-0.9-4.8-2.7-9.7-4.2-14.4c-1-3.3-3.5-5.7-5.6-8.4c-2.3-3-4.1-5.7-7.3-7.8
				c-3-1.9-6.5-5.8-10.1-4.7c-3.7,1.1-7.3,2.8-10.8,4.3c-4.5,1.9-9.5,3.4-13.8,5.8c-3,1.7-5.3,5-7.8,7.4c-3,3-6.1,5.9-9.1,8.8
				c-5.6,5.4-9,13.1-12.7,19.9c-2.1,3.8-2,5.5-1.9,9.9c0,1.3-0.4,3.6,0.4,4.8c0.9,1.3,3.6,2.1,4.9,2.8c8.3,4.6,16.1,8.5,25.5,10.6
				c8.2,1.9,17.4,3.5,25.8,3.5c-0.4-0.8-0.9-1.5-1.3-2.3c-4.5,6.6-10.2,13.3-14.1,20.3c-3.9,7-6.6,15.1-10.3,22.3
				c-2.6,5-5.2,9.9-7.7,14.9c-1.2,2.5-3.8,5.1-6.1,7.7c-2.4,2.8-6,7.6-8.1,9.5c-3.9,3.3-8.7,5.9-12.9,8.8c-6.3,4.3-17.4,5.9-25.4,8
				c-1.9,0.5-1.1,3.4,0.8,2.9c4-1.1,8-2.1,12-3.2c3.8-1.1,8.4-1.9,11.9-3.6c4.5-2.3,8.7-6,12.9-8.8c2.9-2,4.6-4,6.9-6.7
				c3.1-3.7,6.9-7.3,9.6-11.2c2.2-3.1,3.7-6.9,5.4-10.3c4.4-8.6,8.6-17,12.4-25.8c3.5-8.2,10.3-15.8,15.3-23.2
				c0.7-1-0.2-2.3-1.3-2.3c-7.6,0-16.1-1.7-23.8-3.2c-7.6-1.5-13.4-3.9-20.1-7.3c-1.1-0.6-2.1-1.1-3.2-1.7c-1.7-0.9-4.5-3.3-6.3-3.5
				c-1.4-0.2-0.1,0.3-0.1,0.4c0-1.1-0.1-2.3-0.1-3.4c0-1.2,0-2.4-0.1-3.7c0-0.4,0.1-2.7-0.2-1.4c1.1-3.8,4.3-7.9,6.2-11.4
				c1.7-3.1,3.6-6.1,5.7-8.9c3.8-5.1,10.3-10.2,15.2-15.1c0.8-0.8,1.6-1.7,2.4-2.4c0.9-0.8-0.5,0.1,0.2-0.2c1.5-0.9,3.4-1.4,5-2.1
				c4.4-1.9,8.8-3.8,13.3-5.6c1.1-0.4,2.2-0.9,3.3-1.3c1.1-0.4,2.3-0.7,3.4-1.3c1.2-0.6-0.6-0.7,0.5,0c2.9,1.9,7.4,4.3,9.3,6.3
				c3.1,3.1,5.8,7.2,8.4,10.8c0.5,0.6,0.7,1.1,0.4,0.4c0.2,0.5,0.4,1.2,0.5,1.7c0.6,2.5,1.4,4.9,2.1,7.3c1.5,5.2,2,7.4,1.8,12.6
				c-0.2,4.9-0.7,6.6-2.6,11.3c-1.1,2.7-2.2,5.4-3.3,8.1c-0.4,0.9-0.7,1.9-1.1,2.7c-0.5,1,0.5-0.6-0.2,0.2c-2.8,3.5-6.3,6.6-9.3,9.9
				c-0.7,0.7-0.5,1.8,0.3,2.4c6.1,4,11.3,8.6,17.1,13.6c2.4,2.1,2.6,2.2,3.8,5.1c1.8,4,3.5,7.9,5.3,11.9c0.8,1.7,0.3-0.1,0.3,1.6
				c0,2.2-0.1,4.3-0.2,6.5c-0.1,3.7-0.6,5.1-2,8.8c-2.5,6.9-5.4,11.8-9.3,18.4c-1.2,2-3.4,6.1-4.3,7.2c-1.8,2.1-4.4,3.9-6.6,5.8
				c-3.5,3.1-7.1,6.3-10.6,9.4c-1.1,1-2.2,1.9-3.2,2.9c-1.3,1.2,0.5,0.1-1.1,0.7c-5.5,2.1-13,5.6-17.9,6.2
				c-7.4,0.9-15.3,2.1-22.7,2.2c-7.7,0-15.8-1.8-23.4-2.6c-1.7-0.2-3.4-0.4-5.2-0.6c-1.9-0.2,0.1,0.4-1.6-0.5
				c-3.5-1.9-7.2-3.7-10.7-5.5C77.4,214.5,75.8,217,77.6,217.9z"/>
		</g>
	</g>
	<g>
		<g>
			<path d="M106.5,78.2c0.7-5.2,2-9.8,5.7-13.7c4.7-5,11-8.6,17.3-11.1c12.7-5.1,27.4-7.9,39.7-0.6c11.9,7.1,18.9,20.7,19.2,34.5
				c0.3,13.7-6.3,26.4-17,34.8c-0.8,0.6-0.4,1.9,0.3,2.4c12.8,8.2,27.2,18.4,26.7,35.4c-0.3,8.8-4,17.2-8.2,24.7
				c-3.9,6.9-8.2,13.7-13.4,19.5c-20.7,23.1-58.6,24.5-86.8,16.7c-17.8-4.9-32.2-16.6-37.9-34.6c-0.5,0.6-1,1.3-1.4,1.9
				c5.4-0.6,10.9-0.8,16.3-0.5c1.7,0.1,2.1-2.7,0.4-2.9c-4-0.7-7.7-2-11.3-4.1c-0.3,0.9-0.5,1.9-0.8,2.8c2.7-0.2,5,0.2,7.4,1.1
				c1.4,0.5,2.5-1.5,1.5-2.5c-3.7-3.4-6.5-7.2-8.5-11.9c-0.3,0.6-0.7,1.2-1,1.8c6.1-1.1,11.9,0,17.2,3c0.9,0.5,1.9,0,2.2-0.9
				c6.6-20.4,21.1-40.1,43.2-44.6c1.3-0.3,1.4-2.1,0.4-2.7c-17.4-10.5-17.2-41.4-7.4-56.8c1-1.6-1.6-3.1-2.6-1.5
				c-6.5,10.3-7.7,24-6.1,35.8c1.4,10.1,5.5,19.7,14.5,25.1c0.1-0.9,0.2-1.8,0.4-2.7c-23.1,4.6-38.4,25.3-45.3,46.6
				c0.7-0.3,1.5-0.6,2.2-0.9c-6.1-3.4-12.6-4.5-19.5-3.3c-0.7,0.1-1.3,1.1-1,1.8c2.2,5.1,5.1,9.5,9.3,13.2c0.5-0.8,1-1.7,1.5-2.5
				c-2.8-1-5.3-1.4-8.2-1.2c-1.4,0.1-2.1,2-0.8,2.8c3.8,2.2,7.7,3.6,12,4.4c0.1-1,0.3-2,0.4-2.9c-5.5-0.3-10.9-0.2-16.3,0.5
				c-0.9,0.1-1.8,0.9-1.4,1.9c11,34.8,50,42.8,82.3,40.2c16.6-1.4,33.1-6.6,45.1-18.6c6.1-6.1,11-13.5,15.3-21
				c4.4-7.5,8.2-15.7,9.2-24.4c2.5-19.8-13-31.8-27.9-41.4c0.1,0.8,0.2,1.6,0.3,2.4c23.6-18.6,24.1-57.9-2.9-74
				c-13.5-8.1-29.9-5-43.6,0.9c-6.4,2.7-12.7,6.5-17.4,11.7c-3.8,4.1-5.3,9.1-6.1,14.6C103.4,79.3,106.3,80.1,106.5,78.2L106.5,78.2
				z"/>
		</g>
	</g>
	<g>
		<g>
			<path d="M67.9,213.1c20.7,10.9,45.2-6.4,57.5-22.2c8-10.3,13.7-22.1,19.4-33.8c3-6.2,6-12.3,9.4-18.3c3.9-6.9,9.7-15.9,19-12.8
				c1.8,0.6,2.6-2.3,0.8-2.9c-11.4-3.9-18.6,7.2-23.3,15.7c-6.5,11.7-11.7,24.1-18.3,35.8c-6.4,11.4-14.4,22-25.2,29.5
				c-10.4,7.2-25.9,12.7-37.9,6.3C67.7,209.6,66.2,212.2,67.9,213.1L67.9,213.1z"/>
		</g>
	</g>
	<g>
		<g>
			<path d="M154.4,44.7c-10.4,0.3-20.1,4-28.7,9.7c-8.5,5.6-17.6,13-22.6,22c-0.9,1.7,1.6,3.2,2.6,1.5c4.8-8.5,13.5-15.6,21.6-20.9
				c8.2-5.4,17.3-9,27.2-9.2C156.3,47.7,156.3,44.7,154.4,44.7L154.4,44.7z"/>
		</g>
	</g>
	<g>
		<g>
			<path d="M183,62.2c5.4-3,10.6-6.1,16.1-8.9c3.3-1.7,6.6-2.9,10.3-3c3.1-0.1,11.8,0.2,9.5,5.2c-2.3,4.8-9.8,8.1-14.1,10.9
				c-5.2,3.4-10.5,6.8-15.8,10c-1.6,1-0.1,3.6,1.5,2.6c8-4.9,15.9-9.9,23.6-15.2c3.6-2.5,10.9-7.3,8.5-12.8c-2-4.6-13.2-4-17.2-3.2
				c-8.5,1.8-16.4,7.7-23.9,11.9C179.8,60.6,181.3,63.2,183,62.2L183,62.2z"/>
		</g>
	</g>
	<g>
		<g>
			<path d="M191.1,81.7c5.4-1,10.8-1.9,15.8-4.4c-0.7-0.6-1.5-1.1-2.2-1.7c-2.3,7-6.3,13.8-14.7,13.7c-1.9,0-1.9,3,0,3
				c3.8,0.1,7.8-1.5,10.8-3.9c3.7-2.9,5.4-7.7,6.8-12c0.4-1.3-1.1-2.2-2.2-1.7c-4.7,2.3-10,3.2-15.1,4.1
				C188.4,79.2,189.2,82,191.1,81.7L191.1,81.7z"/>
		</g>
	</g>
	<g>
		<g>
			<path d="M154.3,82.2c0.9-1.9,1.9-3.7,3.3-5.3c0.4-0.4,5.2-5.2,5.2-2.6c0,1.9,3,1.9,3,0c-0.1-3.4-3.8-4.5-6.4-3
				c-3.5,2-6.1,5.9-7.7,9.4C151,82.4,153.5,84,154.3,82.2L154.3,82.2z"/>
		</g>
	</g>
	<g>
		<g>
			<path d="M149.3,82.3c1.1,0.2,2.2,0.4,3.4,0.6c0.8,0.1,1.6-0.2,1.8-1c0.2-0.7-0.2-1.7-1-1.8c-1.1-0.2-2.2-0.4-3.4-0.6
				c-0.8-0.1-1.6,0.2-1.8,1C148,81.2,148.5,82.2,149.3,82.3L149.3,82.3z"/>
		</g>
	</g>
	<g>
		<g>
			<path d="M165,47.6c-7.4,0.4-15.4,4.2-21.8,7.7c-7.2,3.9-13.4,9.6-19.1,15.4c-5.4,5.5-10.8,11-14.2,18c-3,6.1-4,12.6-4.5,19.4
				c-0.2,1.9,2.8,1.9,3,0c0.5-6.5,1.5-12.7,4.5-18.5c3.3-6.4,8.4-11.6,13.4-16.7c5-5.1,10.3-10,16.4-13.7c6.2-3.8,15.1-8.1,22.5-8.5
				C166.9,50.5,167,47.5,165,47.6L165,47.6z"/>
		</g>
	</g>
	<g>
		<g>
			<path d="M106.1,109.3c9.7,5.3,18.7,11.4,29.5,14.2c9.7,2.5,19.8,2.6,29.7,2.7c1.9,0,1.9-3,0-3c-9.7-0.1-19.5-0.1-28.9-2.6
				c-10.6-2.8-19.3-8.7-28.8-13.9C105.9,105.8,104.4,108.4,106.1,109.3L106.1,109.3z"/>
		</g>
	</g>
	<g>
		<g>
			<path d="M69.5,194.4c10.4,6,23.9,8.7,35.5,4.7c5.3-1.8,10.4-5.4,14.8-8.7c4.6-3.4,8.6-7.4,11-12.7c0.8-1.7-1.8-3.3-2.6-1.5
				c-2.3,5-6.1,8.8-10.6,12c-4.1,3-8.7,6.3-13.5,8c-10.9,3.7-23.5,1.2-33.2-4.4C69.3,190.8,67.8,193.4,69.5,194.4L69.5,194.4z"/>
		</g>
	</g>
	<g>
		<g>
			<path d="M125.7,226.4c-3.1,4.2-6.4,8.3-9.4,12.6c-2,3-5,6.9-5.1,10.8c-0.1,4.1,2.7,6.5,5.7,8.6c5.6,3.9,11.5,7.7,14.9,13.8
				c0.4-0.8,0.9-1.5,1.3-2.3c-6.5,0-12.6-1.8-18.3-4.9c-5.1-2.8-11.3-6.7-14.5-11.7c-5.9-9.2,8.1-19,14.5-23.9
				c1.5-1.2,0-3.8-1.5-2.6c-4.8,3.7-9.2,7.8-13.5,12c-3.4,3.4-5.4,8.7-3.5,13.4c2.5,6.3,9.9,11.3,15.5,14.5
				c6.5,3.8,13.7,6.1,21.3,6.1c1.2,0,1.9-1.3,1.3-2.3c-2.2-3.9-5.3-7-8.8-9.7c-3.7-2.9-12.2-6.5-11.3-12.1c0.5-3.5,3.8-7.3,5.8-10.1
				c2.6-3.7,5.4-7.3,8.1-10.9C129.4,226.4,126.8,224.9,125.7,226.4L125.7,226.4z"/>
		</g>
	</g>
	<g>
		<g>
			<path d="M199.4,168.4c17-2.5,37.2-16.2,39.2-34.4c0.4-3.3,0.6-9.8-2.1-12.4c-2.5-2.4-6,0.1-8.3,1.4
				c-11.2,6.2-22.9,11.6-34.8,16.2c0.4,0.9,0.8,1.8,1.2,2.7c12.4-5.8,24.9-11.7,37.3-17.5c1.7-0.8,0.2-3.4-1.5-2.6
				c-12.4,5.8-24.9,11.7-37.3,17.5c-1.5,0.7-0.4,3.4,1.2,2.7c8.2-3.2,16.2-6.7,24.1-10.6c3.9-1.9,8.1-5.1,12.1-6.3
				c1.5-1.4,3.1-1.1,4.8,0.7c0.4,1.4,0.6,2.8,0.6,4.2c0.1,2.2-0.1,4.4-0.7,6.6c-3.6,15.3-21.6,26.5-36.5,28.8
				C196.7,165.8,197.5,168.7,199.4,168.4L199.4,168.4z"/>
		</g>
	</g>
	<g>
		<polyline class="st5" points="78.8,103.8 93.1,89.4 120.2,57 132.5,48.8 142.2,46.2 155.5,44.2 163.1,43.5 176.8,44.7 183.2,45.7 
			176.8,36.6 167.8,32.2 145.2,32.5 133.2,35.2 101.8,23.7 73.7,18.5 60.6,24.3 59.2,41.7 59.2,59.4 61.3,65.7 74.4,44.2 78.8,32.7 
			83.7,48.8 88.4,69.4 89.1,81.5 78.8,103.8 78.8,103.8 		"/>
		<g>
			<path class="st5" d="M79.8,104.9c5.1-5.1,10.5-10,15.2-15.5c7-8.1,13.7-16.3,20.5-24.5c5.3-6.3,9.4-10.2,16.9-14.3
				c5.8-3.2,16.1-4,23.1-4.9c8.7-1.1,18.4,0,27.2,1.5c1.2,0.2,2.5-1,1.7-2.2c-2.2-3.1-4.3-7.6-7.3-9.9c-2.5-1.9-7.1-4-10.3-4.3
				c-5.5-0.5-11.4,0.1-17,0.2c-4.2,0.1-7.5,0.6-11.6,1.6c-1.3,0.3-2.6,0.5-3.8,0.8c-0.7,0.2-2.3,0.2-1,0.4c-1.4-0.2-3-1.1-4.4-1.6
				c-5.7-2.1-11.4-4.2-17.2-6.3c-3.3-1.2-6.6-2.7-10-3.6c-4.7-1.2-9.6-1.8-14.4-2.6c-3.2-0.6-6.5-1.2-9.7-1.8
				c-1.4-0.3-3.2-0.9-4.7-0.7c-2,0.3-4.2,1.9-6,2.7c-2.5,1.1-5,2.2-7.4,3.3c-0.5,0.2-0.7,0.8-0.7,1.3c-0.5,6.5-1.4,13.1-1.4,19.6
				c0,4.6-0.1,9.3,0,13.9c0,2.9,1.3,5.6,2.2,8.3c0.4,1.2,2,1.5,2.7,0.4c3.7-6.2,7.5-12.3,11.2-18.5c2.8-4.7,4.4-9.8,6.4-14.9
				c-1,0-1.9,0-2.9,0C81,45,85.1,57.2,86.9,69.5c0.3,1.8,0.3,6.4,0.5,9.1c0,0.8,0,3.4,0.3,2.3c-0.3,1.1-1,2.1-1.4,3.1
				c-2.9,6.3-5.8,12.7-8.7,19c-0.8,1.7,1.8,3.3,2.6,1.5c3-6.5,6-13.1,9-19.6c2.2-4.8,1.5-10.5,0.8-15.8c-1.7-12.5-6-24.9-9.7-36.9
				c-0.5-1.5-2.4-1.4-2.9,0c-2.1,5.5-3.6,10.2-6.5,14.8C67.3,53.1,63.6,59,60,65c0.9,0.1,1.8,0.2,2.7,0.4c-0.7-2.1-1.9-4.9-2.1-6.5
				c-0.4-3.3,0-6.9,0-10.2c0-5.6,0.3-11,0.8-16.6c0.1-1.7,0.3-3.4,0.4-5.2c0-0.5,0.3-1.3,0.1-1.7c-0.3-1.4,0.5,0.1-0.6,0.4
				c3.1-1,6.1-2.7,9.1-4c1.2-0.5,2.4-1.2,3.6-1.6c-0.6,0.2-1-0.2,0.4,0.2c3.1,1,6.7,1.2,9.9,1.8c5.6,1,11.5,1.6,17,3.1
				c5.8,1.6,11.4,4.2,17,6.3c3.4,1.3,6.8,2.5,10.2,3.8c1.5,0.5,3.1,1.5,4.7,1.5c4.9,0.1,9.9-2.6,14.3-2.7c4.4-0.1,8.8-0.1,13.2-0.2
				c1.8,0,3.6,0.1,5.3-0.1c0.4,0,0.9-0.1,1.4,0c0,0-0.7-0.2,0.3,0.2c1.8,0.7,3.6,1.7,5.4,2.6c0.7,0.4,1.6,0.7,2.3,1.1
				c1,0.6-0.2-0.4,0.3,0.1c2.4,2.4,4.2,6,6.2,8.8c0.6-0.7,1.1-1.5,1.7-2.2c-8.5-1.4-17.1-2.7-25.7-1.9c-8.3,0.8-17.1,1.9-25,4.6
				c-3.8,1.3-7.1,4.3-10.4,6.5c-2.3,1.6-3.7,2.7-5.5,4.8c-7.3,8.7-14.6,17.4-21.9,26.2c-5.4,6.4-11.5,12.2-17.4,18.1
				C76.4,104.1,78.5,106.2,79.8,104.9L79.8,104.9z"/>
		</g>
	</g>
	<g>
		<g>
			<path class="st6" d="M115.1,29.2c1.9,0,1.9-3,0-3C113.1,26.2,113.1,29.2,115.1,29.2L115.1,29.2z"/>
		</g>
	</g>
	<g>
		<g>
			<path class="st6" d="M115.3,29.2c1.9,0,1.9-3,0-3C113.4,26.2,113.4,29.2,115.3,29.2L115.3,29.2z"/>
		</g>
	</g>
	<g>
		<g>
			<path class="st6" d="M114.6,29.4c1.9,0,1.9-3,0-3C112.6,26.4,112.6,29.4,114.6,29.4L114.6,29.4z"/>
		</g>
	</g>
	<g>
		<g>
			<path class="st6" d="M116.6,28.7c1.9,0,1.9-3,0-3C114.6,25.7,114.6,28.7,116.6,28.7L116.6,28.7z"/>
		</g>
	</g>
	<g>
		<path class="st6" d="M116.3,30c-1.4,0.1-2.7-0.3-3.9-0.9"/>
		<g>
			<path class="st6" d="M116.3,28.5c-1.1,0-2.2-0.2-3.2-0.7c-1.7-0.9-3.2,1.7-1.5,2.6c1.5,0.7,3,1.1,4.7,1.1
				C118.3,31.4,118.3,28.4,116.3,28.5L116.3,28.5z"/>
		</g>
	</g>
	<g>
		<g>
			<path class="st6" d="M100.9,42c-1.3,1.7-2.8,3.2-4.7,4.2c-1,0.6-2.2,1-3.3,1.5c-1.2,0.6-2.2,1.3-3.2,2.1c4.7-1.7,10-2.1,14.9-1
				c-3.3-0.5-6.3-2.3-9.2-4.1c-1.4-0.9-2.9-1.8-4.3-2.7c2.4,3.1,4.2,6.6,5.3,10.4c0.8-3.7,2-7.2,3.5-10.7"/>
			<g>
				<path class="st6" d="M99.8,40.9c-1.6,2-3.3,3.5-5.6,4.6c-2,0.9-3.8,1.8-5.6,3.2c-1.2,0.9,0.1,3,1.5,2.5c4.6-1.6,9.3-2,14.1-1
					c1.9,0.4,2.7-2.5,0.8-2.9c-4.9-1-9-4.1-13.1-6.7c-1.2-0.7-3,0.8-2.1,2.1c2.3,3.1,4,6.4,5.2,10c0.4,1.3,2.5,1.5,2.9,0
					c0.8-3.5,1.9-7,3.3-10.3c0.7-1.8-1.8-3.3-2.6-1.5c-1.5,3.6-2.7,7.2-3.6,11c1,0,1.9,0,2.9,0c-1.2-3.9-3-7.5-5.5-10.7
					c-0.7,0.7-1.4,1.4-2.1,2.1c4.4,2.7,8.7,5.9,13.9,7c0.3-1,0.5-1.9,0.8-2.9c-5.3-1-10.6-0.7-15.7,1c0.5,0.8,1,1.7,1.5,2.5
					c2-1.6,4.4-2.3,6.6-3.6c1.8-1.1,3.3-2.6,4.6-4.2C103.1,41.5,101,39.4,99.8,40.9L99.8,40.9z"/>
			</g>
		</g>
		<g>
			<path class="st6" d="M156.6,32.7c-3.4,2.5-7.2,4.6-11.1,6.1c4.4-0.3,8.8-0.2,13.1,0.4c-4.2-1.1-8.2-3.3-11.3-6.4
				c1.3,1.7,2.1,3.7,3,5.7c0.9,2,1.7,3.9,2.6,5.9c0.9-1,0.8-2.5,0.8-3.8c0-2.8,0.6-5.7,1.6-8.3"/>
			<g>
				<path class="st6" d="M155.8,31.4c-3.4,2.4-6.9,4.4-10.8,6c-1.4,0.6-1.4,3.1,0.4,2.9c4.4-0.3,8.7-0.2,13.1,0.4
					c1.7,0.2,2-2.5,0.4-2.9c-4-1.1-7.6-3.1-10.6-6c-1.2-1.1-3.4,0.4-2.4,1.8c2.4,3.5,3.9,7.7,5.6,11.6c0.5,1.1,2.1,0.9,2.6,0
					c1-1.6,1-3.2,1.1-5.1c0.1-2.6,0.6-5,1.5-7.4c0.6-1.8-2.3-2.6-2.9-0.8c-0.6,1.9-1.1,3.7-1.4,5.7c-0.2,1.9,0.2,4.5-0.9,6.1
					c0.9,0,1.7,0,2.6,0c-1.7-3.9-3.2-8.1-5.6-11.6c-0.8,0.6-1.6,1.2-2.4,1.8c3.4,3.2,7.4,5.5,11.9,6.8c0.1-1,0.3-2,0.4-2.9
					c-4.4-0.5-8.7-0.7-13.1-0.4c0.1,1,0.3,2,0.4,2.9c4.1-1.6,7.9-3.7,11.5-6.3C158.9,32.8,157.4,30.2,155.8,31.4L155.8,31.4z"/>
			</g>
		</g>
		<g>
			<path class="st6" d="M99.5,66.9c-2.2,2.7-5,4.8-8.1,6.2c4.4-0.7,8.9-0.7,13.3-0.1c-4.8-1-9.3-3.1-13.2-6.1
				c2.1,1.3,3.4,3.7,4.6,5.9c0.6,1.2,1.3,2.4,1.9,3.5c0.2,0.3,0.4,0.7,0.8,0.6c0.4-0.1,0.3-0.6,0.3-1c-0.6-3-0.3-6.1,1-8.9"/>
			<g>
				<path class="st6" d="M98.5,65.8c-2.2,2.6-4.8,4.5-7.8,5.9c-1.7,0.8-0.4,3,1.2,2.7c4.3-0.6,8.6-0.6,12.9,0c1.7,0.2,2-2.6,0.4-2.9
					c-4.7-1.1-9-3-12.9-5.9c-0.5,0.9-1,1.7-1.5,2.6c2.2,1.5,3.3,3.9,4.5,6.2c0.8,1.5,1.3,3.4,3.1,3.9c0.7,0.2,1.3-0.2,1.7-0.7
					c0.9-1.2,0.3-2.6,0.2-4c-0.1-2.2,0.4-4.2,1.2-6.3c0.7-1.8-2.2-2.6-2.9-0.8c-0.6,1.5-1.1,3.1-1.2,4.8c-0.1,0.9-0.1,1.8,0,2.7
					c0,0.4,0.4,1.8,0.2,2c0.6-0.2,1.1-0.5,1.7-0.7c0.1,0-1-2-1.3-2.5c-0.6-1-1.1-2.1-1.7-3.1c-1.1-1.7-2.3-3.1-3.9-4.2
					c-1.6-1.1-3,1.5-1.5,2.6c4.1,3,8.6,5.1,13.6,6.2c0.1-1,0.3-2,0.4-2.9c-4.6-0.6-9.1-0.5-13.7,0.1c0.4,0.9,0.8,1.8,1.2,2.7
					c3.3-1.5,6.1-3.6,8.4-6.4C101.8,66.5,99.7,64.4,98.5,65.8L98.5,65.8z"/>
			</g>
		</g>
		<g>
			<path class="st6" d="M123.3,43.6c-1.4,1.7-3.3,3-5.3,3.9c-1.2,0.5-2.6,1-3.4,2c3.7-0.4,7.5-0.2,11.2,0.4
				c-3.8-0.8-6.7-3.6-9.5-6.3c1.4,3.2,2.9,6.4,4.3,9.6c1.2-3.7,2.5-7.4,4-11"/>
			<g>
				<path class="st6" d="M122.2,42.6c-1.3,1.5-2.8,2.7-4.6,3.5c-1.5,0.7-2.9,1.2-4,2.4c-0.8,0.9-0.3,2.7,1.1,2.6
					c3.6-0.3,7.2-0.2,10.8,0.4c1.9,0.3,2.7-2.4,0.8-2.9c-3.6-0.9-6.2-3.4-8.9-5.9c-1.3-1.2-3,0.3-2.4,1.8c1.4,3.2,2.9,6.4,4.3,9.6
					c0.6,1.3,2.4,0.8,2.7-0.4c1.2-3.7,2.5-7.4,4-11c0.7-1.8-2.2-2.6-2.9-0.8c-1.4,3.6-2.7,7.3-4,11c0.9-0.1,1.8-0.2,2.7-0.4
					c-1.4-3.2-2.9-6.4-4.3-9.6c-0.8,0.6-1.6,1.2-2.4,1.8c3,2.9,6.1,5.6,10.2,6.7c0.3-1,0.5-1.9,0.8-2.9c-3.9-0.6-7.7-0.8-11.6-0.5
					c0.4,0.9,0.7,1.7,1.1,2.6c1.2-1.3,3.1-1.7,4.7-2.7c1.5-0.9,2.8-2,3.9-3.3C125.6,43.3,123.5,41.1,122.2,42.6L122.2,42.6z"/>
			</g>
		</g>
		<g>
			<path class="st6" d="M68.6,42.8c-1.4,2-2.9,3.8-4.7,5.4c-1.1,1-2.2,2-3.3,2.9c2.9-1.2,6.1-1.9,9.2-2c-2.9-1.9-5.9-3.8-8.8-5.7
				c1.3,3.5,2.6,7.1,3.9,10.6c1.6-3.2,0.5-7.4,2.6-10.4"/>
			<g>
				<path class="st6" d="M67.3,42c-2.2,3.1-4.9,5.6-7.8,8c-1.1,0.9,0.1,3.1,1.5,2.5c2.8-1.1,5.8-1.8,8.8-2c1.5-0.1,2-2,0.8-2.8
					c-2.9-1.9-5.9-3.8-8.8-5.7c-1-0.7-2.7,0.5-2.2,1.7c1.3,3.5,2.6,7.1,3.9,10.6c0.4,1.1,2.2,1.7,2.7,0.4c1.4-3.3,0.7-7.3,2.6-10.4
					c1-1.6-1.6-3.2-2.6-1.5c-2,3.2-1.1,7-2.6,10.4c0.9,0.1,1.8,0.2,2.7,0.4C65,50,63.7,46.5,62.4,43c-0.7,0.6-1.5,1.1-2.2,1.7
					c2.9,1.9,5.9,3.8,8.8,5.7c0.3-0.9,0.5-1.9,0.8-2.8c-3.3,0.2-6.5,0.9-9.6,2.1c0.5,0.8,1,1.7,1.5,2.5c3.1-2.6,5.9-5.4,8.2-8.7
					C71,41.9,68.4,40.4,67.3,42L67.3,42z"/>
			</g>
		</g>
		<g>
			<path class="st6" d="M74.5,22.1c-1.8,2.9-4.5,5.2-7.7,6.4c-0.7,0.3-1.5,0.7-1.6,1.4c1.1-1,2.7-1.4,4.1-1.7
				c2.9-0.6,5.9-0.9,8.9-0.9c-1.5,0.1-2.8-0.5-4.2-1.2c-2.4-1.2-4.7-2.3-7.1-3.5c2.4,3.2,4.3,6.7,5.6,10.5
				c-0.2-3.7-0.5-7.6,0.9-11.1"/>
			<g>
				<path class="st6" d="M73.2,21.4c-1.5,2.2-3.4,4-5.7,5.2c-1.6,0.9-3,1.2-3.8,3c-0.5,1.2,1.2,2.5,2.2,1.7
					c3.2-2.4,8.4-2.3,12.2-2.4c1.9-0.1,1.9-3,0-3c-3.4-0.1-7.5-3-10.5-4.5c-1.2-0.6-3,0.7-2.1,2.1c2.3,3.1,4.1,6.5,5.5,10.1
					c0.5,1.5,3.1,1.4,2.9-0.4c-0.2-3.6-0.4-7.2,0.8-10.7c0.6-1.8-2.3-2.6-2.9-0.8c-1.3,3.7-1.2,7.6-1,11.5c1-0.1,2-0.3,2.9-0.4
					c-1.4-3.9-3.3-7.5-5.8-10.8c-0.7,0.7-1.4,1.4-2.1,2.1c3.6,1.8,7.9,4.8,12,4.9c0-1,0-2,0-3c-4.3,0.1-10.2,0-13.7,2.8
					c0.7,0.6,1.5,1.1,2.2,1.7c0.2-0.5,1.9-0.9,2.4-1.2c1-0.5,1.9-1.1,2.8-1.8c1.6-1.3,2.9-2.8,4-4.5C76.8,21.3,74.2,19.8,73.2,21.4
					L73.2,21.4z"/>
			</g>
		</g>
		<g>
			<path class="st6" d="M99.3,23.9c-2.7,2.7-5.9,5-9.4,6.6c3-0.1,6.1-0.5,9-1.3"/>
			<g>
				<path class="st6" d="M98.2,22.8c-2.7,2.6-5.7,4.7-9.1,6.4c-1.3,0.6-0.7,2.9,0.8,2.8c3.2-0.1,6.3-0.6,9.4-1.3
					c1.9-0.5,1.1-3.3-0.8-2.9c-2.8,0.7-5.7,1.1-8.6,1.2c0.3,0.9,0.5,1.9,0.8,2.8c3.6-1.7,6.9-4,9.7-6.8
					C101.7,23.6,99.6,21.5,98.2,22.8L98.2,22.8z"/>
			</g>
		</g>
		<g>
			<path class="st6" d="M100,28.7c-3.4-1.7-6.5-3.8-9.4-6.2c1.6,4,3.2,8.1,5.4,11.8c-0.3-3.9,0.5-7.8,2.1-11.3"/>
			<g>
				<path class="st6" d="M100.8,27.4c-3.2-1.7-6.3-3.7-9.1-6c-1-0.8-3.1-0.1-2.5,1.5c1.6,4.2,3.3,8.3,5.6,12.2
					c0.7,1.2,2.9,0.8,2.8-0.8c-0.2-3.6,0.4-7.2,1.9-10.5c0.8-1.7-1.8-3.3-2.6-1.5c-1.7,3.8-2.5,7.8-2.3,12c0.9-0.3,1.9-0.5,2.8-0.8
					c-2.1-3.7-3.7-7.5-5.3-11.5c-0.8,0.5-1.7,1-2.5,1.5c3,2.5,6.2,4.6,9.7,6.4C101,30.9,102.5,28.3,100.8,27.4L100.8,27.4z"/>
			</g>
		</g>
		<g>
			<path class="st6" d="M178,37.4c-2.5,0.4-5.1,0.4-7.6,0.1c2.1,0.2,4.1,0.9,5.9,2c0.2,0.1,0.5,0.4,0.4,0.6c0,0.1-0.1,0.2-0.2,0.2
				c-1.5,1.2-3,2.4-4.6,3.6"/>
			<g>
				<path class="st6" d="M178,35.9c-2.5,0.3-5.1,0.4-7.6,0.1c-1.9-0.2-1.9,2.8,0,3c0.9,0.1,1.8,0.3,2.7,0.6c0.3,0.1,2.1,0.7,2.2,0.9
					c0.1-0.5,0.3-1,0.4-1.5c-1.3,1.5-3.2,2.6-4.8,3.9c-1.5,1.2,0.6,3.3,2.1,2.1c1.3-1,2.6-2.1,3.9-3.1c1-0.8,1.8-1.7,1.1-3
					c-0.6-1-2.1-1.5-3.1-1.9c-1.4-0.6-2.9-0.9-4.4-1.1c0,1,0,2,0,3c2.6,0.3,5.1,0.3,7.6-0.1C179.9,38.7,179.9,35.7,178,35.9
					L178,35.9z"/>
			</g>
		</g>
		<g>
			<path class="st6" d="M117.1,30.9c-0.3-0.4-1-0.1-1.4,0.2c-1.4,1.1-2.8,2.4-3.9,3.7c1.3-1.3,2.7-2.5,4-3.8c0.6-0.5,1.4-1.1,2-0.6
				c0.2,0.2,0.3,0.4,0.4,0.7c0.6,1.6,1.1,3.3,1.4,5.1c-1.4-1.4-2.2-3.3-2.3-5.3c0-0.2,0-0.5,0.2-0.7c0.3-0.3,0.7-0.2,1.1-0.1
				c1,0.3,2,0.6,2.9,0.9"/>
			<g>
				<path class="st6" d="M117.8,29.6c-2.5-1.7-5.7,2.5-7.1,4.1c-1.3,1.4,0.7,3.4,2.1,2.1c0.7-0.6,1.3-1.3,2-1.9
					c0.4-0.4,1.2-1.5,1.8-1.6c0.1-0.3,0.3-0.3,0.4-0.1c0.2,0.5,0.3,0.9,0.5,1.4c0.3,1,0.5,1.9,0.7,2.9c0.8-0.5,1.7-1,2.5-1.5
					c-1-1-1.3-2.1-1.8-3.5c0-0.3-0.1-0.5-0.1-0.8c-0.9,0.5-0.8,0.8,0.1,0.9c0.5,0.4,1.6,0.5,2.2,0.7c1.9,0.6,2.6-2.3,0.8-2.9
					c-1.8-0.6-5.5-2.3-6.1,0.8c-0.5,2.4,1.1,5.2,2.7,6.9c1.1,1.2,2.8-0.1,2.5-1.5c-0.4-2-0.9-6.7-3.6-7c-1.2-0.1-2.2,0.7-3,1.4
					c-1.3,1.1-2.5,2.4-3.8,3.5c0.7,0.7,1.4,1.4,2.1,2.1c0.3-0.4,3.5-3.7,3.5-3.7C117.9,33.3,119.4,30.7,117.8,29.6L117.8,29.6z"/>
			</g>
		</g>
		<g>
			<path class="st6" d="M87.6,89.9c1.6-0.5,3-1.6,3.9-3c-0.7,0.6-1.4,1.3-2.2,1.9c-0.2,0.2-0.5,0.4-0.7,0.4
				c-0.8-0.1-0.7-1.5-1.4-1.7c0.6,1.5,1.3,3,2.2,4.4"/>
			<g>
				<path class="st6" d="M88,91.3c2-0.7,3.6-1.9,4.8-3.7c1-1.5-1.1-2.9-2.4-1.8c-0.4,0.4-0.8,0.7-1.2,1.1c-0.3,0.2-0.7,0.8-1,0.8
					c0.3,0,0.5,0,0.8,0c0.9,0.2,0.3,0.5,0.3,0.1c0-0.2-0.2-0.6-0.3-0.7c-0.2-0.4-0.6-0.8-1-1c-1-0.5-2.7,0.3-2.2,1.7
					c0.7,1.7,1.4,3.3,2.3,4.8c1,1.7,3.6,0.2,2.6-1.5c-0.8-1.3-1.5-2.7-2-4.1c-0.7,0.6-1.5,1.1-2.2,1.7c0,0-0.1-0.3,0,0.1
					c0.1,0.2,0.2,0.5,0.3,0.7c0.4,0.6,0.9,1,1.6,1.1c1.6,0.2,3.1-1.7,4.2-2.7c-0.8-0.6-1.6-1.2-2.4-1.8c-0.7,1.1-1.8,1.9-3,2.3
					C85.4,89,86.2,91.9,88,91.3L88,91.3z"/>
			</g>
		</g>
	</g>
	<g>
		<g>
			<path d="M77.9,109.4c13.5-16.8,28.5-32.4,42.3-49c7.4-8.9,16.3-12,27.5-13.4c11.7-1.5,23.5-1.3,35.1,0.3c1.1,0.1,2.2-0.6,1.8-1.8
				c-4.7-15.4-23.3-16.7-36.8-14.8c-3.7,0.5-7.2,1.5-10.8,2.5c-6.1,1.5-11.1-1.9-16.6-4.2c-7.7-3.3-15.7-6.1-23.8-8.1
				c-7.9-2-16.3-3.6-24.5-3.8c-5.9-0.1-11.2,1.7-13.2,7.7c-2.4,7.2-1.1,16.1-1.1,23.5c0,5.4-2.1,14.5,2.5,18.6
				c0.7,0.6,1.8,0.6,2.4-0.3c6.1-10.1,12.3-20.2,18.4-30.4c-0.9-0.1-1.8-0.2-2.7-0.4c1.5,6,3,12,4.5,18.1c1.5,6.1,3.9,12.7,4.2,19
				c0.2,5.9-2.1,11.3-4.3,16.6c-2.4,6.1-4.9,12.3-7.4,18.4c-0.7,1.8,2.2,2.6,2.9,0.8c2.6-6.5,5.2-12.9,7.7-19.4
				c2.1-5.3,4.3-10.7,4-16.5c-0.3-5.7-2.2-11.5-3.6-17c-1.7-7-3.5-13.9-5.2-20.9c-0.3-1.3-2.1-1.4-2.7-0.4
				C72.3,44.7,66.2,54.9,60,65c0.8-0.1,1.6-0.2,2.4-0.3c-2.7-2.4-1.7-7.6-1.7-10.9c0-3.4,0-6.8,0.1-10.3c0-5.7-1.5-15.1,1.9-20.1
				c4.3-6.2,17.1-3,23.3-2c6.9,1.2,13.7,3,20.4,5.2c6.9,2.3,13.4,5.2,20,8.1c5.5,2.4,9,1.7,14.6,0.2c12.9-3.4,35.8-5,40.7,11.2
				c0.6-0.6,1.2-1.2,1.8-1.8c-11.6-1.6-23.3-1.9-35-0.5c-9.5,1.1-19.2,2.9-26.4,9.8c-8,7.6-14.5,17.2-21.9,25.4
				c-8.3,9.3-16.8,18.5-24.6,28.2C74.6,108.7,76.7,110.9,77.9,109.4L77.9,109.4z"/>
		</g>
	</g>
</g>
</svg>
